M48
;DRILL file {KiCad 4.0.5} date 02/05/17 15:08:49
;FORMAT={-:-/ absolute / metric / decimal}
FMAT,2
METRIC,TZ
T1C0.400
T2C0.550
T3C0.850
T4C1.000
%
G90
G05
M71
T1
X1.2Y9.6
X1.2Y8.6
X1.2Y7.6
X7.Y27.8
X7.Y26.2
X11.5Y11.9
X11.9Y8.4
X12.Y34.2
X12.2Y20.8
X12.2Y19.8
X14.7Y9.2
X16.8Y23.6
X17.8Y23.6
X18.1Y29.1
X19.2Y38.
X20.2Y19.8
X20.2Y18.
X22.Y8.
X22.5Y35.6
X23.4Y27.
X23.9Y36.8
X24.2Y26.2
X24.2Y10.9
X25.2Y13.
X25.4Y30.4
X25.4Y28.9
X25.4Y27.4
X25.9Y8.
X26.6Y21.
X27.4Y30.2
X27.4Y28.2
X27.4Y26.2
X27.7Y19.7
X28.Y15.8
X28.Y10.6
X29.4Y33.2
X30.Y13.2
X30.75Y8.7
X30.75Y7.6
X30.8Y38.
X31.Y16.4
X32.6Y17.
X33.5Y15.8
X33.5Y10.6
X34.Y28.2
X35.Y23.8
X35.2Y29.
X36.25Y11.4
X36.25Y10.3
X36.3Y22.4
X37.Y29.
X37.2Y19.8
X37.5Y17.
X39.Y15.8
X39.Y10.6
X41.4Y13.4
X43.8Y11.
X43.8Y10.2
X44.8Y16.6
X45.6Y16.
X46.4Y15.4
X47.2Y14.8
X48.Y14.2
X48.8Y9.6
X48.8Y8.6
X48.8Y7.6
T4
X39.43Y36.84
X39.43Y34.3
X39.43Y31.76
X39.43Y27.47
X39.43Y24.93
X41.97Y36.84
X41.97Y34.3
X41.97Y31.76
X41.97Y27.47
X41.97Y24.93
T2
X5.425Y30.875G85X6.075Y30.875
G05
X5.425Y23.125G85X6.075Y23.125
G05
T3
X9.275Y30.725G85X9.825Y30.725
G05
X9.275Y23.275G85X9.825Y23.275
G05
T0
M30
