G04 #@! TF.FileFunction,Copper,L2,Bot,Signal*
%FSLAX46Y46*%
G04 Gerber Fmt 4.6, Leading zero omitted, Abs format (unit mm)*
G04 Created by KiCad (PCBNEW 4.0.5) date 02/05/17 15:08:45*
%MOMM*%
%LPD*%
G01*
G04 APERTURE LIST*
%ADD10C,0.100000*%
%ADD11R,2.540000X5.080000*%
%ADD12C,1.800000*%
%ADD13O,2.200000X1.650000*%
%ADD14O,2.200000X1.550000*%
%ADD15C,0.600000*%
%ADD16C,0.800000*%
%ADD17C,0.250000*%
%ADD18C,0.500000*%
%ADD19C,0.400000*%
%ADD20C,0.300000*%
%ADD21C,0.800000*%
%ADD22C,1.200000*%
%ADD23C,0.150000*%
G04 APERTURE END LIST*
D10*
X4000000Y22500000D02*
G75*
G03X5500000Y21000000I1500000J0D01*
G01*
X5500000Y33000000D02*
G75*
G03X4000000Y31500000I0J-1500000D01*
G01*
X37300000Y39000000D02*
G75*
G03X32700000Y39000000I-2300000J-2000000D01*
G01*
X17300000Y39000000D02*
G75*
G03X12700000Y39000000I-2300000J-2000000D01*
G01*
X17300000Y39000000D02*
X32700000Y39000000D01*
X37300000Y39000000D02*
X44000000Y39000000D01*
X11000000Y39000000D02*
X12700000Y39000000D01*
X11000000Y39000000D02*
X11000000Y33000000D01*
X0Y11000000D02*
X11000000Y17000000D01*
X5500000Y33000000D02*
X11000000Y33000000D01*
X5500000Y21000000D02*
X11000000Y21000000D01*
X4000000Y31500000D02*
X4000000Y22500000D01*
X11000000Y21000000D02*
X11000000Y17000000D01*
X44000000Y39000000D02*
X44000000Y19000000D01*
X44000000Y19000000D02*
X50000000Y14500000D01*
X50000000Y0D02*
X50000000Y14500000D01*
X0Y0D02*
X0Y11000000D01*
X0Y0D02*
X50000000Y0D01*
D11*
X46778800Y3770000D03*
X42818800Y3770000D03*
X38858800Y3770000D03*
X34898800Y3770000D03*
X30938800Y3770000D03*
X26978800Y3770000D03*
X23021200Y3770000D03*
X19061200Y3770000D03*
X15101200Y3770000D03*
X11141200Y3770000D03*
X7181200Y3770000D03*
X3221200Y3770000D03*
D12*
X39430000Y27470000D03*
X41970000Y27470000D03*
X39430000Y24930000D03*
X41970000Y24930000D03*
X39430000Y36840000D03*
X41970000Y36840000D03*
X39430000Y34300000D03*
X41970000Y34300000D03*
X39430000Y31760000D03*
X41970000Y31760000D03*
D13*
X9550000Y30725000D03*
X9550000Y23275000D03*
D14*
X5750000Y30875000D03*
X5750000Y23125000D03*
D15*
X20200000Y18000000D03*
X20200000Y19800000D03*
X36300000Y22400000D03*
D16*
X39000000Y15800000D03*
D15*
X48000000Y14200000D03*
X18100000Y29100000D03*
X27700000Y19700000D03*
X12200000Y19800000D03*
X12200000Y20800000D03*
X30800000Y38000000D03*
X34000000Y28200000D03*
X7000000Y27800000D03*
X7000000Y26200000D03*
X19200000Y38000000D03*
X12000000Y34200000D03*
X27400000Y30200000D03*
X27400000Y28200000D03*
X27400000Y26200000D03*
X23400000Y27000000D03*
X24200000Y26200000D03*
X1200000Y9600000D03*
X1200000Y8600000D03*
X1200000Y7600000D03*
X25200000Y13000000D03*
X44800000Y16600000D03*
X45600000Y16000000D03*
X46400000Y15400000D03*
X47200000Y14800000D03*
X48800000Y9600000D03*
X48800000Y8600000D03*
X48800000Y7600000D03*
D16*
X33500000Y15800000D03*
X28000000Y15800000D03*
X30000000Y13200000D03*
X30750000Y8700000D03*
X30750000Y7600000D03*
X31000000Y16400000D03*
X24200000Y10900000D03*
X25900000Y8000000D03*
X14700000Y9200000D03*
X32600000Y17000000D03*
X22000000Y8000000D03*
X36250000Y11400000D03*
X36250000Y10300000D03*
X37500000Y17000000D03*
X37200000Y19800000D03*
X35000000Y23800000D03*
X39000000Y10600000D03*
X26600000Y21000000D03*
X43800000Y11000000D03*
X43800000Y10200000D03*
X17800000Y23600000D03*
X16800000Y23600000D03*
X33500000Y10600000D03*
X28000000Y10600000D03*
X11900000Y8400000D03*
X22500000Y35600000D03*
X41400000Y13400000D03*
X11500000Y11900000D03*
X23900000Y36800000D03*
X25400000Y28900000D03*
X37000000Y29000000D03*
X35200000Y29000000D03*
X25400000Y27400000D03*
X29400000Y33200000D03*
X25400000Y30400000D03*
D17*
X28000000Y15800000D02*
X28600000Y15800000D01*
X32700000Y15600000D02*
X32900000Y15800000D01*
X28600000Y15800000D02*
X28800000Y15600000D01*
X28800000Y15600000D02*
X32700000Y15600000D01*
X32900000Y15800000D02*
X33500000Y15800000D01*
X28000000Y15800000D02*
X25200000Y13000000D01*
X39000000Y15800000D02*
X33500000Y15800000D01*
X22000000Y19700000D02*
X21900000Y19800000D01*
X21900000Y19800000D02*
X20200000Y19800000D01*
X27700000Y19700000D02*
X22000000Y19700000D01*
X19200000Y38000000D02*
X30800000Y38000000D01*
D18*
X27400000Y28200000D02*
X34000000Y28200000D01*
D17*
X7000000Y26200000D02*
X7000000Y27800000D01*
D18*
X24200000Y26200000D02*
X27400000Y26200000D01*
D17*
X30000000Y13200000D02*
X30000000Y12300000D01*
X30000000Y12300000D02*
X32900000Y9400000D01*
X32900000Y9400000D02*
X34300000Y9400000D01*
X34300000Y9400000D02*
X35200000Y10300000D01*
X35200000Y10300000D02*
X35200000Y11700000D01*
X35200000Y11700000D02*
X35800000Y12300000D01*
X35800000Y12300000D02*
X36800000Y12300000D01*
X36800000Y12300000D02*
X37600000Y11500000D01*
X37600000Y11500000D02*
X37600000Y8800000D01*
X37600000Y8800000D02*
X37900000Y8500000D01*
X37900000Y8500000D02*
X37900000Y4728800D01*
X37900000Y4728800D02*
X38858800Y3770000D01*
X33900000Y7200000D02*
X33900000Y4768800D01*
X33200000Y7900000D02*
X33900000Y7200000D01*
X32300000Y7900000D02*
X33200000Y7900000D01*
X31500000Y8700000D02*
X32300000Y7900000D01*
X30750000Y8700000D02*
X31500000Y8700000D01*
X33900000Y4768800D02*
X34898800Y3770000D01*
D19*
X30750000Y7600000D02*
X30750000Y3958800D01*
X30750000Y3958800D02*
X30938800Y3770000D01*
D17*
X24200000Y10900000D02*
X24200000Y13500000D01*
X24200000Y13500000D02*
X27500000Y16800000D01*
X27500000Y16800000D02*
X29900000Y16800000D01*
X29900000Y16800000D02*
X30300000Y16400000D01*
X30300000Y16400000D02*
X31000000Y16400000D01*
D19*
X25900000Y8000000D02*
X25900000Y5000000D01*
X25900000Y5000000D02*
X26978800Y3921200D01*
X26978800Y3921200D02*
X26978800Y3770000D01*
D17*
X14700000Y9200000D02*
X16200000Y10700000D01*
X16200000Y10700000D02*
X19500000Y10700000D01*
X19500000Y10700000D02*
X26300000Y17500000D01*
X26300000Y17500000D02*
X32100000Y17500000D01*
X32100000Y17500000D02*
X32600000Y17000000D01*
D19*
X22000000Y8000000D02*
X22000000Y4800000D01*
X22000000Y4800000D02*
X23021200Y3778800D01*
X23021200Y3778800D02*
X23021200Y3770000D01*
D17*
X36200000Y11400000D02*
X36800000Y11400000D01*
X36800000Y11400000D02*
X37100000Y11100000D01*
X37100000Y11100000D02*
X37100000Y9900000D01*
X37100000Y9900000D02*
X35600000Y8400000D01*
X35600000Y8400000D02*
X32500000Y8400000D01*
X32500000Y8400000D02*
X31100000Y9800000D01*
X31100000Y9800000D02*
X29900000Y9800000D01*
X29900000Y9800000D02*
X28900000Y8800000D01*
X28900000Y8800000D02*
X27000000Y8800000D01*
X27000000Y8800000D02*
X26600000Y9200000D01*
X26600000Y9200000D02*
X18800000Y9200000D01*
X18800000Y9200000D02*
X18000000Y8400000D01*
X18000000Y8400000D02*
X18000000Y4831200D01*
X18000000Y4831200D02*
X19061200Y3770000D01*
X36200000Y10300000D02*
X34800000Y8900000D01*
X34800000Y8900000D02*
X32700000Y8900000D01*
X32700000Y8900000D02*
X31300000Y10300000D01*
X31300000Y10300000D02*
X29700000Y10300000D01*
X29700000Y10300000D02*
X28700000Y9300000D01*
X28700000Y9300000D02*
X27200000Y9300000D01*
X27200000Y9300000D02*
X26800000Y9700000D01*
X26800000Y9700000D02*
X18600000Y9700000D01*
X18600000Y9700000D02*
X16100000Y7200000D01*
X16100000Y7200000D02*
X16100000Y4768800D01*
X16100000Y4768800D02*
X15101200Y3770000D01*
X13200000Y10200000D02*
X14700000Y11700000D01*
X12200000Y6900000D02*
X12200000Y4828800D01*
X13200000Y10200000D02*
X13200000Y7900000D01*
X13200000Y7900000D02*
X12200000Y6900000D01*
X12200000Y4828800D02*
X11141200Y3770000D01*
X14700000Y11700000D02*
X18800000Y11700000D01*
X18800000Y11700000D02*
X25600000Y18500000D01*
X25600000Y18500000D02*
X34400000Y18500000D01*
X34400000Y18500000D02*
X35900000Y17000000D01*
X35900000Y17000000D02*
X37500000Y17000000D01*
D20*
X37200000Y19800000D02*
X39430000Y22030000D01*
X39430000Y22030000D02*
X39430000Y24930000D01*
D21*
X33800000Y21000000D02*
X33800000Y22600000D01*
X33800000Y21000000D02*
X26600000Y21000000D01*
X28000000Y10600000D02*
X28000000Y13600000D01*
X28000000Y13600000D02*
X29200000Y14800000D01*
X29200000Y14800000D02*
X30800000Y14800000D01*
X30800000Y14800000D02*
X31100000Y14500000D01*
X31100000Y14500000D02*
X33500000Y14500000D01*
X39000000Y14000000D02*
X37300000Y14000000D01*
X37300000Y14000000D02*
X36800000Y14500000D01*
X36800000Y14500000D02*
X33500000Y14500000D01*
X40500000Y15000000D02*
X40500000Y16900000D01*
X40500000Y16900000D02*
X38900000Y18500000D01*
X38900000Y18500000D02*
X36300000Y18500000D01*
X36300000Y18500000D02*
X33800000Y21000000D01*
X33500000Y14500000D02*
X33500000Y10600000D01*
X39000000Y14000000D02*
X39500000Y14000000D01*
X39500000Y14000000D02*
X40500000Y15000000D01*
X39000000Y10600000D02*
X39000000Y14000000D01*
X40500000Y15000000D02*
X42900000Y15000000D01*
X42900000Y15000000D02*
X43800000Y14100000D01*
X43800000Y14100000D02*
X43800000Y11000000D01*
X35000000Y23800000D02*
X33800000Y22600000D01*
X17300000Y23600000D02*
X17300000Y22900000D01*
X17300000Y22900000D02*
X19200000Y21000000D01*
X19200000Y21000000D02*
X26600000Y21000000D01*
X17300000Y23600000D02*
X16800000Y23600000D01*
X17800000Y23600000D02*
X17300000Y23600000D01*
X43800000Y11000000D02*
X43800000Y10600000D01*
X43800000Y10600000D02*
X43800000Y10200000D01*
D22*
X5750000Y23125000D02*
X9400000Y23125000D01*
X9400000Y23125000D02*
X9550000Y23275000D01*
X5750000Y30875000D02*
X9400000Y30875000D01*
X9400000Y30875000D02*
X9550000Y30725000D01*
D20*
X11900000Y8400000D02*
X11900000Y10500000D01*
X11900000Y10500000D02*
X14200000Y12800000D01*
X14200000Y12800000D02*
X17000000Y12800000D01*
X17000000Y12800000D02*
X19300000Y15100000D01*
X19300000Y15100000D02*
X19300000Y18800000D01*
X19300000Y18800000D02*
X15300000Y22800000D01*
X15300000Y22800000D02*
X15300000Y28400000D01*
X15300000Y28400000D02*
X22500000Y35600000D01*
D19*
X41400000Y13400000D02*
X41400000Y8800000D01*
X41400000Y8800000D02*
X41900000Y8300000D01*
X41900000Y8300000D02*
X41900000Y4688800D01*
X41900000Y4688800D02*
X42818800Y3770000D01*
D20*
X8200000Y4788800D02*
X7181200Y3770000D01*
X8200000Y8600000D02*
X8200000Y4788800D01*
X11500000Y11900000D02*
X8200000Y8600000D01*
X11500000Y11900000D02*
X13000000Y13400000D01*
X16700000Y13400000D02*
X18700000Y15400000D01*
X13000000Y13400000D02*
X16700000Y13400000D01*
X18700000Y15400000D02*
X18700000Y18500000D01*
X18700000Y18500000D02*
X14700000Y22500000D01*
X14700000Y22500000D02*
X14700000Y28700000D01*
X14700000Y28700000D02*
X21500000Y35500000D01*
X21500000Y35500000D02*
X21500000Y36100000D01*
X21500000Y36100000D02*
X22200000Y36800000D01*
X22200000Y36800000D02*
X23900000Y36800000D01*
X25400000Y28900000D02*
X26200000Y28900000D01*
X26200000Y28900000D02*
X26500000Y29200000D01*
X37000000Y29900000D02*
X37000000Y29000000D01*
X26500000Y29200000D02*
X30400000Y29200000D01*
X30400000Y29200000D02*
X31600000Y30400000D01*
X31600000Y30400000D02*
X36500000Y30400000D01*
X36500000Y30400000D02*
X37000000Y29900000D01*
X34400000Y27400000D02*
X25400000Y27400000D01*
X34400000Y27400000D02*
X35200000Y28200000D01*
X35200000Y28200000D02*
X35200000Y29000000D01*
X29400000Y33200000D02*
X36400000Y33200000D01*
X36400000Y33200000D02*
X38100000Y34900000D01*
X38100000Y34900000D02*
X38100000Y35510000D01*
X38100000Y35510000D02*
X39430000Y36840000D01*
X39430000Y31760000D02*
X39430000Y27470000D01*
X25400000Y30400000D02*
X26760000Y31760000D01*
X26760000Y31760000D02*
X39430000Y31760000D01*
D23*
G36*
X11973889Y38255417D02*
X11968163Y38241551D01*
X11788163Y37641551D01*
X11785349Y37627224D01*
X11725349Y37007224D01*
X11725349Y36992776D01*
X11785349Y36372776D01*
X11788163Y36358449D01*
X11968163Y35758449D01*
X11973889Y35744583D01*
X12273889Y35184583D01*
X12282383Y35171986D01*
X12682383Y34691986D01*
X12691986Y34682383D01*
X13171986Y34282383D01*
X13184583Y34273889D01*
X13744583Y33973889D01*
X13758449Y33968163D01*
X14358449Y33788163D01*
X14372776Y33785349D01*
X14992776Y33725349D01*
X15007224Y33725349D01*
X15627224Y33785349D01*
X15641551Y33788163D01*
X16241551Y33968163D01*
X16255417Y33973889D01*
X16815417Y34273889D01*
X16828014Y34282383D01*
X17308014Y34682383D01*
X17317617Y34691986D01*
X17717617Y35171986D01*
X17726111Y35184583D01*
X18026111Y35744583D01*
X18031837Y35758449D01*
X18211837Y36358449D01*
X18214651Y36372776D01*
X18274651Y36992776D01*
X18274651Y37007224D01*
X18214651Y37627224D01*
X18211837Y37641551D01*
X18031837Y38241551D01*
X18026111Y38255417D01*
X17801334Y38675000D01*
X32198666Y38675000D01*
X31973889Y38255417D01*
X31968163Y38241551D01*
X31788163Y37641551D01*
X31785349Y37627224D01*
X31725349Y37007224D01*
X31725349Y36992776D01*
X31785349Y36372776D01*
X31788163Y36358449D01*
X31968163Y35758449D01*
X31973889Y35744583D01*
X32273889Y35184583D01*
X32282383Y35171986D01*
X32682383Y34691986D01*
X32691986Y34682383D01*
X33171986Y34282383D01*
X33184583Y34273889D01*
X33744583Y33973889D01*
X33758449Y33968163D01*
X34358449Y33788163D01*
X34372776Y33785349D01*
X34992776Y33725349D01*
X35007224Y33725349D01*
X35627224Y33785349D01*
X35641551Y33788163D01*
X36241551Y33968163D01*
X36255417Y33973889D01*
X36815417Y34273889D01*
X36828014Y34282383D01*
X37147988Y34549028D01*
X36223960Y33625000D01*
X29928066Y33625000D01*
X29925618Y33628684D01*
X29832343Y33722613D01*
X29722600Y33796636D01*
X29600569Y33847933D01*
X29470898Y33874550D01*
X29338527Y33875475D01*
X29208497Y33850670D01*
X29085762Y33801082D01*
X28974996Y33728598D01*
X28880418Y33635981D01*
X28805631Y33526757D01*
X28753483Y33405087D01*
X28725961Y33275606D01*
X28724113Y33143244D01*
X28748009Y33013045D01*
X28796739Y32889966D01*
X28868447Y32778697D01*
X28960402Y32683474D01*
X29069101Y32607927D01*
X29190404Y32554931D01*
X29319691Y32526505D01*
X29452036Y32523733D01*
X29582399Y32546720D01*
X29705815Y32594589D01*
X29817582Y32665519D01*
X29913444Y32756807D01*
X29926278Y32775000D01*
X36400000Y32775000D01*
X36439091Y32778833D01*
X36478179Y32782253D01*
X36480322Y32782876D01*
X36482550Y32783094D01*
X36520131Y32794441D01*
X36557832Y32805393D01*
X36559820Y32806423D01*
X36561955Y32807068D01*
X36596587Y32825482D01*
X36631472Y32843565D01*
X36633218Y32844959D01*
X36635191Y32846008D01*
X36665636Y32870838D01*
X36696295Y32895313D01*
X36699397Y32898373D01*
X36699470Y32898432D01*
X36699526Y32898499D01*
X36700520Y32899480D01*
X38263158Y34462118D01*
X38256673Y34431610D01*
X38253456Y34201203D01*
X38295053Y33974559D01*
X38379879Y33760311D01*
X38504705Y33566620D01*
X38664775Y33400863D01*
X38853991Y33269354D01*
X39065148Y33177102D01*
X39290202Y33127621D01*
X39520581Y33122795D01*
X39747510Y33162808D01*
X39962344Y33246137D01*
X40156902Y33369608D01*
X40323773Y33528516D01*
X40456600Y33716810D01*
X40550324Y33927318D01*
X40601375Y34152021D01*
X40602061Y34201203D01*
X40793456Y34201203D01*
X40835053Y33974559D01*
X40919879Y33760311D01*
X41044705Y33566620D01*
X41204775Y33400863D01*
X41393991Y33269354D01*
X41605148Y33177102D01*
X41830202Y33127621D01*
X42060581Y33122795D01*
X42287510Y33162808D01*
X42502344Y33246137D01*
X42696902Y33369608D01*
X42863773Y33528516D01*
X42996600Y33716810D01*
X43090324Y33927318D01*
X43141375Y34152021D01*
X43145050Y34415215D01*
X43100293Y34641256D01*
X43012483Y34854298D01*
X42884965Y35046228D01*
X42722597Y35209733D01*
X42531562Y35338588D01*
X42319138Y35427883D01*
X42093415Y35474217D01*
X41862991Y35475826D01*
X41636644Y35432648D01*
X41422993Y35346327D01*
X41230178Y35220153D01*
X41065543Y35058930D01*
X40935358Y34868799D01*
X40844582Y34657004D01*
X40796673Y34431610D01*
X40793456Y34201203D01*
X40602061Y34201203D01*
X40605050Y34415215D01*
X40560293Y34641256D01*
X40472483Y34854298D01*
X40344965Y35046228D01*
X40182597Y35209733D01*
X39991562Y35338588D01*
X39779138Y35427883D01*
X39553415Y35474217D01*
X39322991Y35475826D01*
X39096644Y35432648D01*
X38882993Y35346327D01*
X38690178Y35220153D01*
X38525543Y35058930D01*
X38525000Y35058137D01*
X38525000Y35333960D01*
X38955880Y35764840D01*
X39065148Y35717102D01*
X39290202Y35667621D01*
X39520581Y35662795D01*
X39747510Y35702808D01*
X39962344Y35786137D01*
X40156902Y35909608D01*
X40323773Y36068516D01*
X40456600Y36256810D01*
X40550324Y36467318D01*
X40601375Y36692021D01*
X40602061Y36741203D01*
X40793456Y36741203D01*
X40835053Y36514559D01*
X40919879Y36300311D01*
X41044705Y36106620D01*
X41204775Y35940863D01*
X41393991Y35809354D01*
X41605148Y35717102D01*
X41830202Y35667621D01*
X42060581Y35662795D01*
X42287510Y35702808D01*
X42502344Y35786137D01*
X42696902Y35909608D01*
X42863773Y36068516D01*
X42996600Y36256810D01*
X43090324Y36467318D01*
X43141375Y36692021D01*
X43145050Y36955215D01*
X43100293Y37181256D01*
X43012483Y37394298D01*
X42884965Y37586228D01*
X42722597Y37749733D01*
X42531562Y37878588D01*
X42319138Y37967883D01*
X42093415Y38014217D01*
X41862991Y38015826D01*
X41636644Y37972648D01*
X41422993Y37886327D01*
X41230178Y37760153D01*
X41065543Y37598930D01*
X40935358Y37408799D01*
X40844582Y37197004D01*
X40796673Y36971610D01*
X40793456Y36741203D01*
X40602061Y36741203D01*
X40605050Y36955215D01*
X40560293Y37181256D01*
X40472483Y37394298D01*
X40344965Y37586228D01*
X40182597Y37749733D01*
X39991562Y37878588D01*
X39779138Y37967883D01*
X39553415Y38014217D01*
X39322991Y38015826D01*
X39096644Y37972648D01*
X38882993Y37886327D01*
X38690178Y37760153D01*
X38525543Y37598930D01*
X38395358Y37408799D01*
X38304582Y37197004D01*
X38271395Y37040871D01*
X38214651Y37627224D01*
X38211837Y37641551D01*
X38031837Y38241551D01*
X38026111Y38255417D01*
X37801334Y38675000D01*
X43675000Y38675000D01*
X43675000Y19000000D01*
X43677083Y18978757D01*
X43677802Y18957410D01*
X43680173Y18947247D01*
X43681190Y18936874D01*
X43687360Y18916438D01*
X43692212Y18895639D01*
X43696509Y18886136D01*
X43699523Y18876152D01*
X43709546Y18857302D01*
X43718344Y18837843D01*
X43724407Y18829353D01*
X43729301Y18820148D01*
X43742789Y18803610D01*
X43755204Y18786224D01*
X43762802Y18779072D01*
X43769390Y18770994D01*
X43785838Y18757387D01*
X43801389Y18742748D01*
X43805000Y18740000D01*
X49675000Y14337500D01*
X49675000Y325000D01*
X325000Y325000D01*
X325000Y3551250D01*
X1576200Y3551250D01*
X1576200Y1193065D01*
X1590611Y1120616D01*
X1618879Y1052371D01*
X1659919Y990951D01*
X1712152Y938718D01*
X1773571Y897679D01*
X1841817Y869411D01*
X1914266Y855000D01*
X3002450Y855000D01*
X3096200Y948750D01*
X3096200Y3645000D01*
X3346200Y3645000D01*
X3346200Y948750D01*
X3439950Y855000D01*
X4528134Y855000D01*
X4600583Y869411D01*
X4668829Y897679D01*
X4730248Y938718D01*
X4782481Y990951D01*
X4823521Y1052371D01*
X4851789Y1120616D01*
X4866200Y1193065D01*
X4866200Y3551250D01*
X4772450Y3645000D01*
X3346200Y3645000D01*
X3096200Y3645000D01*
X1669950Y3645000D01*
X1576200Y3551250D01*
X325000Y3551250D01*
X325000Y6346935D01*
X1576200Y6346935D01*
X1576200Y3988750D01*
X1669950Y3895000D01*
X3096200Y3895000D01*
X3096200Y6591250D01*
X3346200Y6591250D01*
X3346200Y3895000D01*
X4772450Y3895000D01*
X4866200Y3988750D01*
X4866200Y6310000D01*
X5534386Y6310000D01*
X5534386Y1230000D01*
X5539148Y1170283D01*
X5570515Y1068996D01*
X5628857Y980457D01*
X5709557Y911678D01*
X5806222Y868104D01*
X5911200Y853186D01*
X8451200Y853186D01*
X8510917Y857948D01*
X8612204Y889315D01*
X8700743Y947657D01*
X8769522Y1028357D01*
X8813096Y1125022D01*
X8828014Y1230000D01*
X8828014Y6310000D01*
X9494386Y6310000D01*
X9494386Y1230000D01*
X9499148Y1170283D01*
X9530515Y1068996D01*
X9588857Y980457D01*
X9669557Y911678D01*
X9766222Y868104D01*
X9871200Y853186D01*
X12411200Y853186D01*
X12470917Y857948D01*
X12572204Y889315D01*
X12660743Y947657D01*
X12729522Y1028357D01*
X12773096Y1125022D01*
X12788014Y1230000D01*
X12788014Y6310000D01*
X13454386Y6310000D01*
X13454386Y1230000D01*
X13459148Y1170283D01*
X13490515Y1068996D01*
X13548857Y980457D01*
X13629557Y911678D01*
X13726222Y868104D01*
X13831200Y853186D01*
X16371200Y853186D01*
X16430917Y857948D01*
X16532204Y889315D01*
X16620743Y947657D01*
X16689522Y1028357D01*
X16733096Y1125022D01*
X16748014Y1230000D01*
X16748014Y6310000D01*
X16743252Y6369717D01*
X16711885Y6471004D01*
X16653543Y6559543D01*
X16572843Y6628322D01*
X16500000Y6661158D01*
X16500000Y7034314D01*
X17600000Y8134314D01*
X17600000Y6630788D01*
X17541657Y6592343D01*
X17472878Y6511643D01*
X17429304Y6414978D01*
X17414386Y6310000D01*
X17414386Y1230000D01*
X17419148Y1170283D01*
X17450515Y1068996D01*
X17508857Y980457D01*
X17589557Y911678D01*
X17686222Y868104D01*
X17791200Y853186D01*
X20331200Y853186D01*
X20390917Y857948D01*
X20492204Y889315D01*
X20580743Y947657D01*
X20649522Y1028357D01*
X20693096Y1125022D01*
X20708014Y1230000D01*
X20708014Y6310000D01*
X20703252Y6369717D01*
X20671885Y6471004D01*
X20613543Y6559543D01*
X20532843Y6628322D01*
X20436178Y6671896D01*
X20331200Y6686814D01*
X18400000Y6686814D01*
X18400000Y7943244D01*
X21324113Y7943244D01*
X21348009Y7813045D01*
X21396739Y7689966D01*
X21468447Y7578697D01*
X21525000Y7520134D01*
X21525000Y6607725D01*
X21501657Y6592343D01*
X21432878Y6511643D01*
X21389304Y6414978D01*
X21374386Y6310000D01*
X21374386Y1230000D01*
X21379148Y1170283D01*
X21410515Y1068996D01*
X21468857Y980457D01*
X21549557Y911678D01*
X21646222Y868104D01*
X21751200Y853186D01*
X24291200Y853186D01*
X24350917Y857948D01*
X24452204Y889315D01*
X24540743Y947657D01*
X24609522Y1028357D01*
X24653096Y1125022D01*
X24668014Y1230000D01*
X24668014Y6310000D01*
X24663252Y6369717D01*
X24631885Y6471004D01*
X24573543Y6559543D01*
X24492843Y6628322D01*
X24396178Y6671896D01*
X24291200Y6686814D01*
X22475000Y6686814D01*
X22475000Y7520197D01*
X22513444Y7556807D01*
X22589749Y7664976D01*
X22643590Y7785906D01*
X22672918Y7914991D01*
X22673312Y7943244D01*
X25224113Y7943244D01*
X25248009Y7813045D01*
X25296739Y7689966D01*
X25368447Y7578697D01*
X25425000Y7520134D01*
X25425000Y6552148D01*
X25390478Y6511643D01*
X25346904Y6414978D01*
X25331986Y6310000D01*
X25331986Y1230000D01*
X25336748Y1170283D01*
X25368115Y1068996D01*
X25426457Y980457D01*
X25507157Y911678D01*
X25603822Y868104D01*
X25708800Y853186D01*
X28248800Y853186D01*
X28308517Y857948D01*
X28409804Y889315D01*
X28498343Y947657D01*
X28567122Y1028357D01*
X28610696Y1125022D01*
X28625614Y1230000D01*
X28625614Y6310000D01*
X28620852Y6369717D01*
X28589485Y6471004D01*
X28531143Y6559543D01*
X28450443Y6628322D01*
X28353778Y6671896D01*
X28248800Y6686814D01*
X26375000Y6686814D01*
X26375000Y7520197D01*
X26413444Y7556807D01*
X26489749Y7664976D01*
X26543590Y7785906D01*
X26572918Y7914991D01*
X26575029Y8066187D01*
X26549317Y8196040D01*
X26498873Y8318427D01*
X26425618Y8428684D01*
X26332343Y8522613D01*
X26222600Y8596636D01*
X26100569Y8647933D01*
X25970898Y8674550D01*
X25838527Y8675475D01*
X25708497Y8650670D01*
X25585762Y8601082D01*
X25474996Y8528598D01*
X25380418Y8435981D01*
X25305631Y8326757D01*
X25253483Y8205087D01*
X25225961Y8075606D01*
X25224113Y7943244D01*
X22673312Y7943244D01*
X22675029Y8066187D01*
X22649317Y8196040D01*
X22598873Y8318427D01*
X22525618Y8428684D01*
X22432343Y8522613D01*
X22322600Y8596636D01*
X22200569Y8647933D01*
X22070898Y8674550D01*
X21938527Y8675475D01*
X21808497Y8650670D01*
X21685762Y8601082D01*
X21574996Y8528598D01*
X21480418Y8435981D01*
X21405631Y8326757D01*
X21353483Y8205087D01*
X21325961Y8075606D01*
X21324113Y7943244D01*
X18400000Y7943244D01*
X18400000Y8234314D01*
X18965686Y8800000D01*
X26434314Y8800000D01*
X26717157Y8517158D01*
X26745712Y8493702D01*
X26774013Y8469955D01*
X26775855Y8468942D01*
X26777482Y8467606D01*
X26810018Y8450161D01*
X26842423Y8432346D01*
X26844433Y8431708D01*
X26846282Y8430717D01*
X26881546Y8419936D01*
X26916835Y8408741D01*
X26918928Y8408506D01*
X26920937Y8407892D01*
X26957647Y8404163D01*
X26994415Y8400039D01*
X26998533Y8400010D01*
X26998604Y8400003D01*
X26998670Y8400009D01*
X27000000Y8400000D01*
X28900000Y8400000D01*
X28936784Y8403607D01*
X28973580Y8406826D01*
X28975599Y8407413D01*
X28977694Y8407618D01*
X29013077Y8418301D01*
X29048547Y8428606D01*
X29050415Y8429574D01*
X29052428Y8430182D01*
X29085058Y8447531D01*
X29117855Y8464532D01*
X29119498Y8465844D01*
X29121357Y8466832D01*
X29150011Y8490202D01*
X29178866Y8513236D01*
X29181796Y8516124D01*
X29181854Y8516172D01*
X29181899Y8516226D01*
X29182843Y8517157D01*
X30065685Y9400000D01*
X30934314Y9400000D01*
X31012352Y9321962D01*
X30950569Y9347933D01*
X30820898Y9374550D01*
X30688527Y9375475D01*
X30558497Y9350670D01*
X30435762Y9301082D01*
X30324996Y9228598D01*
X30230418Y9135981D01*
X30155631Y9026757D01*
X30103483Y8905087D01*
X30075961Y8775606D01*
X30074113Y8643244D01*
X30098009Y8513045D01*
X30146739Y8389966D01*
X30218447Y8278697D01*
X30310402Y8183474D01*
X30358146Y8150291D01*
X30324996Y8128598D01*
X30230418Y8035981D01*
X30155631Y7926757D01*
X30103483Y7805087D01*
X30075961Y7675606D01*
X30074113Y7543244D01*
X30098009Y7413045D01*
X30146739Y7289966D01*
X30218447Y7178697D01*
X30275000Y7120134D01*
X30275000Y6686814D01*
X29668800Y6686814D01*
X29609083Y6682052D01*
X29507796Y6650685D01*
X29419257Y6592343D01*
X29350478Y6511643D01*
X29306904Y6414978D01*
X29291986Y6310000D01*
X29291986Y1230000D01*
X29296748Y1170283D01*
X29328115Y1068996D01*
X29386457Y980457D01*
X29467157Y911678D01*
X29563822Y868104D01*
X29668800Y853186D01*
X32208800Y853186D01*
X32268517Y857948D01*
X32369804Y889315D01*
X32458343Y947657D01*
X32527122Y1028357D01*
X32570696Y1125022D01*
X32585614Y1230000D01*
X32585614Y6310000D01*
X32580852Y6369717D01*
X32549485Y6471004D01*
X32491143Y6559543D01*
X32410443Y6628322D01*
X32313778Y6671896D01*
X32208800Y6686814D01*
X31225000Y6686814D01*
X31225000Y7120197D01*
X31263444Y7156807D01*
X31339749Y7264976D01*
X31393590Y7385906D01*
X31422918Y7514991D01*
X31425029Y7666187D01*
X31399317Y7796040D01*
X31348873Y7918427D01*
X31275618Y8028684D01*
X31182343Y8122613D01*
X31142413Y8149546D01*
X31167582Y8165519D01*
X31263444Y8256807D01*
X31293913Y8300000D01*
X31334314Y8300000D01*
X32017157Y7617157D01*
X32045742Y7593677D01*
X32074013Y7569955D01*
X32075855Y7568942D01*
X32077482Y7567606D01*
X32110053Y7550142D01*
X32142423Y7532346D01*
X32144429Y7531710D01*
X32146282Y7530716D01*
X32181579Y7519925D01*
X32216835Y7508741D01*
X32218929Y7508506D01*
X32220938Y7507892D01*
X32257687Y7504159D01*
X32294415Y7500039D01*
X32298522Y7500010D01*
X32298604Y7500002D01*
X32298680Y7500009D01*
X32300000Y7500000D01*
X33034314Y7500000D01*
X33500000Y7034315D01*
X33500000Y6660658D01*
X33467796Y6650685D01*
X33379257Y6592343D01*
X33310478Y6511643D01*
X33266904Y6414978D01*
X33251986Y6310000D01*
X33251986Y1230000D01*
X33256748Y1170283D01*
X33288115Y1068996D01*
X33346457Y980457D01*
X33427157Y911678D01*
X33523822Y868104D01*
X33628800Y853186D01*
X36168800Y853186D01*
X36228517Y857948D01*
X36329804Y889315D01*
X36418343Y947657D01*
X36487122Y1028357D01*
X36530696Y1125022D01*
X36545614Y1230000D01*
X36545614Y6310000D01*
X36540852Y6369717D01*
X36509485Y6471004D01*
X36451143Y6559543D01*
X36370443Y6628322D01*
X36273778Y6671896D01*
X36168800Y6686814D01*
X34300000Y6686814D01*
X34300000Y7200000D01*
X34296389Y7236829D01*
X34293174Y7273580D01*
X34292587Y7275599D01*
X34292382Y7277694D01*
X34281699Y7313077D01*
X34271394Y7348547D01*
X34270426Y7350415D01*
X34269818Y7352428D01*
X34252479Y7385037D01*
X34235468Y7417856D01*
X34234155Y7419501D01*
X34233168Y7421357D01*
X34209816Y7449989D01*
X34186764Y7478866D01*
X34183879Y7481791D01*
X34183828Y7481854D01*
X34183770Y7481902D01*
X34182842Y7482843D01*
X33665686Y8000000D01*
X35600000Y8000000D01*
X35636784Y8003607D01*
X35673580Y8006826D01*
X35675599Y8007413D01*
X35677694Y8007618D01*
X35713077Y8018301D01*
X35748547Y8028606D01*
X35750415Y8029574D01*
X35752428Y8030182D01*
X35785058Y8047531D01*
X35817855Y8064532D01*
X35819498Y8065844D01*
X35821357Y8066832D01*
X35850011Y8090202D01*
X35878866Y8113236D01*
X35881796Y8116124D01*
X35881854Y8116172D01*
X35881899Y8116226D01*
X35882843Y8117157D01*
X37200000Y9434315D01*
X37200000Y8800000D01*
X37203607Y8763216D01*
X37206826Y8726420D01*
X37207413Y8724401D01*
X37207618Y8722306D01*
X37218301Y8686923D01*
X37228606Y8651453D01*
X37229574Y8649585D01*
X37230182Y8647572D01*
X37247506Y8614991D01*
X37264532Y8582145D01*
X37265844Y8580502D01*
X37266832Y8578643D01*
X37290202Y8549989D01*
X37313236Y8521134D01*
X37316124Y8518204D01*
X37316172Y8518146D01*
X37316226Y8518101D01*
X37317157Y8517157D01*
X37500000Y8334314D01*
X37500000Y6673045D01*
X37427796Y6650685D01*
X37339257Y6592343D01*
X37270478Y6511643D01*
X37226904Y6414978D01*
X37211986Y6310000D01*
X37211986Y1230000D01*
X37216748Y1170283D01*
X37248115Y1068996D01*
X37306457Y980457D01*
X37387157Y911678D01*
X37483822Y868104D01*
X37588800Y853186D01*
X40128800Y853186D01*
X40188517Y857948D01*
X40289804Y889315D01*
X40378343Y947657D01*
X40447122Y1028357D01*
X40490696Y1125022D01*
X40505614Y1230000D01*
X40505614Y6310000D01*
X40500852Y6369717D01*
X40469485Y6471004D01*
X40411143Y6559543D01*
X40330443Y6628322D01*
X40233778Y6671896D01*
X40128800Y6686814D01*
X38300000Y6686814D01*
X38300000Y8500000D01*
X38296393Y8536784D01*
X38293174Y8573580D01*
X38292587Y8575599D01*
X38292382Y8577694D01*
X38281699Y8613077D01*
X38271394Y8648547D01*
X38270426Y8650415D01*
X38269818Y8652428D01*
X38252469Y8685058D01*
X38235468Y8717855D01*
X38234156Y8719498D01*
X38233168Y8721357D01*
X38209798Y8750011D01*
X38186764Y8778866D01*
X38183876Y8781796D01*
X38183828Y8781854D01*
X38183774Y8781899D01*
X38182843Y8782843D01*
X38000000Y8965686D01*
X38000000Y11500000D01*
X37996393Y11536784D01*
X37993174Y11573580D01*
X37992587Y11575599D01*
X37992382Y11577694D01*
X37981713Y11613030D01*
X37971395Y11648547D01*
X37970424Y11650419D01*
X37969818Y11652428D01*
X37952508Y11684983D01*
X37935469Y11717855D01*
X37934155Y11719502D01*
X37933168Y11721357D01*
X37909821Y11749984D01*
X37886764Y11778866D01*
X37883876Y11781796D01*
X37883828Y11781854D01*
X37883774Y11781899D01*
X37882843Y11782843D01*
X37082843Y12582843D01*
X37054258Y12606323D01*
X37025987Y12630045D01*
X37024145Y12631058D01*
X37022518Y12632394D01*
X36989947Y12649858D01*
X36957577Y12667654D01*
X36955571Y12668290D01*
X36953718Y12669284D01*
X36918421Y12680075D01*
X36883165Y12691259D01*
X36881071Y12691494D01*
X36879062Y12692108D01*
X36842313Y12695841D01*
X36805585Y12699961D01*
X36801478Y12699990D01*
X36801396Y12699998D01*
X36801320Y12699991D01*
X36800000Y12700000D01*
X35800000Y12700000D01*
X35763216Y12696393D01*
X35726420Y12693174D01*
X35724401Y12692587D01*
X35722306Y12692382D01*
X35686923Y12681699D01*
X35651453Y12671394D01*
X35649585Y12670426D01*
X35647572Y12669818D01*
X35614942Y12652469D01*
X35582145Y12635468D01*
X35580502Y12634156D01*
X35578643Y12633168D01*
X35549989Y12609798D01*
X35521134Y12586764D01*
X35518204Y12583876D01*
X35518146Y12583828D01*
X35518101Y12583774D01*
X35517157Y12582843D01*
X34917157Y11982843D01*
X34893677Y11954258D01*
X34869955Y11925987D01*
X34868942Y11924145D01*
X34867606Y11922518D01*
X34850142Y11889947D01*
X34832346Y11857577D01*
X34831710Y11855571D01*
X34830716Y11853718D01*
X34819925Y11818421D01*
X34808741Y11783165D01*
X34808506Y11781071D01*
X34807892Y11779062D01*
X34804159Y11742313D01*
X34800039Y11705585D01*
X34800010Y11701478D01*
X34800002Y11701396D01*
X34800009Y11701320D01*
X34800000Y11700000D01*
X34800000Y10465686D01*
X34134314Y9800000D01*
X33065685Y9800000D01*
X30400000Y12465686D01*
X30400000Y12654361D01*
X30417582Y12665519D01*
X30513444Y12756807D01*
X30589749Y12864976D01*
X30643590Y12985906D01*
X30672918Y13114991D01*
X30675029Y13266187D01*
X30649317Y13396040D01*
X30598873Y13518427D01*
X30525618Y13628684D01*
X30432343Y13722613D01*
X30322600Y13796636D01*
X30200569Y13847933D01*
X30070898Y13874550D01*
X29938527Y13875475D01*
X29808497Y13850670D01*
X29685762Y13801082D01*
X29574996Y13728598D01*
X29480418Y13635981D01*
X29405631Y13526757D01*
X29353483Y13405087D01*
X29325961Y13275606D01*
X29324113Y13143244D01*
X29348009Y13013045D01*
X29396739Y12889966D01*
X29468447Y12778697D01*
X29560402Y12683474D01*
X29600000Y12655953D01*
X29600000Y12300000D01*
X29603607Y12263216D01*
X29606826Y12226420D01*
X29607413Y12224401D01*
X29607618Y12222306D01*
X29618301Y12186923D01*
X29628606Y12151453D01*
X29629574Y12149585D01*
X29630182Y12147572D01*
X29647531Y12114942D01*
X29664532Y12082145D01*
X29665844Y12080502D01*
X29666832Y12078643D01*
X29690202Y12049989D01*
X29713236Y12021134D01*
X29716124Y12018204D01*
X29716172Y12018146D01*
X29716226Y12018101D01*
X29717157Y12017157D01*
X31034314Y10700000D01*
X29700000Y10700000D01*
X29663216Y10696393D01*
X29626420Y10693174D01*
X29624401Y10692587D01*
X29622306Y10692382D01*
X29586970Y10681713D01*
X29551453Y10671395D01*
X29549581Y10670424D01*
X29547572Y10669818D01*
X29515017Y10652508D01*
X29482145Y10635469D01*
X29480498Y10634154D01*
X29478643Y10633168D01*
X29450047Y10609845D01*
X29421134Y10586765D01*
X29418207Y10583878D01*
X29418146Y10583828D01*
X29418099Y10583771D01*
X29417158Y10582843D01*
X28534314Y9700000D01*
X27365685Y9700000D01*
X27082843Y9982843D01*
X27054258Y10006323D01*
X27025987Y10030045D01*
X27024145Y10031058D01*
X27022518Y10032394D01*
X26989947Y10049858D01*
X26957577Y10067654D01*
X26955571Y10068290D01*
X26953718Y10069284D01*
X26918421Y10080075D01*
X26883165Y10091259D01*
X26881071Y10091494D01*
X26879062Y10092108D01*
X26842313Y10095841D01*
X26805585Y10099961D01*
X26801478Y10099990D01*
X26801396Y10099998D01*
X26801320Y10099991D01*
X26800000Y10100000D01*
X18600000Y10100000D01*
X18563216Y10096393D01*
X18526420Y10093174D01*
X18524401Y10092587D01*
X18522306Y10092382D01*
X18486923Y10081699D01*
X18451453Y10071394D01*
X18449585Y10070426D01*
X18447572Y10069818D01*
X18414942Y10052469D01*
X18382145Y10035468D01*
X18380502Y10034156D01*
X18378643Y10033168D01*
X18349989Y10009798D01*
X18321134Y9986764D01*
X18318204Y9983876D01*
X18318146Y9983828D01*
X18318101Y9983774D01*
X18317157Y9982843D01*
X15817157Y7482843D01*
X15793677Y7454258D01*
X15769955Y7425987D01*
X15768942Y7424145D01*
X15767606Y7422518D01*
X15750142Y7389947D01*
X15732346Y7357577D01*
X15731710Y7355571D01*
X15730716Y7353718D01*
X15719925Y7318421D01*
X15708741Y7283165D01*
X15708506Y7281071D01*
X15707892Y7279062D01*
X15704159Y7242313D01*
X15700039Y7205585D01*
X15700010Y7201478D01*
X15700002Y7201396D01*
X15700009Y7201320D01*
X15700000Y7200000D01*
X15700000Y6686814D01*
X13831200Y6686814D01*
X13771483Y6682052D01*
X13670196Y6650685D01*
X13581657Y6592343D01*
X13512878Y6511643D01*
X13469304Y6414978D01*
X13454386Y6310000D01*
X12788014Y6310000D01*
X12783252Y6369717D01*
X12751885Y6471004D01*
X12693543Y6559543D01*
X12612843Y6628322D01*
X12600000Y6634111D01*
X12600000Y6734314D01*
X13482843Y7617158D01*
X13506302Y7645718D01*
X13530045Y7674013D01*
X13531058Y7675855D01*
X13532394Y7677482D01*
X13549858Y7710053D01*
X13567654Y7742423D01*
X13568290Y7744429D01*
X13569284Y7746282D01*
X13580088Y7781620D01*
X13591259Y7816835D01*
X13591493Y7818924D01*
X13592109Y7820938D01*
X13595847Y7857737D01*
X13599961Y7894415D01*
X13599990Y7898522D01*
X13599998Y7898604D01*
X13599991Y7898680D01*
X13600000Y7900000D01*
X13600000Y9143244D01*
X14024113Y9143244D01*
X14048009Y9013045D01*
X14096739Y8889966D01*
X14168447Y8778697D01*
X14260402Y8683474D01*
X14369101Y8607927D01*
X14490404Y8554931D01*
X14619691Y8526505D01*
X14752036Y8523733D01*
X14882399Y8546720D01*
X15005815Y8594589D01*
X15117582Y8665519D01*
X15213444Y8756807D01*
X15289749Y8864976D01*
X15343590Y8985906D01*
X15372918Y9114991D01*
X15375029Y9266187D01*
X15367896Y9302210D01*
X16365685Y10300000D01*
X19500000Y10300000D01*
X19536784Y10303607D01*
X19573580Y10306826D01*
X19575599Y10307413D01*
X19577694Y10307618D01*
X19613077Y10318301D01*
X19648547Y10328606D01*
X19650415Y10329574D01*
X19652428Y10330182D01*
X19685058Y10347531D01*
X19717855Y10364532D01*
X19719498Y10365844D01*
X19721357Y10366832D01*
X19750011Y10390202D01*
X19778866Y10413236D01*
X19781796Y10416124D01*
X19781854Y10416172D01*
X19781899Y10416226D01*
X19782843Y10417157D01*
X26465686Y17100000D01*
X27237714Y17100000D01*
X27221134Y17086764D01*
X27218204Y17083876D01*
X27218146Y17083828D01*
X27218101Y17083774D01*
X27217157Y17082843D01*
X23917157Y13782843D01*
X23893677Y13754258D01*
X23869955Y13725987D01*
X23868942Y13724145D01*
X23867606Y13722518D01*
X23850142Y13689947D01*
X23832346Y13657577D01*
X23831710Y13655571D01*
X23830716Y13653718D01*
X23819925Y13618421D01*
X23808741Y13583165D01*
X23808506Y13581071D01*
X23807892Y13579062D01*
X23804159Y13542313D01*
X23800039Y13505585D01*
X23800010Y13501478D01*
X23800002Y13501396D01*
X23800009Y13501320D01*
X23800000Y13500000D01*
X23800000Y11444960D01*
X23774996Y11428598D01*
X23680418Y11335981D01*
X23605631Y11226757D01*
X23553483Y11105087D01*
X23525961Y10975606D01*
X23524113Y10843244D01*
X23548009Y10713045D01*
X23596739Y10589966D01*
X23668447Y10478697D01*
X23760402Y10383474D01*
X23869101Y10307927D01*
X23990404Y10254931D01*
X24119691Y10226505D01*
X24252036Y10223733D01*
X24382399Y10246720D01*
X24505815Y10294589D01*
X24617582Y10365519D01*
X24713444Y10456807D01*
X24789749Y10564976D01*
X24843590Y10685906D01*
X24872918Y10814991D01*
X24875029Y10966187D01*
X24849317Y11096040D01*
X24798873Y11218427D01*
X24725618Y11328684D01*
X24632343Y11422613D01*
X24600000Y11444429D01*
X24600000Y13334314D01*
X27665686Y16400000D01*
X29734314Y16400000D01*
X30017157Y16117158D01*
X30045712Y16093702D01*
X30074013Y16069955D01*
X30075855Y16068942D01*
X30077482Y16067606D01*
X30110018Y16050161D01*
X30142423Y16032346D01*
X30144433Y16031708D01*
X30146282Y16030717D01*
X30181546Y16019936D01*
X30216835Y16008741D01*
X30218928Y16008506D01*
X30220937Y16007892D01*
X30257647Y16004163D01*
X30294415Y16000039D01*
X30298533Y16000010D01*
X30298604Y16000003D01*
X30298670Y16000009D01*
X30300000Y16000000D01*
X30454718Y16000000D01*
X30468447Y15978697D01*
X30560402Y15883474D01*
X30669101Y15807927D01*
X30790404Y15754931D01*
X30919691Y15726505D01*
X31052036Y15723733D01*
X31182399Y15746720D01*
X31305815Y15794589D01*
X31417582Y15865519D01*
X31513444Y15956807D01*
X31589749Y16064976D01*
X31643590Y16185906D01*
X31672918Y16314991D01*
X31675029Y16466187D01*
X31649317Y16596040D01*
X31598873Y16718427D01*
X31525618Y16828684D01*
X31432343Y16922613D01*
X31322600Y16996636D01*
X31200569Y17047933D01*
X31070898Y17074550D01*
X30938527Y17075475D01*
X30808497Y17050670D01*
X30685762Y17001082D01*
X30574996Y16928598D01*
X30480418Y16835981D01*
X30459807Y16805879D01*
X30182843Y17082843D01*
X30161956Y17100000D01*
X31931146Y17100000D01*
X31925961Y17075606D01*
X31924113Y16943244D01*
X31948009Y16813045D01*
X31996739Y16689966D01*
X32068447Y16578697D01*
X32160402Y16483474D01*
X32269101Y16407927D01*
X32390404Y16354931D01*
X32519691Y16326505D01*
X32652036Y16323733D01*
X32782399Y16346720D01*
X32905815Y16394589D01*
X33017582Y16465519D01*
X33113444Y16556807D01*
X33189749Y16664976D01*
X33243590Y16785906D01*
X33272918Y16914991D01*
X33275029Y17066187D01*
X33249317Y17196040D01*
X33198873Y17318427D01*
X33125618Y17428684D01*
X33032343Y17522613D01*
X32922600Y17596636D01*
X32800569Y17647933D01*
X32670898Y17674550D01*
X32538527Y17675475D01*
X32497951Y17667735D01*
X32382843Y17782843D01*
X32354258Y17806323D01*
X32325987Y17830045D01*
X32324145Y17831058D01*
X32322518Y17832394D01*
X32289947Y17849858D01*
X32257577Y17867654D01*
X32255571Y17868290D01*
X32253718Y17869284D01*
X32218421Y17880075D01*
X32183165Y17891259D01*
X32181071Y17891494D01*
X32179062Y17892108D01*
X32142313Y17895841D01*
X32105585Y17899961D01*
X32101478Y17899990D01*
X32101396Y17899998D01*
X32101320Y17899991D01*
X32100000Y17900000D01*
X26300000Y17900000D01*
X26263216Y17896393D01*
X26226420Y17893174D01*
X26224401Y17892587D01*
X26222306Y17892382D01*
X26186923Y17881699D01*
X26151453Y17871394D01*
X26149585Y17870426D01*
X26147572Y17869818D01*
X26114963Y17852479D01*
X26082144Y17835468D01*
X26080499Y17834155D01*
X26078643Y17833168D01*
X26050011Y17809816D01*
X26021134Y17786764D01*
X26018204Y17783876D01*
X26018146Y17783828D01*
X26018101Y17783774D01*
X26017157Y17782843D01*
X19334314Y11100000D01*
X16200000Y11100000D01*
X16163216Y11096393D01*
X16126420Y11093174D01*
X16124401Y11092587D01*
X16122306Y11092382D01*
X16086923Y11081699D01*
X16051453Y11071394D01*
X16049585Y11070426D01*
X16047572Y11069818D01*
X16014963Y11052479D01*
X15982144Y11035468D01*
X15980499Y11034155D01*
X15978643Y11033168D01*
X15950011Y11009816D01*
X15921134Y10986764D01*
X15918209Y10983879D01*
X15918146Y10983828D01*
X15918098Y10983770D01*
X15917157Y10982842D01*
X14802398Y9868084D01*
X14770898Y9874550D01*
X14638527Y9875475D01*
X14508497Y9850670D01*
X14385762Y9801082D01*
X14274996Y9728598D01*
X14180418Y9635981D01*
X14105631Y9526757D01*
X14053483Y9405087D01*
X14025961Y9275606D01*
X14024113Y9143244D01*
X13600000Y9143244D01*
X13600000Y10034314D01*
X14865685Y11300000D01*
X18800000Y11300000D01*
X18836784Y11303607D01*
X18873580Y11306826D01*
X18875599Y11307413D01*
X18877694Y11307618D01*
X18913077Y11318301D01*
X18948547Y11328606D01*
X18950415Y11329574D01*
X18952428Y11330182D01*
X18985058Y11347531D01*
X19017855Y11364532D01*
X19019498Y11365844D01*
X19021357Y11366832D01*
X19050011Y11390202D01*
X19078866Y11413236D01*
X19081796Y11416124D01*
X19081854Y11416172D01*
X19081899Y11416226D01*
X19082843Y11417157D01*
X25765686Y18100000D01*
X34234314Y18100000D01*
X35617157Y16717158D01*
X35645712Y16693702D01*
X35674013Y16669955D01*
X35675855Y16668942D01*
X35677482Y16667606D01*
X35710018Y16650161D01*
X35742423Y16632346D01*
X35744433Y16631708D01*
X35746282Y16630717D01*
X35781546Y16619936D01*
X35816835Y16608741D01*
X35818928Y16608506D01*
X35820937Y16607892D01*
X35857647Y16604163D01*
X35894415Y16600039D01*
X35898533Y16600010D01*
X35898604Y16600003D01*
X35898670Y16600009D01*
X35900000Y16600000D01*
X36954718Y16600000D01*
X36968447Y16578697D01*
X37060402Y16483474D01*
X37169101Y16407927D01*
X37290404Y16354931D01*
X37419691Y16326505D01*
X37552036Y16323733D01*
X37682399Y16346720D01*
X37805815Y16394589D01*
X37917582Y16465519D01*
X38013444Y16556807D01*
X38089749Y16664976D01*
X38143590Y16785906D01*
X38172918Y16914991D01*
X38175029Y17066187D01*
X38149317Y17196040D01*
X38098873Y17318427D01*
X38025618Y17428684D01*
X37932343Y17522613D01*
X37822600Y17596636D01*
X37700569Y17647933D01*
X37570898Y17674550D01*
X37438527Y17675475D01*
X37308497Y17650670D01*
X37185762Y17601082D01*
X37074996Y17528598D01*
X36980418Y17435981D01*
X36955781Y17400000D01*
X36065685Y17400000D01*
X34682843Y18782843D01*
X34654258Y18806323D01*
X34625987Y18830045D01*
X34624145Y18831058D01*
X34622518Y18832394D01*
X34589947Y18849858D01*
X34557577Y18867654D01*
X34555571Y18868290D01*
X34553718Y18869284D01*
X34518421Y18880075D01*
X34483165Y18891259D01*
X34481071Y18891494D01*
X34479062Y18892108D01*
X34442313Y18895841D01*
X34405585Y18899961D01*
X34401478Y18899990D01*
X34401396Y18899998D01*
X34401320Y18899991D01*
X34400000Y18900000D01*
X25600000Y18900000D01*
X25563216Y18896393D01*
X25526420Y18893174D01*
X25524401Y18892587D01*
X25522306Y18892382D01*
X25486923Y18881699D01*
X25451453Y18871394D01*
X25449585Y18870426D01*
X25447572Y18869818D01*
X25414963Y18852479D01*
X25382144Y18835468D01*
X25380499Y18834155D01*
X25378643Y18833168D01*
X25350011Y18809816D01*
X25321134Y18786764D01*
X25318204Y18783876D01*
X25318146Y18783828D01*
X25318101Y18783774D01*
X25317157Y18782843D01*
X18634314Y12100000D01*
X14700000Y12100000D01*
X14663216Y12096393D01*
X14626420Y12093174D01*
X14624401Y12092587D01*
X14622306Y12092382D01*
X14586923Y12081699D01*
X14551453Y12071394D01*
X14549585Y12070426D01*
X14547572Y12069818D01*
X14514963Y12052479D01*
X14482144Y12035468D01*
X14480499Y12034155D01*
X14478643Y12033168D01*
X14450011Y12009816D01*
X14421134Y11986764D01*
X14418209Y11983879D01*
X14418146Y11983828D01*
X14418098Y11983770D01*
X14417157Y11982842D01*
X12917157Y10482843D01*
X12893677Y10454258D01*
X12869955Y10425987D01*
X12868942Y10424145D01*
X12867606Y10422518D01*
X12850142Y10389947D01*
X12832346Y10357577D01*
X12831710Y10355571D01*
X12830716Y10353718D01*
X12819925Y10318421D01*
X12808741Y10283165D01*
X12808506Y10281071D01*
X12807892Y10279062D01*
X12804159Y10242313D01*
X12800039Y10205585D01*
X12800010Y10201478D01*
X12800002Y10201396D01*
X12800009Y10201320D01*
X12800000Y10200000D01*
X12800000Y8065685D01*
X11917157Y7182843D01*
X11893677Y7154258D01*
X11869955Y7125987D01*
X11868942Y7124145D01*
X11867606Y7122518D01*
X11850142Y7089947D01*
X11832346Y7057577D01*
X11831710Y7055571D01*
X11830716Y7053718D01*
X11819925Y7018421D01*
X11808741Y6983165D01*
X11808506Y6981071D01*
X11807892Y6979062D01*
X11804159Y6942313D01*
X11800039Y6905585D01*
X11800010Y6901478D01*
X11800002Y6901396D01*
X11800009Y6901320D01*
X11800000Y6900000D01*
X11800000Y6686814D01*
X9871200Y6686814D01*
X9811483Y6682052D01*
X9710196Y6650685D01*
X9621657Y6592343D01*
X9552878Y6511643D01*
X9509304Y6414978D01*
X9494386Y6310000D01*
X8828014Y6310000D01*
X8823252Y6369717D01*
X8791885Y6471004D01*
X8733543Y6559543D01*
X8652843Y6628322D01*
X8625000Y6640873D01*
X8625000Y8423960D01*
X11427385Y11226344D01*
X11552036Y11223733D01*
X11682399Y11246720D01*
X11805815Y11294589D01*
X11917582Y11365519D01*
X12013444Y11456807D01*
X12089749Y11564976D01*
X12143590Y11685906D01*
X12172918Y11814991D01*
X12175029Y11966187D01*
X12173740Y11972699D01*
X13176041Y12975000D01*
X13773959Y12975000D01*
X11599480Y10800520D01*
X11574576Y10770201D01*
X11549327Y10740111D01*
X11548251Y10738154D01*
X11546831Y10736425D01*
X11528289Y10701843D01*
X11509367Y10667425D01*
X11508690Y10665291D01*
X11507636Y10663325D01*
X11496172Y10625829D01*
X11484287Y10588362D01*
X11484038Y10586140D01*
X11483385Y10584005D01*
X11479422Y10544994D01*
X11475041Y10505934D01*
X11475011Y10501571D01*
X11475002Y10501484D01*
X11475010Y10501403D01*
X11475000Y10500000D01*
X11475000Y8928601D01*
X11474996Y8928598D01*
X11380418Y8835981D01*
X11305631Y8726757D01*
X11253483Y8605087D01*
X11225961Y8475606D01*
X11224113Y8343244D01*
X11248009Y8213045D01*
X11296739Y8089966D01*
X11368447Y7978697D01*
X11460402Y7883474D01*
X11569101Y7807927D01*
X11690404Y7754931D01*
X11819691Y7726505D01*
X11952036Y7723733D01*
X12082399Y7746720D01*
X12205815Y7794589D01*
X12317582Y7865519D01*
X12413444Y7956807D01*
X12489749Y8064976D01*
X12543590Y8185906D01*
X12572918Y8314991D01*
X12575029Y8466187D01*
X12549317Y8596040D01*
X12498873Y8718427D01*
X12425618Y8828684D01*
X12332343Y8922613D01*
X12325000Y8927566D01*
X12325000Y10323960D01*
X14376041Y12375000D01*
X17000000Y12375000D01*
X17039091Y12378833D01*
X17078179Y12382253D01*
X17080322Y12382876D01*
X17082550Y12383094D01*
X17120131Y12394441D01*
X17157832Y12405393D01*
X17159820Y12406423D01*
X17161955Y12407068D01*
X17196587Y12425482D01*
X17231472Y12443565D01*
X17233218Y12444959D01*
X17235191Y12446008D01*
X17265636Y12470838D01*
X17296295Y12495313D01*
X17299397Y12498373D01*
X17299470Y12498432D01*
X17299526Y12498499D01*
X17300520Y12499480D01*
X19600520Y14799479D01*
X19625463Y14829845D01*
X19650673Y14859889D01*
X19651747Y14861843D01*
X19653169Y14863574D01*
X19671733Y14898196D01*
X19690633Y14932575D01*
X19691309Y14934707D01*
X19692364Y14936674D01*
X19703832Y14974185D01*
X19715713Y15011638D01*
X19715962Y15013860D01*
X19716615Y15015995D01*
X19720582Y15055043D01*
X19724959Y15094066D01*
X19724989Y15098429D01*
X19724998Y15098516D01*
X19724990Y15098597D01*
X19725000Y15100000D01*
X19725000Y18800000D01*
X19721168Y18839087D01*
X19717747Y18878179D01*
X19717124Y18880322D01*
X19716906Y18882550D01*
X19705545Y18920178D01*
X19694606Y18957832D01*
X19693578Y18959815D01*
X19692932Y18961955D01*
X19674499Y18996622D01*
X19656435Y19031472D01*
X19655041Y19033219D01*
X19653992Y19035191D01*
X19629182Y19065612D01*
X19604687Y19096296D01*
X19601623Y19099403D01*
X19601568Y19099470D01*
X19601506Y19099521D01*
X19600520Y19100521D01*
X15725000Y22976040D01*
X15725000Y23543244D01*
X16124113Y23543244D01*
X16148009Y23413045D01*
X16196739Y23289966D01*
X16268447Y23178697D01*
X16360402Y23083474D01*
X16469101Y23007927D01*
X16590404Y22954931D01*
X16625000Y22947324D01*
X16625000Y22900000D01*
X16631082Y22837969D01*
X16636518Y22775833D01*
X16637509Y22772423D01*
X16637855Y22768892D01*
X16655879Y22709192D01*
X16673272Y22649327D01*
X16674904Y22646178D01*
X16675931Y22642777D01*
X16705204Y22587722D01*
X16733897Y22532368D01*
X16736113Y22529592D01*
X16737778Y22526461D01*
X16777162Y22478171D01*
X16816086Y22429413D01*
X16820958Y22424472D01*
X16821040Y22424372D01*
X16821133Y22424295D01*
X16822703Y22422703D01*
X18722703Y20522703D01*
X18770879Y20483130D01*
X18818647Y20443048D01*
X18821757Y20441339D01*
X18824500Y20439085D01*
X18879502Y20409593D01*
X18934089Y20379584D01*
X18937467Y20378512D01*
X18940601Y20376832D01*
X19000275Y20358588D01*
X19059660Y20339750D01*
X19063188Y20339354D01*
X19066581Y20338317D01*
X19128615Y20332016D01*
X19190576Y20325066D01*
X19197512Y20325017D01*
X19197644Y20325004D01*
X19197767Y20325016D01*
X19200000Y20325000D01*
X26591545Y20325000D01*
X26652036Y20323733D01*
X26659221Y20325000D01*
X33520406Y20325000D01*
X35822703Y18022703D01*
X35870879Y17983130D01*
X35918647Y17943048D01*
X35921757Y17941339D01*
X35924500Y17939085D01*
X35979502Y17909593D01*
X36034089Y17879584D01*
X36037467Y17878512D01*
X36040601Y17876832D01*
X36100275Y17858588D01*
X36159660Y17839750D01*
X36163188Y17839354D01*
X36166581Y17838317D01*
X36228615Y17832016D01*
X36290576Y17825066D01*
X36297512Y17825017D01*
X36297644Y17825004D01*
X36297767Y17825016D01*
X36300000Y17825000D01*
X38620406Y17825000D01*
X39825000Y16620406D01*
X39825000Y15279594D01*
X39220406Y14675000D01*
X37579594Y14675000D01*
X37277297Y14977297D01*
X37229121Y15016870D01*
X37181353Y15056952D01*
X37178243Y15058661D01*
X37175500Y15060915D01*
X37120498Y15090407D01*
X37065911Y15120416D01*
X37062533Y15121488D01*
X37059399Y15123168D01*
X36999725Y15141412D01*
X36940340Y15160250D01*
X36936812Y15160646D01*
X36933419Y15161683D01*
X36871385Y15167984D01*
X36809424Y15174934D01*
X36802488Y15174983D01*
X36802356Y15174996D01*
X36802233Y15174984D01*
X36800000Y15175000D01*
X31379594Y15175000D01*
X31277297Y15277297D01*
X31229121Y15316870D01*
X31181353Y15356952D01*
X31178243Y15358661D01*
X31175500Y15360915D01*
X31120498Y15390407D01*
X31065911Y15420416D01*
X31062533Y15421488D01*
X31059399Y15423168D01*
X30999725Y15441412D01*
X30940340Y15460250D01*
X30936812Y15460646D01*
X30933419Y15461683D01*
X30871385Y15467984D01*
X30809424Y15474934D01*
X30802488Y15474983D01*
X30802356Y15474996D01*
X30802233Y15474984D01*
X30800000Y15475000D01*
X29200000Y15475000D01*
X29137969Y15468918D01*
X29075833Y15463482D01*
X29072423Y15462491D01*
X29068892Y15462145D01*
X29009192Y15444121D01*
X28949327Y15426728D01*
X28946178Y15425096D01*
X28942777Y15424069D01*
X28887683Y15394775D01*
X28832368Y15366102D01*
X28829595Y15363889D01*
X28826461Y15362222D01*
X28778144Y15322815D01*
X28729413Y15283914D01*
X28724472Y15279042D01*
X28724372Y15278960D01*
X28724295Y15278867D01*
X28722703Y15277297D01*
X27522703Y14077297D01*
X27483130Y14029121D01*
X27443048Y13981353D01*
X27441339Y13978243D01*
X27439085Y13975500D01*
X27409593Y13920498D01*
X27379584Y13865911D01*
X27378512Y13862533D01*
X27376832Y13859399D01*
X27358588Y13799725D01*
X27339750Y13740340D01*
X27339354Y13736812D01*
X27338317Y13733419D01*
X27332016Y13671385D01*
X27325066Y13609424D01*
X27325017Y13602488D01*
X27325004Y13602356D01*
X27325016Y13602233D01*
X27325000Y13600000D01*
X27325000Y10606775D01*
X27324113Y10543244D01*
X27348009Y10413045D01*
X27396739Y10289966D01*
X27468447Y10178697D01*
X27560402Y10083474D01*
X27669101Y10007927D01*
X27790404Y9954931D01*
X27919691Y9926505D01*
X28052036Y9923733D01*
X28182399Y9946720D01*
X28305815Y9994589D01*
X28417582Y10065519D01*
X28513444Y10156807D01*
X28589749Y10264976D01*
X28643590Y10385906D01*
X28672918Y10514991D01*
X28673837Y10580793D01*
X28674934Y10590576D01*
X28675000Y10600000D01*
X28675000Y10664110D01*
X28675029Y10666187D01*
X28675000Y10666333D01*
X28675000Y13320406D01*
X29479594Y14125000D01*
X30520406Y14125000D01*
X30622703Y14022703D01*
X30670879Y13983130D01*
X30718647Y13943048D01*
X30721757Y13941339D01*
X30724500Y13939085D01*
X30779502Y13909593D01*
X30834089Y13879584D01*
X30837467Y13878512D01*
X30840601Y13876832D01*
X30900275Y13858588D01*
X30959660Y13839750D01*
X30963188Y13839354D01*
X30966581Y13838317D01*
X31028615Y13832016D01*
X31090576Y13825066D01*
X31097512Y13825017D01*
X31097644Y13825004D01*
X31097767Y13825016D01*
X31100000Y13825000D01*
X32825000Y13825000D01*
X32825000Y10606775D01*
X32824113Y10543244D01*
X32848009Y10413045D01*
X32896739Y10289966D01*
X32968447Y10178697D01*
X33060402Y10083474D01*
X33169101Y10007927D01*
X33290404Y9954931D01*
X33419691Y9926505D01*
X33552036Y9923733D01*
X33682399Y9946720D01*
X33805815Y9994589D01*
X33917582Y10065519D01*
X34013444Y10156807D01*
X34089749Y10264976D01*
X34143590Y10385906D01*
X34172918Y10514991D01*
X34173837Y10580793D01*
X34174934Y10590576D01*
X34175000Y10600000D01*
X34175000Y10664110D01*
X34175029Y10666187D01*
X34175000Y10666333D01*
X34175000Y13825000D01*
X36520406Y13825000D01*
X36822703Y13522703D01*
X36870879Y13483130D01*
X36918647Y13443048D01*
X36921757Y13441339D01*
X36924500Y13439085D01*
X36979502Y13409593D01*
X37034089Y13379584D01*
X37037467Y13378512D01*
X37040601Y13376832D01*
X37100275Y13358588D01*
X37159660Y13339750D01*
X37163188Y13339354D01*
X37166581Y13338317D01*
X37228615Y13332016D01*
X37290576Y13325066D01*
X37297512Y13325017D01*
X37297644Y13325004D01*
X37297767Y13325016D01*
X37300000Y13325000D01*
X38325000Y13325000D01*
X38325000Y10606775D01*
X38324113Y10543244D01*
X38348009Y10413045D01*
X38396739Y10289966D01*
X38468447Y10178697D01*
X38560402Y10083474D01*
X38669101Y10007927D01*
X38790404Y9954931D01*
X38919691Y9926505D01*
X39052036Y9923733D01*
X39182399Y9946720D01*
X39305815Y9994589D01*
X39417582Y10065519D01*
X39513444Y10156807D01*
X39589749Y10264976D01*
X39643590Y10385906D01*
X39672918Y10514991D01*
X39673837Y10580793D01*
X39674934Y10590576D01*
X39675000Y10600000D01*
X39675000Y10664110D01*
X39675029Y10666187D01*
X39675000Y10666333D01*
X39675000Y13343244D01*
X40724113Y13343244D01*
X40748009Y13213045D01*
X40796739Y13089966D01*
X40868447Y12978697D01*
X40925000Y12920134D01*
X40925000Y8800000D01*
X40929284Y8756309D01*
X40933106Y8712623D01*
X40933802Y8710227D01*
X40934046Y8707739D01*
X40946738Y8665703D01*
X40958970Y8623600D01*
X40960119Y8621383D01*
X40960841Y8618992D01*
X40981453Y8580226D01*
X41001632Y8541296D01*
X41003188Y8539346D01*
X41004362Y8537139D01*
X41032078Y8503156D01*
X41059467Y8468846D01*
X41062901Y8465364D01*
X41062954Y8465299D01*
X41063015Y8465249D01*
X41064124Y8464124D01*
X41425000Y8103248D01*
X41425000Y6662206D01*
X41387796Y6650685D01*
X41299257Y6592343D01*
X41230478Y6511643D01*
X41186904Y6414978D01*
X41171986Y6310000D01*
X41171986Y1230000D01*
X41176748Y1170283D01*
X41208115Y1068996D01*
X41266457Y980457D01*
X41347157Y911678D01*
X41443822Y868104D01*
X41548800Y853186D01*
X44088800Y853186D01*
X44148517Y857948D01*
X44249804Y889315D01*
X44338343Y947657D01*
X44407122Y1028357D01*
X44450696Y1125022D01*
X44465614Y1230000D01*
X44465614Y3551250D01*
X45133800Y3551250D01*
X45133800Y1193065D01*
X45148211Y1120616D01*
X45176479Y1052371D01*
X45217519Y990951D01*
X45269752Y938718D01*
X45331171Y897679D01*
X45399417Y869411D01*
X45471866Y855000D01*
X46560050Y855000D01*
X46653800Y948750D01*
X46653800Y3645000D01*
X46903800Y3645000D01*
X46903800Y948750D01*
X46997550Y855000D01*
X48085734Y855000D01*
X48158183Y869411D01*
X48226429Y897679D01*
X48287848Y938718D01*
X48340081Y990951D01*
X48381121Y1052371D01*
X48409389Y1120616D01*
X48423800Y1193065D01*
X48423800Y3551250D01*
X48330050Y3645000D01*
X46903800Y3645000D01*
X46653800Y3645000D01*
X45227550Y3645000D01*
X45133800Y3551250D01*
X44465614Y3551250D01*
X44465614Y6310000D01*
X44462669Y6346935D01*
X45133800Y6346935D01*
X45133800Y3988750D01*
X45227550Y3895000D01*
X46653800Y3895000D01*
X46653800Y6591250D01*
X46903800Y6591250D01*
X46903800Y3895000D01*
X48330050Y3895000D01*
X48423800Y3988750D01*
X48423800Y6346935D01*
X48409389Y6419384D01*
X48381121Y6487629D01*
X48340081Y6549049D01*
X48287848Y6601282D01*
X48226429Y6642321D01*
X48158183Y6670589D01*
X48085734Y6685000D01*
X46997550Y6685000D01*
X46903800Y6591250D01*
X46653800Y6591250D01*
X46560050Y6685000D01*
X45471866Y6685000D01*
X45399417Y6670589D01*
X45331171Y6642321D01*
X45269752Y6601282D01*
X45217519Y6549049D01*
X45176479Y6487629D01*
X45148211Y6419384D01*
X45133800Y6346935D01*
X44462669Y6346935D01*
X44460852Y6369717D01*
X44429485Y6471004D01*
X44371143Y6559543D01*
X44290443Y6628322D01*
X44193778Y6671896D01*
X44088800Y6686814D01*
X42375000Y6686814D01*
X42375000Y8300000D01*
X42370715Y8343708D01*
X42366894Y8387377D01*
X42366198Y8389773D01*
X42365954Y8392261D01*
X42353262Y8434297D01*
X42341030Y8476400D01*
X42339881Y8478617D01*
X42339159Y8481008D01*
X42318557Y8519755D01*
X42298369Y8558703D01*
X42296811Y8560654D01*
X42295638Y8562861D01*
X42267927Y8596838D01*
X42240533Y8631154D01*
X42237099Y8634636D01*
X42237046Y8634701D01*
X42236985Y8634751D01*
X42235876Y8635876D01*
X41875000Y8996752D01*
X41875000Y12920197D01*
X41913444Y12956807D01*
X41989749Y13064976D01*
X42043590Y13185906D01*
X42072918Y13314991D01*
X42075029Y13466187D01*
X42049317Y13596040D01*
X41998873Y13718427D01*
X41925618Y13828684D01*
X41832343Y13922613D01*
X41722600Y13996636D01*
X41600569Y14047933D01*
X41470898Y14074550D01*
X41338527Y14075475D01*
X41208497Y14050670D01*
X41085762Y14001082D01*
X40974996Y13928598D01*
X40880418Y13835981D01*
X40805631Y13726757D01*
X40753483Y13605087D01*
X40725961Y13475606D01*
X40724113Y13343244D01*
X39675000Y13343244D01*
X39675000Y13351107D01*
X39690808Y13355879D01*
X39750673Y13373272D01*
X39753822Y13374904D01*
X39757223Y13375931D01*
X39812278Y13405204D01*
X39867632Y13433897D01*
X39870408Y13436113D01*
X39873539Y13437778D01*
X39921829Y13477162D01*
X39970587Y13516086D01*
X39975528Y13520958D01*
X39975628Y13521040D01*
X39975705Y13521133D01*
X39977297Y13522703D01*
X40779594Y14325000D01*
X42620406Y14325000D01*
X43125000Y13820406D01*
X43125000Y11006775D01*
X43124113Y10943244D01*
X43125000Y10938411D01*
X43125000Y10206775D01*
X43124113Y10143244D01*
X43148009Y10013045D01*
X43196739Y9889966D01*
X43268447Y9778697D01*
X43360402Y9683474D01*
X43469101Y9607927D01*
X43590404Y9554931D01*
X43719691Y9526505D01*
X43852036Y9523733D01*
X43982399Y9546720D01*
X44105815Y9594589D01*
X44217582Y9665519D01*
X44313444Y9756807D01*
X44389749Y9864976D01*
X44443590Y9985906D01*
X44472918Y10114991D01*
X44473837Y10180793D01*
X44474934Y10190576D01*
X44475000Y10200000D01*
X44475000Y10264110D01*
X44475029Y10266187D01*
X44475000Y10266333D01*
X44475000Y11064110D01*
X44475029Y11066187D01*
X44475000Y11066333D01*
X44475000Y14100000D01*
X44468918Y14162031D01*
X44463482Y14224167D01*
X44462491Y14227577D01*
X44462145Y14231108D01*
X44444121Y14290808D01*
X44426728Y14350673D01*
X44425096Y14353822D01*
X44424069Y14357223D01*
X44394775Y14412317D01*
X44366102Y14467632D01*
X44363889Y14470405D01*
X44362222Y14473539D01*
X44322815Y14521856D01*
X44283914Y14570587D01*
X44279042Y14575528D01*
X44278960Y14575628D01*
X44278867Y14575705D01*
X44277297Y14577297D01*
X43377297Y15477297D01*
X43329121Y15516870D01*
X43281353Y15556952D01*
X43278243Y15558661D01*
X43275500Y15560915D01*
X43220498Y15590407D01*
X43165911Y15620416D01*
X43162533Y15621488D01*
X43159399Y15623168D01*
X43099725Y15641412D01*
X43040340Y15660250D01*
X43036812Y15660646D01*
X43033419Y15661683D01*
X42971385Y15667984D01*
X42909424Y15674934D01*
X42902488Y15674983D01*
X42902356Y15674996D01*
X42902233Y15674984D01*
X42900000Y15675000D01*
X41175000Y15675000D01*
X41175000Y16900000D01*
X41168918Y16962031D01*
X41163482Y17024167D01*
X41162491Y17027577D01*
X41162145Y17031108D01*
X41144121Y17090808D01*
X41126728Y17150673D01*
X41125096Y17153822D01*
X41124069Y17157223D01*
X41094796Y17212278D01*
X41066103Y17267632D01*
X41063887Y17270408D01*
X41062222Y17273539D01*
X41022818Y17321853D01*
X40983914Y17370586D01*
X40979043Y17375526D01*
X40978960Y17375628D01*
X40978866Y17375706D01*
X40977297Y17377297D01*
X39377297Y18977297D01*
X39329121Y19016870D01*
X39281353Y19056952D01*
X39278243Y19058661D01*
X39275500Y19060915D01*
X39220498Y19090407D01*
X39165911Y19120416D01*
X39162533Y19121488D01*
X39159399Y19123168D01*
X39099725Y19141412D01*
X39040340Y19160250D01*
X39036812Y19160646D01*
X39033419Y19161683D01*
X38971385Y19167984D01*
X38909424Y19174934D01*
X38902488Y19174983D01*
X38902356Y19174996D01*
X38902233Y19174984D01*
X38900000Y19175000D01*
X37455311Y19175000D01*
X37505815Y19194589D01*
X37617582Y19265519D01*
X37713444Y19356807D01*
X37789749Y19464976D01*
X37843590Y19585906D01*
X37872918Y19714991D01*
X37875029Y19866187D01*
X37873740Y19872699D01*
X39730520Y21729479D01*
X39755463Y21759845D01*
X39780673Y21789889D01*
X39781747Y21791843D01*
X39783169Y21793574D01*
X39801733Y21828196D01*
X39820633Y21862575D01*
X39821309Y21864707D01*
X39822364Y21866674D01*
X39833832Y21904185D01*
X39845713Y21941638D01*
X39845962Y21943860D01*
X39846615Y21945995D01*
X39850581Y21985041D01*
X39854959Y22024066D01*
X39854989Y22028429D01*
X39854998Y22028516D01*
X39854990Y22028597D01*
X39855000Y22030000D01*
X39855000Y23834501D01*
X39962344Y23876137D01*
X40156902Y23999608D01*
X40220676Y24060339D01*
X41277115Y24060339D01*
X41381039Y23906701D01*
X41591991Y23811463D01*
X41817470Y23759209D01*
X42048811Y23751949D01*
X42277123Y23789960D01*
X42493632Y23871782D01*
X42558961Y23906701D01*
X42662885Y24060339D01*
X41970000Y24753223D01*
X41277115Y24060339D01*
X40220676Y24060339D01*
X40323773Y24158516D01*
X40456600Y24346810D01*
X40550324Y24557318D01*
X40601375Y24782021D01*
X40602340Y24851189D01*
X40791949Y24851189D01*
X40829960Y24622877D01*
X40911782Y24406368D01*
X40946701Y24341039D01*
X41100339Y24237115D01*
X41793223Y24930000D01*
X42146777Y24930000D01*
X42839661Y24237115D01*
X42993299Y24341039D01*
X43088537Y24551991D01*
X43140791Y24777470D01*
X43148051Y25008811D01*
X43110040Y25237123D01*
X43028218Y25453632D01*
X42993299Y25518961D01*
X42839661Y25622885D01*
X42146777Y24930000D01*
X41793223Y24930000D01*
X41100339Y25622885D01*
X40946701Y25518961D01*
X40851463Y25308009D01*
X40799209Y25082530D01*
X40791949Y24851189D01*
X40602340Y24851189D01*
X40605050Y25045215D01*
X40560293Y25271256D01*
X40472483Y25484298D01*
X40344965Y25676228D01*
X40222391Y25799661D01*
X41277115Y25799661D01*
X41970000Y25106777D01*
X42662885Y25799661D01*
X42558961Y25953299D01*
X42348009Y26048537D01*
X42122530Y26100791D01*
X41891189Y26108051D01*
X41662877Y26070040D01*
X41446368Y25988218D01*
X41381039Y25953299D01*
X41277115Y25799661D01*
X40222391Y25799661D01*
X40182597Y25839733D01*
X39991562Y25968588D01*
X39779138Y26057883D01*
X39553415Y26104217D01*
X39322991Y26105826D01*
X39096644Y26062648D01*
X38882993Y25976327D01*
X38690178Y25850153D01*
X38525543Y25688930D01*
X38395358Y25498799D01*
X38304582Y25287004D01*
X38256673Y25061610D01*
X38253456Y24831203D01*
X38295053Y24604559D01*
X38379879Y24390311D01*
X38504705Y24196620D01*
X38664775Y24030863D01*
X38853991Y23899354D01*
X39005000Y23833380D01*
X39005000Y22206041D01*
X37273065Y20474105D01*
X37270898Y20474550D01*
X37138527Y20475475D01*
X37008497Y20450670D01*
X36885762Y20401082D01*
X36774996Y20328598D01*
X36680418Y20235981D01*
X36605631Y20126757D01*
X36553483Y20005087D01*
X36525961Y19875606D01*
X36524113Y19743244D01*
X36548009Y19613045D01*
X36596739Y19489966D01*
X36668447Y19378697D01*
X36760402Y19283474D01*
X36869101Y19207927D01*
X36944468Y19175000D01*
X36579594Y19175000D01*
X34475000Y21279594D01*
X34475000Y22320406D01*
X35470627Y23316033D01*
X35513444Y23356807D01*
X35589749Y23464976D01*
X35643590Y23585906D01*
X35672918Y23714991D01*
X35673925Y23787108D01*
X35674995Y23797644D01*
X35674191Y23806152D01*
X35675029Y23866187D01*
X35649317Y23996040D01*
X35598873Y24118427D01*
X35525618Y24228684D01*
X35432343Y24322613D01*
X35322600Y24396636D01*
X35200569Y24447933D01*
X35070898Y24474550D01*
X34938527Y24475475D01*
X34808497Y24450670D01*
X34685762Y24401082D01*
X34574996Y24328598D01*
X34480418Y24235981D01*
X34478314Y24232908D01*
X33322703Y23077297D01*
X33283130Y23029121D01*
X33243048Y22981353D01*
X33241339Y22978243D01*
X33239085Y22975500D01*
X33209593Y22920498D01*
X33179584Y22865911D01*
X33178512Y22862533D01*
X33176832Y22859399D01*
X33158588Y22799725D01*
X33139750Y22740340D01*
X33139354Y22736812D01*
X33138317Y22733419D01*
X33132016Y22671385D01*
X33125066Y22609424D01*
X33125017Y22602488D01*
X33125004Y22602356D01*
X33125016Y22602233D01*
X33125000Y22600000D01*
X33125000Y21675000D01*
X26606501Y21675000D01*
X26538527Y21675475D01*
X26536037Y21675000D01*
X19479594Y21675000D01*
X18138966Y23015628D01*
X18217582Y23065519D01*
X18313444Y23156807D01*
X18389749Y23264976D01*
X18443590Y23385906D01*
X18472918Y23514991D01*
X18473894Y23584921D01*
X18474984Y23595288D01*
X18474165Y23604289D01*
X18475029Y23666187D01*
X18449317Y23796040D01*
X18398873Y23918427D01*
X18325618Y24028684D01*
X18232343Y24122613D01*
X18122600Y24196636D01*
X18000569Y24247933D01*
X17870898Y24274550D01*
X17738527Y24275475D01*
X17736037Y24275000D01*
X16806501Y24275000D01*
X16738527Y24275475D01*
X16608497Y24250670D01*
X16485762Y24201082D01*
X16374996Y24128598D01*
X16280418Y24035981D01*
X16205631Y23926757D01*
X16153483Y23805087D01*
X16125961Y23675606D01*
X16124113Y23543244D01*
X15725000Y23543244D01*
X15725000Y27343244D01*
X24724113Y27343244D01*
X24748009Y27213045D01*
X24796739Y27089966D01*
X24868447Y26978697D01*
X24960402Y26883474D01*
X25069101Y26807927D01*
X25190404Y26754931D01*
X25319691Y26726505D01*
X25452036Y26723733D01*
X25582399Y26746720D01*
X25705815Y26794589D01*
X25817582Y26865519D01*
X25913444Y26956807D01*
X25926278Y26975000D01*
X34400000Y26975000D01*
X34439091Y26978833D01*
X34478179Y26982253D01*
X34480322Y26982876D01*
X34482550Y26983094D01*
X34520131Y26994441D01*
X34557832Y27005393D01*
X34559820Y27006423D01*
X34561955Y27007068D01*
X34596587Y27025482D01*
X34631472Y27043565D01*
X34633218Y27044959D01*
X34635191Y27046008D01*
X34665636Y27070838D01*
X34696295Y27095313D01*
X34699397Y27098373D01*
X34699470Y27098432D01*
X34699526Y27098499D01*
X34700520Y27099480D01*
X35500520Y27899480D01*
X35525424Y27929799D01*
X35550673Y27959889D01*
X35551749Y27961846D01*
X35553169Y27963575D01*
X35571711Y27998157D01*
X35590633Y28032575D01*
X35591310Y28034709D01*
X35592364Y28036675D01*
X35603828Y28074171D01*
X35615713Y28111638D01*
X35615962Y28113860D01*
X35616615Y28115995D01*
X35620581Y28155036D01*
X35624959Y28194066D01*
X35624989Y28198430D01*
X35624998Y28198517D01*
X35624990Y28198598D01*
X35625000Y28200000D01*
X35625000Y28472583D01*
X35713444Y28556807D01*
X35789749Y28664976D01*
X35843590Y28785906D01*
X35872918Y28914991D01*
X35875029Y29066187D01*
X35849317Y29196040D01*
X35798873Y29318427D01*
X35725618Y29428684D01*
X35632343Y29522613D01*
X35522600Y29596636D01*
X35400569Y29647933D01*
X35270898Y29674550D01*
X35138527Y29675475D01*
X35008497Y29650670D01*
X34885762Y29601082D01*
X34774996Y29528598D01*
X34680418Y29435981D01*
X34605631Y29326757D01*
X34553483Y29205087D01*
X34525961Y29075606D01*
X34524113Y28943244D01*
X34548009Y28813045D01*
X34596739Y28689966D01*
X34668447Y28578697D01*
X34760402Y28483474D01*
X34775000Y28473328D01*
X34775000Y28376040D01*
X34223960Y27825000D01*
X25928066Y27825000D01*
X25925618Y27828684D01*
X25832343Y27922613D01*
X25722600Y27996636D01*
X25600569Y28047933D01*
X25470898Y28074550D01*
X25338527Y28075475D01*
X25208497Y28050670D01*
X25085762Y28001082D01*
X24974996Y27928598D01*
X24880418Y27835981D01*
X24805631Y27726757D01*
X24753483Y27605087D01*
X24725961Y27475606D01*
X24724113Y27343244D01*
X15725000Y27343244D01*
X15725000Y28223960D01*
X16344284Y28843244D01*
X24724113Y28843244D01*
X24748009Y28713045D01*
X24796739Y28589966D01*
X24868447Y28478697D01*
X24960402Y28383474D01*
X25069101Y28307927D01*
X25190404Y28254931D01*
X25319691Y28226505D01*
X25452036Y28223733D01*
X25582399Y28246720D01*
X25705815Y28294589D01*
X25817582Y28365519D01*
X25913444Y28456807D01*
X25926278Y28475000D01*
X26200000Y28475000D01*
X26239091Y28478833D01*
X26278179Y28482253D01*
X26280322Y28482876D01*
X26282550Y28483094D01*
X26320131Y28494441D01*
X26357832Y28505393D01*
X26359820Y28506423D01*
X26361955Y28507068D01*
X26396587Y28525482D01*
X26431472Y28543565D01*
X26433218Y28544959D01*
X26435191Y28546008D01*
X26465636Y28570838D01*
X26496295Y28595313D01*
X26499397Y28598373D01*
X26499470Y28598432D01*
X26499526Y28598499D01*
X26500520Y28599480D01*
X26676040Y28775000D01*
X30400000Y28775000D01*
X30439091Y28778833D01*
X30478179Y28782253D01*
X30480322Y28782876D01*
X30482550Y28783094D01*
X30520131Y28794441D01*
X30557832Y28805393D01*
X30559820Y28806423D01*
X30561955Y28807068D01*
X30596587Y28825482D01*
X30631472Y28843565D01*
X30633218Y28844959D01*
X30635191Y28846008D01*
X30665636Y28870838D01*
X30696295Y28895313D01*
X30699397Y28898373D01*
X30699470Y28898432D01*
X30699526Y28898499D01*
X30700520Y28899480D01*
X31776041Y29975000D01*
X36323960Y29975000D01*
X36575000Y29723959D01*
X36575000Y29528601D01*
X36574996Y29528598D01*
X36480418Y29435981D01*
X36405631Y29326757D01*
X36353483Y29205087D01*
X36325961Y29075606D01*
X36324113Y28943244D01*
X36348009Y28813045D01*
X36396739Y28689966D01*
X36468447Y28578697D01*
X36560402Y28483474D01*
X36669101Y28407927D01*
X36790404Y28354931D01*
X36919691Y28326505D01*
X37052036Y28323733D01*
X37182399Y28346720D01*
X37305815Y28394589D01*
X37417582Y28465519D01*
X37513444Y28556807D01*
X37589749Y28664976D01*
X37643590Y28785906D01*
X37672918Y28914991D01*
X37675029Y29066187D01*
X37649317Y29196040D01*
X37598873Y29318427D01*
X37525618Y29428684D01*
X37432343Y29522613D01*
X37425000Y29527566D01*
X37425000Y29900000D01*
X37421172Y29939041D01*
X37417748Y29978179D01*
X37417124Y29980327D01*
X37416906Y29982550D01*
X37405572Y30020090D01*
X37394607Y30057832D01*
X37393577Y30059820D01*
X37392932Y30061955D01*
X37374518Y30096587D01*
X37356435Y30131472D01*
X37355041Y30133219D01*
X37353992Y30135191D01*
X37329187Y30165605D01*
X37304688Y30196295D01*
X37301623Y30199403D01*
X37301568Y30199470D01*
X37301506Y30199521D01*
X37300521Y30200520D01*
X36800520Y30700520D01*
X36770201Y30725424D01*
X36740111Y30750673D01*
X36738154Y30751749D01*
X36736425Y30753169D01*
X36701843Y30771711D01*
X36667425Y30790633D01*
X36665291Y30791310D01*
X36663325Y30792364D01*
X36625829Y30803828D01*
X36588362Y30815713D01*
X36586140Y30815962D01*
X36584005Y30816615D01*
X36544959Y30820581D01*
X36505934Y30824959D01*
X36501571Y30824989D01*
X36501484Y30824998D01*
X36501403Y30824990D01*
X36500000Y30825000D01*
X31600000Y30825000D01*
X31560913Y30821168D01*
X31521821Y30817747D01*
X31519678Y30817124D01*
X31517450Y30816906D01*
X31479822Y30805545D01*
X31442168Y30794606D01*
X31440185Y30793578D01*
X31438045Y30792932D01*
X31403378Y30774499D01*
X31368528Y30756435D01*
X31366781Y30755041D01*
X31364809Y30753992D01*
X31334388Y30729182D01*
X31303704Y30704687D01*
X31300597Y30701623D01*
X31300530Y30701568D01*
X31300479Y30701506D01*
X31299479Y30700520D01*
X30223960Y29625000D01*
X26500000Y29625000D01*
X26460913Y29621168D01*
X26421821Y29617747D01*
X26419678Y29617124D01*
X26417450Y29616906D01*
X26379869Y29605559D01*
X26342168Y29594607D01*
X26340180Y29593577D01*
X26338045Y29592932D01*
X26303413Y29574518D01*
X26268528Y29556435D01*
X26266782Y29555041D01*
X26264809Y29553992D01*
X26234364Y29529162D01*
X26203705Y29504687D01*
X26200603Y29501627D01*
X26200530Y29501568D01*
X26200474Y29501501D01*
X26199480Y29500520D01*
X26023960Y29325000D01*
X25928066Y29325000D01*
X25925618Y29328684D01*
X25832343Y29422613D01*
X25722600Y29496636D01*
X25600569Y29547933D01*
X25470898Y29574550D01*
X25338527Y29575475D01*
X25208497Y29550670D01*
X25085762Y29501082D01*
X24974996Y29428598D01*
X24880418Y29335981D01*
X24805631Y29226757D01*
X24753483Y29105087D01*
X24725961Y28975606D01*
X24724113Y28843244D01*
X16344284Y28843244D01*
X17844284Y30343244D01*
X24724113Y30343244D01*
X24748009Y30213045D01*
X24796739Y30089966D01*
X24868447Y29978697D01*
X24960402Y29883474D01*
X25069101Y29807927D01*
X25190404Y29754931D01*
X25319691Y29726505D01*
X25452036Y29723733D01*
X25582399Y29746720D01*
X25705815Y29794589D01*
X25817582Y29865519D01*
X25913444Y29956807D01*
X25989749Y30064976D01*
X26043590Y30185906D01*
X26072918Y30314991D01*
X26075029Y30466187D01*
X26073740Y30472699D01*
X26936041Y31335000D01*
X38334471Y31335000D01*
X38379879Y31220311D01*
X38504705Y31026620D01*
X38664775Y30860863D01*
X38853991Y30729354D01*
X39005000Y30663380D01*
X39005000Y28565621D01*
X38882993Y28516327D01*
X38690178Y28390153D01*
X38525543Y28228930D01*
X38395358Y28038799D01*
X38304582Y27827004D01*
X38256673Y27601610D01*
X38253456Y27371203D01*
X38295053Y27144559D01*
X38379879Y26930311D01*
X38504705Y26736620D01*
X38664775Y26570863D01*
X38853991Y26439354D01*
X39065148Y26347102D01*
X39290202Y26297621D01*
X39520581Y26292795D01*
X39747510Y26332808D01*
X39962344Y26416137D01*
X40156902Y26539608D01*
X40220676Y26600339D01*
X41277115Y26600339D01*
X41381039Y26446701D01*
X41591991Y26351463D01*
X41817470Y26299209D01*
X42048811Y26291949D01*
X42277123Y26329960D01*
X42493632Y26411782D01*
X42558961Y26446701D01*
X42662885Y26600339D01*
X41970000Y27293223D01*
X41277115Y26600339D01*
X40220676Y26600339D01*
X40323773Y26698516D01*
X40456600Y26886810D01*
X40550324Y27097318D01*
X40601375Y27322021D01*
X40602340Y27391189D01*
X40791949Y27391189D01*
X40829960Y27162877D01*
X40911782Y26946368D01*
X40946701Y26881039D01*
X41100339Y26777115D01*
X41793223Y27470000D01*
X42146777Y27470000D01*
X42839661Y26777115D01*
X42993299Y26881039D01*
X43088537Y27091991D01*
X43140791Y27317470D01*
X43148051Y27548811D01*
X43110040Y27777123D01*
X43028218Y27993632D01*
X42993299Y28058961D01*
X42839661Y28162885D01*
X42146777Y27470000D01*
X41793223Y27470000D01*
X41100339Y28162885D01*
X40946701Y28058961D01*
X40851463Y27848009D01*
X40799209Y27622530D01*
X40791949Y27391189D01*
X40602340Y27391189D01*
X40605050Y27585215D01*
X40560293Y27811256D01*
X40472483Y28024298D01*
X40344965Y28216228D01*
X40222391Y28339661D01*
X41277115Y28339661D01*
X41970000Y27646777D01*
X42662885Y28339661D01*
X42558961Y28493299D01*
X42348009Y28588537D01*
X42122530Y28640791D01*
X41891189Y28648051D01*
X41662877Y28610040D01*
X41446368Y28528218D01*
X41381039Y28493299D01*
X41277115Y28339661D01*
X40222391Y28339661D01*
X40182597Y28379733D01*
X39991562Y28508588D01*
X39855000Y28565993D01*
X39855000Y30664501D01*
X39962344Y30706137D01*
X40156902Y30829608D01*
X40220676Y30890339D01*
X41277115Y30890339D01*
X41381039Y30736701D01*
X41591991Y30641463D01*
X41817470Y30589209D01*
X42048811Y30581949D01*
X42277123Y30619960D01*
X42493632Y30701782D01*
X42558961Y30736701D01*
X42662885Y30890339D01*
X41970000Y31583223D01*
X41277115Y30890339D01*
X40220676Y30890339D01*
X40323773Y30988516D01*
X40456600Y31176810D01*
X40550324Y31387318D01*
X40601375Y31612021D01*
X40602340Y31681189D01*
X40791949Y31681189D01*
X40829960Y31452877D01*
X40911782Y31236368D01*
X40946701Y31171039D01*
X41100339Y31067115D01*
X41793223Y31760000D01*
X42146777Y31760000D01*
X42839661Y31067115D01*
X42993299Y31171039D01*
X43088537Y31381991D01*
X43140791Y31607470D01*
X43148051Y31838811D01*
X43110040Y32067123D01*
X43028218Y32283632D01*
X42993299Y32348961D01*
X42839661Y32452885D01*
X42146777Y31760000D01*
X41793223Y31760000D01*
X41100339Y32452885D01*
X40946701Y32348961D01*
X40851463Y32138009D01*
X40799209Y31912530D01*
X40791949Y31681189D01*
X40602340Y31681189D01*
X40605050Y31875215D01*
X40560293Y32101256D01*
X40472483Y32314298D01*
X40344965Y32506228D01*
X40222391Y32629661D01*
X41277115Y32629661D01*
X41970000Y31936777D01*
X42662885Y32629661D01*
X42558961Y32783299D01*
X42348009Y32878537D01*
X42122530Y32930791D01*
X41891189Y32938051D01*
X41662877Y32900040D01*
X41446368Y32818218D01*
X41381039Y32783299D01*
X41277115Y32629661D01*
X40222391Y32629661D01*
X40182597Y32669733D01*
X39991562Y32798588D01*
X39779138Y32887883D01*
X39553415Y32934217D01*
X39322991Y32935826D01*
X39096644Y32892648D01*
X38882993Y32806327D01*
X38690178Y32680153D01*
X38525543Y32518930D01*
X38395358Y32328799D01*
X38333725Y32185000D01*
X26760000Y32185000D01*
X26720913Y32181168D01*
X26681821Y32177747D01*
X26679678Y32177124D01*
X26677450Y32176906D01*
X26639822Y32165545D01*
X26602168Y32154606D01*
X26600185Y32153578D01*
X26598045Y32152932D01*
X26563378Y32134499D01*
X26528528Y32116435D01*
X26526781Y32115041D01*
X26524809Y32113992D01*
X26494388Y32089182D01*
X26463704Y32064687D01*
X26460597Y32061623D01*
X26460530Y32061568D01*
X26460479Y32061506D01*
X26459479Y32060520D01*
X25473065Y31074105D01*
X25470898Y31074550D01*
X25338527Y31075475D01*
X25208497Y31050670D01*
X25085762Y31001082D01*
X24974996Y30928598D01*
X24880418Y30835981D01*
X24805631Y30726757D01*
X24753483Y30605087D01*
X24725961Y30475606D01*
X24724113Y30343244D01*
X17844284Y30343244D01*
X22427385Y34926344D01*
X22552036Y34923733D01*
X22682399Y34946720D01*
X22805815Y34994589D01*
X22917582Y35065519D01*
X23013444Y35156807D01*
X23089749Y35264976D01*
X23143590Y35385906D01*
X23172918Y35514991D01*
X23175029Y35666187D01*
X23149317Y35796040D01*
X23098873Y35918427D01*
X23025618Y36028684D01*
X22932343Y36122613D01*
X22822600Y36196636D01*
X22700569Y36247933D01*
X22570898Y36274550D01*
X22438527Y36275475D01*
X22308497Y36250670D01*
X22213214Y36212173D01*
X22376041Y36375000D01*
X23372017Y36375000D01*
X23460402Y36283474D01*
X23569101Y36207927D01*
X23690404Y36154931D01*
X23819691Y36126505D01*
X23952036Y36123733D01*
X24082399Y36146720D01*
X24205815Y36194589D01*
X24317582Y36265519D01*
X24413444Y36356807D01*
X24489749Y36464976D01*
X24543590Y36585906D01*
X24572918Y36714991D01*
X24575029Y36866187D01*
X24549317Y36996040D01*
X24498873Y37118427D01*
X24425618Y37228684D01*
X24332343Y37322613D01*
X24222600Y37396636D01*
X24100569Y37447933D01*
X23970898Y37474550D01*
X23838527Y37475475D01*
X23708497Y37450670D01*
X23585762Y37401082D01*
X23474996Y37328598D01*
X23380418Y37235981D01*
X23372899Y37225000D01*
X22200000Y37225000D01*
X22160868Y37221163D01*
X22121821Y37217747D01*
X22119678Y37217124D01*
X22117450Y37216906D01*
X22079822Y37205545D01*
X22042168Y37194606D01*
X22040185Y37193578D01*
X22038045Y37192932D01*
X22003378Y37174499D01*
X21968528Y37156435D01*
X21966781Y37155041D01*
X21964809Y37153992D01*
X21934388Y37129182D01*
X21903704Y37104687D01*
X21900597Y37101623D01*
X21900530Y37101568D01*
X21900479Y37101506D01*
X21899479Y37100520D01*
X21199480Y36400520D01*
X21174576Y36370201D01*
X21149327Y36340111D01*
X21148251Y36338154D01*
X21146831Y36336425D01*
X21128289Y36301843D01*
X21109367Y36267425D01*
X21108690Y36265291D01*
X21107636Y36263325D01*
X21096172Y36225829D01*
X21084287Y36188362D01*
X21084038Y36186140D01*
X21083385Y36184005D01*
X21079419Y36144959D01*
X21075041Y36105934D01*
X21075011Y36101571D01*
X21075002Y36101484D01*
X21075010Y36101403D01*
X21075000Y36100000D01*
X21075000Y35676041D01*
X14399480Y29000520D01*
X14374576Y28970201D01*
X14349327Y28940111D01*
X14348251Y28938154D01*
X14346831Y28936425D01*
X14328289Y28901843D01*
X14309367Y28867425D01*
X14308690Y28865291D01*
X14307636Y28863325D01*
X14296172Y28825829D01*
X14284287Y28788362D01*
X14284038Y28786140D01*
X14283385Y28784005D01*
X14279419Y28744959D01*
X14275041Y28705934D01*
X14275011Y28701571D01*
X14275002Y28701484D01*
X14275010Y28701403D01*
X14275000Y28700000D01*
X14275000Y22500000D01*
X14278833Y22460909D01*
X14282253Y22421821D01*
X14282876Y22419678D01*
X14283094Y22417450D01*
X14294441Y22379869D01*
X14305393Y22342168D01*
X14306423Y22340180D01*
X14307068Y22338045D01*
X14325482Y22303413D01*
X14343565Y22268528D01*
X14344959Y22266782D01*
X14346008Y22264809D01*
X14370838Y22234364D01*
X14395313Y22203705D01*
X14398373Y22200603D01*
X14398432Y22200530D01*
X14398499Y22200474D01*
X14399480Y22199480D01*
X17147984Y19450975D01*
X16828014Y19717617D01*
X16815417Y19726111D01*
X16255417Y20026111D01*
X16241551Y20031837D01*
X15641551Y20211837D01*
X15627224Y20214651D01*
X15007224Y20274651D01*
X14992776Y20274651D01*
X14372776Y20214651D01*
X14358449Y20211837D01*
X13758449Y20031837D01*
X13744583Y20026111D01*
X13184583Y19726111D01*
X13171986Y19717617D01*
X12691986Y19317617D01*
X12682383Y19308014D01*
X12282383Y18828014D01*
X12273889Y18815417D01*
X11973889Y18255417D01*
X11968163Y18241551D01*
X11788163Y17641551D01*
X11785349Y17627224D01*
X11725349Y17007224D01*
X11725349Y16992776D01*
X11785349Y16372776D01*
X11788163Y16358449D01*
X11968163Y15758449D01*
X11973889Y15744583D01*
X12273889Y15184583D01*
X12282383Y15171986D01*
X12682383Y14691986D01*
X12691986Y14682383D01*
X13171986Y14282383D01*
X13184583Y14273889D01*
X13744583Y13973889D01*
X13758449Y13968163D01*
X14235659Y13825000D01*
X13000000Y13825000D01*
X12960913Y13821168D01*
X12921821Y13817747D01*
X12919678Y13817124D01*
X12917450Y13816906D01*
X12879822Y13805545D01*
X12842168Y13794606D01*
X12840185Y13793578D01*
X12838045Y13792932D01*
X12803378Y13774499D01*
X12768528Y13756435D01*
X12766781Y13755041D01*
X12764809Y13753992D01*
X12734388Y13729182D01*
X12703704Y13704687D01*
X12700597Y13701623D01*
X12700530Y13701568D01*
X12700479Y13701506D01*
X12699479Y13700520D01*
X11573065Y12574105D01*
X11570898Y12574550D01*
X11438527Y12575475D01*
X11308497Y12550670D01*
X11185762Y12501082D01*
X11074996Y12428598D01*
X10980418Y12335981D01*
X10905631Y12226757D01*
X10853483Y12105087D01*
X10825961Y11975606D01*
X10824113Y11843244D01*
X10826918Y11827959D01*
X7899480Y8900520D01*
X7874576Y8870201D01*
X7849327Y8840111D01*
X7848251Y8838154D01*
X7846831Y8836425D01*
X7828289Y8801843D01*
X7809367Y8767425D01*
X7808690Y8765291D01*
X7807636Y8763325D01*
X7796172Y8725829D01*
X7784287Y8688362D01*
X7784038Y8686140D01*
X7783385Y8684005D01*
X7779422Y8644994D01*
X7775041Y8605934D01*
X7775011Y8601571D01*
X7775002Y8601484D01*
X7775010Y8601403D01*
X7775000Y8600000D01*
X7775000Y6686814D01*
X5911200Y6686814D01*
X5851483Y6682052D01*
X5750196Y6650685D01*
X5661657Y6592343D01*
X5592878Y6511643D01*
X5549304Y6414978D01*
X5534386Y6310000D01*
X4866200Y6310000D01*
X4866200Y6346935D01*
X4851789Y6419384D01*
X4823521Y6487629D01*
X4782481Y6549049D01*
X4730248Y6601282D01*
X4668829Y6642321D01*
X4600583Y6670589D01*
X4528134Y6685000D01*
X3439950Y6685000D01*
X3346200Y6591250D01*
X3096200Y6591250D01*
X3002450Y6685000D01*
X1914266Y6685000D01*
X1841817Y6670589D01*
X1773571Y6642321D01*
X1712152Y6601282D01*
X1659919Y6549049D01*
X1618879Y6487629D01*
X1590611Y6419384D01*
X1576200Y6346935D01*
X325000Y6346935D01*
X325000Y10807069D01*
X11155627Y16714684D01*
X11166408Y16722014D01*
X11177958Y16728052D01*
X11192574Y16739803D01*
X11208081Y16750346D01*
X11217228Y16759625D01*
X11227391Y16767796D01*
X11239448Y16782165D01*
X11252610Y16795517D01*
X11259783Y16806400D01*
X11268162Y16816386D01*
X11277198Y16832822D01*
X11287516Y16848477D01*
X11292437Y16860543D01*
X11298719Y16871969D01*
X11304392Y16889851D01*
X11311471Y16907208D01*
X11313955Y16919999D01*
X11317898Y16932429D01*
X11319988Y16951067D01*
X11323563Y16969473D01*
X11323515Y16982510D01*
X11324968Y16995462D01*
X11325000Y17000000D01*
X11325000Y21000000D01*
X11322015Y21030441D01*
X11319243Y21060899D01*
X11318921Y21061993D01*
X11318810Y21063126D01*
X11309985Y21092354D01*
X11301335Y21121747D01*
X11300806Y21122760D01*
X11300477Y21123848D01*
X11286137Y21150817D01*
X11271948Y21177958D01*
X11271234Y21178847D01*
X11270699Y21179852D01*
X11251421Y21203489D01*
X11232204Y21227391D01*
X11231327Y21228127D01*
X11230610Y21229006D01*
X11207090Y21248464D01*
X11183614Y21268162D01*
X11182616Y21268711D01*
X11181738Y21269437D01*
X11154793Y21284006D01*
X11128031Y21298719D01*
X11126948Y21299062D01*
X11125943Y21299606D01*
X11096682Y21308664D01*
X11067571Y21317898D01*
X11066439Y21318025D01*
X11065350Y21318362D01*
X11034915Y21321561D01*
X11004538Y21324968D01*
X11002351Y21324983D01*
X11002269Y21324992D01*
X11002187Y21324985D01*
X11000000Y21325000D01*
X5515896Y21325000D01*
X5272078Y21348906D01*
X5052834Y21415100D01*
X4850630Y21522614D01*
X4673153Y21667361D01*
X4527170Y21843824D01*
X4418247Y22045273D01*
X4350526Y22264042D01*
X4325000Y22506915D01*
X4325000Y23132330D01*
X4368373Y23132330D01*
X4386945Y22928250D01*
X4444804Y22731663D01*
X4539744Y22550059D01*
X4668151Y22390353D01*
X4825132Y22258631D01*
X5004708Y22159908D01*
X5200040Y22097945D01*
X5403687Y22075102D01*
X5418347Y22075000D01*
X6081653Y22075000D01*
X6285599Y22094997D01*
X6481777Y22154227D01*
X6661900Y22250000D01*
X8878990Y22250000D01*
X9039644Y22199038D01*
X9252989Y22175107D01*
X9268347Y22175000D01*
X9831653Y22175000D01*
X10045311Y22195949D01*
X10250830Y22257999D01*
X10440384Y22358787D01*
X10606751Y22494472D01*
X10743594Y22659888D01*
X10845702Y22848733D01*
X10909186Y23053814D01*
X10931626Y23267321D01*
X10912169Y23481119D01*
X10851555Y23687067D01*
X10752094Y23877320D01*
X10617573Y24044630D01*
X10453117Y24182625D01*
X10264989Y24286049D01*
X10060356Y24350962D01*
X9847011Y24374893D01*
X9831653Y24375000D01*
X9268347Y24375000D01*
X9161451Y24364519D01*
X9172918Y24414991D01*
X9175029Y24566187D01*
X9149317Y24696040D01*
X9098873Y24818427D01*
X9025618Y24928684D01*
X8932343Y25022613D01*
X8822600Y25096636D01*
X8700569Y25147933D01*
X8570898Y25174550D01*
X8438527Y25175475D01*
X8308497Y25150670D01*
X8185762Y25101082D01*
X8074996Y25028598D01*
X7980418Y24935981D01*
X7905631Y24826757D01*
X7853483Y24705087D01*
X7825961Y24575606D01*
X7824113Y24443244D01*
X7848009Y24313045D01*
X7896739Y24189966D01*
X7968447Y24078697D01*
X8044443Y24000000D01*
X6659168Y24000000D01*
X6495292Y24090092D01*
X6299960Y24152055D01*
X6096313Y24174898D01*
X6081653Y24175000D01*
X5418347Y24175000D01*
X5214401Y24155003D01*
X5018223Y24095773D01*
X4837286Y23999567D01*
X4678481Y23870049D01*
X4547858Y23712153D01*
X4450391Y23531891D01*
X4389793Y23336132D01*
X4368373Y23132330D01*
X4325000Y23132330D01*
X4325000Y30882330D01*
X4368373Y30882330D01*
X4386945Y30678250D01*
X4444804Y30481663D01*
X4539744Y30300059D01*
X4668151Y30140353D01*
X4825132Y30008631D01*
X5004708Y29909908D01*
X5200040Y29847945D01*
X5403687Y29825102D01*
X5418347Y29825000D01*
X6081653Y29825000D01*
X6285599Y29844997D01*
X6481777Y29904227D01*
X6661900Y30000000D01*
X8045792Y30000000D01*
X7980418Y29935981D01*
X7905631Y29826757D01*
X7853483Y29705087D01*
X7825961Y29575606D01*
X7824113Y29443244D01*
X7848009Y29313045D01*
X7896739Y29189966D01*
X7968447Y29078697D01*
X8060402Y28983474D01*
X8169101Y28907927D01*
X8290404Y28854931D01*
X8419691Y28826505D01*
X8552036Y28823733D01*
X8682399Y28846720D01*
X8805815Y28894589D01*
X8917582Y28965519D01*
X9013444Y29056807D01*
X9089749Y29164976D01*
X9143590Y29285906D01*
X9172918Y29414991D01*
X9175029Y29566187D01*
X9161326Y29635389D01*
X9252989Y29625107D01*
X9268347Y29625000D01*
X9831653Y29625000D01*
X10045311Y29645949D01*
X10250830Y29707999D01*
X10440384Y29808787D01*
X10606751Y29944472D01*
X10743594Y30109888D01*
X10845702Y30298733D01*
X10909186Y30503814D01*
X10931626Y30717321D01*
X10912169Y30931119D01*
X10851555Y31137067D01*
X10752094Y31327320D01*
X10617573Y31494630D01*
X10453117Y31632625D01*
X10264989Y31736049D01*
X10060356Y31800962D01*
X9847011Y31824893D01*
X9831653Y31825000D01*
X9268347Y31825000D01*
X9054689Y31804051D01*
X8875664Y31750000D01*
X6659168Y31750000D01*
X6495292Y31840092D01*
X6299960Y31902055D01*
X6096313Y31924898D01*
X6081653Y31925000D01*
X5418347Y31925000D01*
X5214401Y31905003D01*
X5018223Y31845773D01*
X4837286Y31749567D01*
X4678481Y31620049D01*
X4547858Y31462153D01*
X4450391Y31281891D01*
X4389793Y31086132D01*
X4368373Y30882330D01*
X4325000Y30882330D01*
X4325000Y31484104D01*
X4348906Y31727922D01*
X4415100Y31947165D01*
X4522614Y32149370D01*
X4667361Y32326847D01*
X4843824Y32472829D01*
X5045276Y32581754D01*
X5264047Y32649474D01*
X5506915Y32675000D01*
X11000000Y32675000D01*
X11030441Y32677985D01*
X11060899Y32680757D01*
X11061993Y32681079D01*
X11063126Y32681190D01*
X11092354Y32690015D01*
X11121747Y32698665D01*
X11122760Y32699194D01*
X11123848Y32699523D01*
X11150817Y32713863D01*
X11177958Y32728052D01*
X11178847Y32728766D01*
X11179852Y32729301D01*
X11203489Y32748579D01*
X11227391Y32767796D01*
X11228127Y32768673D01*
X11229006Y32769390D01*
X11248464Y32792910D01*
X11268162Y32816386D01*
X11268711Y32817384D01*
X11269437Y32818262D01*
X11284006Y32845207D01*
X11298719Y32871969D01*
X11299062Y32873052D01*
X11299606Y32874057D01*
X11308664Y32903318D01*
X11317898Y32932429D01*
X11318025Y32933561D01*
X11318362Y32934650D01*
X11321561Y32965085D01*
X11324968Y32995462D01*
X11324983Y32997649D01*
X11324992Y32997731D01*
X11324985Y32997813D01*
X11325000Y33000000D01*
X11325000Y38675000D01*
X12198666Y38675000D01*
X11973889Y38255417D01*
X11973889Y38255417D01*
G37*
X11973889Y38255417D02*
X11968163Y38241551D01*
X11788163Y37641551D01*
X11785349Y37627224D01*
X11725349Y37007224D01*
X11725349Y36992776D01*
X11785349Y36372776D01*
X11788163Y36358449D01*
X11968163Y35758449D01*
X11973889Y35744583D01*
X12273889Y35184583D01*
X12282383Y35171986D01*
X12682383Y34691986D01*
X12691986Y34682383D01*
X13171986Y34282383D01*
X13184583Y34273889D01*
X13744583Y33973889D01*
X13758449Y33968163D01*
X14358449Y33788163D01*
X14372776Y33785349D01*
X14992776Y33725349D01*
X15007224Y33725349D01*
X15627224Y33785349D01*
X15641551Y33788163D01*
X16241551Y33968163D01*
X16255417Y33973889D01*
X16815417Y34273889D01*
X16828014Y34282383D01*
X17308014Y34682383D01*
X17317617Y34691986D01*
X17717617Y35171986D01*
X17726111Y35184583D01*
X18026111Y35744583D01*
X18031837Y35758449D01*
X18211837Y36358449D01*
X18214651Y36372776D01*
X18274651Y36992776D01*
X18274651Y37007224D01*
X18214651Y37627224D01*
X18211837Y37641551D01*
X18031837Y38241551D01*
X18026111Y38255417D01*
X17801334Y38675000D01*
X32198666Y38675000D01*
X31973889Y38255417D01*
X31968163Y38241551D01*
X31788163Y37641551D01*
X31785349Y37627224D01*
X31725349Y37007224D01*
X31725349Y36992776D01*
X31785349Y36372776D01*
X31788163Y36358449D01*
X31968163Y35758449D01*
X31973889Y35744583D01*
X32273889Y35184583D01*
X32282383Y35171986D01*
X32682383Y34691986D01*
X32691986Y34682383D01*
X33171986Y34282383D01*
X33184583Y34273889D01*
X33744583Y33973889D01*
X33758449Y33968163D01*
X34358449Y33788163D01*
X34372776Y33785349D01*
X34992776Y33725349D01*
X35007224Y33725349D01*
X35627224Y33785349D01*
X35641551Y33788163D01*
X36241551Y33968163D01*
X36255417Y33973889D01*
X36815417Y34273889D01*
X36828014Y34282383D01*
X37147988Y34549028D01*
X36223960Y33625000D01*
X29928066Y33625000D01*
X29925618Y33628684D01*
X29832343Y33722613D01*
X29722600Y33796636D01*
X29600569Y33847933D01*
X29470898Y33874550D01*
X29338527Y33875475D01*
X29208497Y33850670D01*
X29085762Y33801082D01*
X28974996Y33728598D01*
X28880418Y33635981D01*
X28805631Y33526757D01*
X28753483Y33405087D01*
X28725961Y33275606D01*
X28724113Y33143244D01*
X28748009Y33013045D01*
X28796739Y32889966D01*
X28868447Y32778697D01*
X28960402Y32683474D01*
X29069101Y32607927D01*
X29190404Y32554931D01*
X29319691Y32526505D01*
X29452036Y32523733D01*
X29582399Y32546720D01*
X29705815Y32594589D01*
X29817582Y32665519D01*
X29913444Y32756807D01*
X29926278Y32775000D01*
X36400000Y32775000D01*
X36439091Y32778833D01*
X36478179Y32782253D01*
X36480322Y32782876D01*
X36482550Y32783094D01*
X36520131Y32794441D01*
X36557832Y32805393D01*
X36559820Y32806423D01*
X36561955Y32807068D01*
X36596587Y32825482D01*
X36631472Y32843565D01*
X36633218Y32844959D01*
X36635191Y32846008D01*
X36665636Y32870838D01*
X36696295Y32895313D01*
X36699397Y32898373D01*
X36699470Y32898432D01*
X36699526Y32898499D01*
X36700520Y32899480D01*
X38263158Y34462118D01*
X38256673Y34431610D01*
X38253456Y34201203D01*
X38295053Y33974559D01*
X38379879Y33760311D01*
X38504705Y33566620D01*
X38664775Y33400863D01*
X38853991Y33269354D01*
X39065148Y33177102D01*
X39290202Y33127621D01*
X39520581Y33122795D01*
X39747510Y33162808D01*
X39962344Y33246137D01*
X40156902Y33369608D01*
X40323773Y33528516D01*
X40456600Y33716810D01*
X40550324Y33927318D01*
X40601375Y34152021D01*
X40602061Y34201203D01*
X40793456Y34201203D01*
X40835053Y33974559D01*
X40919879Y33760311D01*
X41044705Y33566620D01*
X41204775Y33400863D01*
X41393991Y33269354D01*
X41605148Y33177102D01*
X41830202Y33127621D01*
X42060581Y33122795D01*
X42287510Y33162808D01*
X42502344Y33246137D01*
X42696902Y33369608D01*
X42863773Y33528516D01*
X42996600Y33716810D01*
X43090324Y33927318D01*
X43141375Y34152021D01*
X43145050Y34415215D01*
X43100293Y34641256D01*
X43012483Y34854298D01*
X42884965Y35046228D01*
X42722597Y35209733D01*
X42531562Y35338588D01*
X42319138Y35427883D01*
X42093415Y35474217D01*
X41862991Y35475826D01*
X41636644Y35432648D01*
X41422993Y35346327D01*
X41230178Y35220153D01*
X41065543Y35058930D01*
X40935358Y34868799D01*
X40844582Y34657004D01*
X40796673Y34431610D01*
X40793456Y34201203D01*
X40602061Y34201203D01*
X40605050Y34415215D01*
X40560293Y34641256D01*
X40472483Y34854298D01*
X40344965Y35046228D01*
X40182597Y35209733D01*
X39991562Y35338588D01*
X39779138Y35427883D01*
X39553415Y35474217D01*
X39322991Y35475826D01*
X39096644Y35432648D01*
X38882993Y35346327D01*
X38690178Y35220153D01*
X38525543Y35058930D01*
X38525000Y35058137D01*
X38525000Y35333960D01*
X38955880Y35764840D01*
X39065148Y35717102D01*
X39290202Y35667621D01*
X39520581Y35662795D01*
X39747510Y35702808D01*
X39962344Y35786137D01*
X40156902Y35909608D01*
X40323773Y36068516D01*
X40456600Y36256810D01*
X40550324Y36467318D01*
X40601375Y36692021D01*
X40602061Y36741203D01*
X40793456Y36741203D01*
X40835053Y36514559D01*
X40919879Y36300311D01*
X41044705Y36106620D01*
X41204775Y35940863D01*
X41393991Y35809354D01*
X41605148Y35717102D01*
X41830202Y35667621D01*
X42060581Y35662795D01*
X42287510Y35702808D01*
X42502344Y35786137D01*
X42696902Y35909608D01*
X42863773Y36068516D01*
X42996600Y36256810D01*
X43090324Y36467318D01*
X43141375Y36692021D01*
X43145050Y36955215D01*
X43100293Y37181256D01*
X43012483Y37394298D01*
X42884965Y37586228D01*
X42722597Y37749733D01*
X42531562Y37878588D01*
X42319138Y37967883D01*
X42093415Y38014217D01*
X41862991Y38015826D01*
X41636644Y37972648D01*
X41422993Y37886327D01*
X41230178Y37760153D01*
X41065543Y37598930D01*
X40935358Y37408799D01*
X40844582Y37197004D01*
X40796673Y36971610D01*
X40793456Y36741203D01*
X40602061Y36741203D01*
X40605050Y36955215D01*
X40560293Y37181256D01*
X40472483Y37394298D01*
X40344965Y37586228D01*
X40182597Y37749733D01*
X39991562Y37878588D01*
X39779138Y37967883D01*
X39553415Y38014217D01*
X39322991Y38015826D01*
X39096644Y37972648D01*
X38882993Y37886327D01*
X38690178Y37760153D01*
X38525543Y37598930D01*
X38395358Y37408799D01*
X38304582Y37197004D01*
X38271395Y37040871D01*
X38214651Y37627224D01*
X38211837Y37641551D01*
X38031837Y38241551D01*
X38026111Y38255417D01*
X37801334Y38675000D01*
X43675000Y38675000D01*
X43675000Y19000000D01*
X43677083Y18978757D01*
X43677802Y18957410D01*
X43680173Y18947247D01*
X43681190Y18936874D01*
X43687360Y18916438D01*
X43692212Y18895639D01*
X43696509Y18886136D01*
X43699523Y18876152D01*
X43709546Y18857302D01*
X43718344Y18837843D01*
X43724407Y18829353D01*
X43729301Y18820148D01*
X43742789Y18803610D01*
X43755204Y18786224D01*
X43762802Y18779072D01*
X43769390Y18770994D01*
X43785838Y18757387D01*
X43801389Y18742748D01*
X43805000Y18740000D01*
X49675000Y14337500D01*
X49675000Y325000D01*
X325000Y325000D01*
X325000Y3551250D01*
X1576200Y3551250D01*
X1576200Y1193065D01*
X1590611Y1120616D01*
X1618879Y1052371D01*
X1659919Y990951D01*
X1712152Y938718D01*
X1773571Y897679D01*
X1841817Y869411D01*
X1914266Y855000D01*
X3002450Y855000D01*
X3096200Y948750D01*
X3096200Y3645000D01*
X3346200Y3645000D01*
X3346200Y948750D01*
X3439950Y855000D01*
X4528134Y855000D01*
X4600583Y869411D01*
X4668829Y897679D01*
X4730248Y938718D01*
X4782481Y990951D01*
X4823521Y1052371D01*
X4851789Y1120616D01*
X4866200Y1193065D01*
X4866200Y3551250D01*
X4772450Y3645000D01*
X3346200Y3645000D01*
X3096200Y3645000D01*
X1669950Y3645000D01*
X1576200Y3551250D01*
X325000Y3551250D01*
X325000Y6346935D01*
X1576200Y6346935D01*
X1576200Y3988750D01*
X1669950Y3895000D01*
X3096200Y3895000D01*
X3096200Y6591250D01*
X3346200Y6591250D01*
X3346200Y3895000D01*
X4772450Y3895000D01*
X4866200Y3988750D01*
X4866200Y6310000D01*
X5534386Y6310000D01*
X5534386Y1230000D01*
X5539148Y1170283D01*
X5570515Y1068996D01*
X5628857Y980457D01*
X5709557Y911678D01*
X5806222Y868104D01*
X5911200Y853186D01*
X8451200Y853186D01*
X8510917Y857948D01*
X8612204Y889315D01*
X8700743Y947657D01*
X8769522Y1028357D01*
X8813096Y1125022D01*
X8828014Y1230000D01*
X8828014Y6310000D01*
X9494386Y6310000D01*
X9494386Y1230000D01*
X9499148Y1170283D01*
X9530515Y1068996D01*
X9588857Y980457D01*
X9669557Y911678D01*
X9766222Y868104D01*
X9871200Y853186D01*
X12411200Y853186D01*
X12470917Y857948D01*
X12572204Y889315D01*
X12660743Y947657D01*
X12729522Y1028357D01*
X12773096Y1125022D01*
X12788014Y1230000D01*
X12788014Y6310000D01*
X13454386Y6310000D01*
X13454386Y1230000D01*
X13459148Y1170283D01*
X13490515Y1068996D01*
X13548857Y980457D01*
X13629557Y911678D01*
X13726222Y868104D01*
X13831200Y853186D01*
X16371200Y853186D01*
X16430917Y857948D01*
X16532204Y889315D01*
X16620743Y947657D01*
X16689522Y1028357D01*
X16733096Y1125022D01*
X16748014Y1230000D01*
X16748014Y6310000D01*
X16743252Y6369717D01*
X16711885Y6471004D01*
X16653543Y6559543D01*
X16572843Y6628322D01*
X16500000Y6661158D01*
X16500000Y7034314D01*
X17600000Y8134314D01*
X17600000Y6630788D01*
X17541657Y6592343D01*
X17472878Y6511643D01*
X17429304Y6414978D01*
X17414386Y6310000D01*
X17414386Y1230000D01*
X17419148Y1170283D01*
X17450515Y1068996D01*
X17508857Y980457D01*
X17589557Y911678D01*
X17686222Y868104D01*
X17791200Y853186D01*
X20331200Y853186D01*
X20390917Y857948D01*
X20492204Y889315D01*
X20580743Y947657D01*
X20649522Y1028357D01*
X20693096Y1125022D01*
X20708014Y1230000D01*
X20708014Y6310000D01*
X20703252Y6369717D01*
X20671885Y6471004D01*
X20613543Y6559543D01*
X20532843Y6628322D01*
X20436178Y6671896D01*
X20331200Y6686814D01*
X18400000Y6686814D01*
X18400000Y7943244D01*
X21324113Y7943244D01*
X21348009Y7813045D01*
X21396739Y7689966D01*
X21468447Y7578697D01*
X21525000Y7520134D01*
X21525000Y6607725D01*
X21501657Y6592343D01*
X21432878Y6511643D01*
X21389304Y6414978D01*
X21374386Y6310000D01*
X21374386Y1230000D01*
X21379148Y1170283D01*
X21410515Y1068996D01*
X21468857Y980457D01*
X21549557Y911678D01*
X21646222Y868104D01*
X21751200Y853186D01*
X24291200Y853186D01*
X24350917Y857948D01*
X24452204Y889315D01*
X24540743Y947657D01*
X24609522Y1028357D01*
X24653096Y1125022D01*
X24668014Y1230000D01*
X24668014Y6310000D01*
X24663252Y6369717D01*
X24631885Y6471004D01*
X24573543Y6559543D01*
X24492843Y6628322D01*
X24396178Y6671896D01*
X24291200Y6686814D01*
X22475000Y6686814D01*
X22475000Y7520197D01*
X22513444Y7556807D01*
X22589749Y7664976D01*
X22643590Y7785906D01*
X22672918Y7914991D01*
X22673312Y7943244D01*
X25224113Y7943244D01*
X25248009Y7813045D01*
X25296739Y7689966D01*
X25368447Y7578697D01*
X25425000Y7520134D01*
X25425000Y6552148D01*
X25390478Y6511643D01*
X25346904Y6414978D01*
X25331986Y6310000D01*
X25331986Y1230000D01*
X25336748Y1170283D01*
X25368115Y1068996D01*
X25426457Y980457D01*
X25507157Y911678D01*
X25603822Y868104D01*
X25708800Y853186D01*
X28248800Y853186D01*
X28308517Y857948D01*
X28409804Y889315D01*
X28498343Y947657D01*
X28567122Y1028357D01*
X28610696Y1125022D01*
X28625614Y1230000D01*
X28625614Y6310000D01*
X28620852Y6369717D01*
X28589485Y6471004D01*
X28531143Y6559543D01*
X28450443Y6628322D01*
X28353778Y6671896D01*
X28248800Y6686814D01*
X26375000Y6686814D01*
X26375000Y7520197D01*
X26413444Y7556807D01*
X26489749Y7664976D01*
X26543590Y7785906D01*
X26572918Y7914991D01*
X26575029Y8066187D01*
X26549317Y8196040D01*
X26498873Y8318427D01*
X26425618Y8428684D01*
X26332343Y8522613D01*
X26222600Y8596636D01*
X26100569Y8647933D01*
X25970898Y8674550D01*
X25838527Y8675475D01*
X25708497Y8650670D01*
X25585762Y8601082D01*
X25474996Y8528598D01*
X25380418Y8435981D01*
X25305631Y8326757D01*
X25253483Y8205087D01*
X25225961Y8075606D01*
X25224113Y7943244D01*
X22673312Y7943244D01*
X22675029Y8066187D01*
X22649317Y8196040D01*
X22598873Y8318427D01*
X22525618Y8428684D01*
X22432343Y8522613D01*
X22322600Y8596636D01*
X22200569Y8647933D01*
X22070898Y8674550D01*
X21938527Y8675475D01*
X21808497Y8650670D01*
X21685762Y8601082D01*
X21574996Y8528598D01*
X21480418Y8435981D01*
X21405631Y8326757D01*
X21353483Y8205087D01*
X21325961Y8075606D01*
X21324113Y7943244D01*
X18400000Y7943244D01*
X18400000Y8234314D01*
X18965686Y8800000D01*
X26434314Y8800000D01*
X26717157Y8517158D01*
X26745712Y8493702D01*
X26774013Y8469955D01*
X26775855Y8468942D01*
X26777482Y8467606D01*
X26810018Y8450161D01*
X26842423Y8432346D01*
X26844433Y8431708D01*
X26846282Y8430717D01*
X26881546Y8419936D01*
X26916835Y8408741D01*
X26918928Y8408506D01*
X26920937Y8407892D01*
X26957647Y8404163D01*
X26994415Y8400039D01*
X26998533Y8400010D01*
X26998604Y8400003D01*
X26998670Y8400009D01*
X27000000Y8400000D01*
X28900000Y8400000D01*
X28936784Y8403607D01*
X28973580Y8406826D01*
X28975599Y8407413D01*
X28977694Y8407618D01*
X29013077Y8418301D01*
X29048547Y8428606D01*
X29050415Y8429574D01*
X29052428Y8430182D01*
X29085058Y8447531D01*
X29117855Y8464532D01*
X29119498Y8465844D01*
X29121357Y8466832D01*
X29150011Y8490202D01*
X29178866Y8513236D01*
X29181796Y8516124D01*
X29181854Y8516172D01*
X29181899Y8516226D01*
X29182843Y8517157D01*
X30065685Y9400000D01*
X30934314Y9400000D01*
X31012352Y9321962D01*
X30950569Y9347933D01*
X30820898Y9374550D01*
X30688527Y9375475D01*
X30558497Y9350670D01*
X30435762Y9301082D01*
X30324996Y9228598D01*
X30230418Y9135981D01*
X30155631Y9026757D01*
X30103483Y8905087D01*
X30075961Y8775606D01*
X30074113Y8643244D01*
X30098009Y8513045D01*
X30146739Y8389966D01*
X30218447Y8278697D01*
X30310402Y8183474D01*
X30358146Y8150291D01*
X30324996Y8128598D01*
X30230418Y8035981D01*
X30155631Y7926757D01*
X30103483Y7805087D01*
X30075961Y7675606D01*
X30074113Y7543244D01*
X30098009Y7413045D01*
X30146739Y7289966D01*
X30218447Y7178697D01*
X30275000Y7120134D01*
X30275000Y6686814D01*
X29668800Y6686814D01*
X29609083Y6682052D01*
X29507796Y6650685D01*
X29419257Y6592343D01*
X29350478Y6511643D01*
X29306904Y6414978D01*
X29291986Y6310000D01*
X29291986Y1230000D01*
X29296748Y1170283D01*
X29328115Y1068996D01*
X29386457Y980457D01*
X29467157Y911678D01*
X29563822Y868104D01*
X29668800Y853186D01*
X32208800Y853186D01*
X32268517Y857948D01*
X32369804Y889315D01*
X32458343Y947657D01*
X32527122Y1028357D01*
X32570696Y1125022D01*
X32585614Y1230000D01*
X32585614Y6310000D01*
X32580852Y6369717D01*
X32549485Y6471004D01*
X32491143Y6559543D01*
X32410443Y6628322D01*
X32313778Y6671896D01*
X32208800Y6686814D01*
X31225000Y6686814D01*
X31225000Y7120197D01*
X31263444Y7156807D01*
X31339749Y7264976D01*
X31393590Y7385906D01*
X31422918Y7514991D01*
X31425029Y7666187D01*
X31399317Y7796040D01*
X31348873Y7918427D01*
X31275618Y8028684D01*
X31182343Y8122613D01*
X31142413Y8149546D01*
X31167582Y8165519D01*
X31263444Y8256807D01*
X31293913Y8300000D01*
X31334314Y8300000D01*
X32017157Y7617157D01*
X32045742Y7593677D01*
X32074013Y7569955D01*
X32075855Y7568942D01*
X32077482Y7567606D01*
X32110053Y7550142D01*
X32142423Y7532346D01*
X32144429Y7531710D01*
X32146282Y7530716D01*
X32181579Y7519925D01*
X32216835Y7508741D01*
X32218929Y7508506D01*
X32220938Y7507892D01*
X32257687Y7504159D01*
X32294415Y7500039D01*
X32298522Y7500010D01*
X32298604Y7500002D01*
X32298680Y7500009D01*
X32300000Y7500000D01*
X33034314Y7500000D01*
X33500000Y7034315D01*
X33500000Y6660658D01*
X33467796Y6650685D01*
X33379257Y6592343D01*
X33310478Y6511643D01*
X33266904Y6414978D01*
X33251986Y6310000D01*
X33251986Y1230000D01*
X33256748Y1170283D01*
X33288115Y1068996D01*
X33346457Y980457D01*
X33427157Y911678D01*
X33523822Y868104D01*
X33628800Y853186D01*
X36168800Y853186D01*
X36228517Y857948D01*
X36329804Y889315D01*
X36418343Y947657D01*
X36487122Y1028357D01*
X36530696Y1125022D01*
X36545614Y1230000D01*
X36545614Y6310000D01*
X36540852Y6369717D01*
X36509485Y6471004D01*
X36451143Y6559543D01*
X36370443Y6628322D01*
X36273778Y6671896D01*
X36168800Y6686814D01*
X34300000Y6686814D01*
X34300000Y7200000D01*
X34296389Y7236829D01*
X34293174Y7273580D01*
X34292587Y7275599D01*
X34292382Y7277694D01*
X34281699Y7313077D01*
X34271394Y7348547D01*
X34270426Y7350415D01*
X34269818Y7352428D01*
X34252479Y7385037D01*
X34235468Y7417856D01*
X34234155Y7419501D01*
X34233168Y7421357D01*
X34209816Y7449989D01*
X34186764Y7478866D01*
X34183879Y7481791D01*
X34183828Y7481854D01*
X34183770Y7481902D01*
X34182842Y7482843D01*
X33665686Y8000000D01*
X35600000Y8000000D01*
X35636784Y8003607D01*
X35673580Y8006826D01*
X35675599Y8007413D01*
X35677694Y8007618D01*
X35713077Y8018301D01*
X35748547Y8028606D01*
X35750415Y8029574D01*
X35752428Y8030182D01*
X35785058Y8047531D01*
X35817855Y8064532D01*
X35819498Y8065844D01*
X35821357Y8066832D01*
X35850011Y8090202D01*
X35878866Y8113236D01*
X35881796Y8116124D01*
X35881854Y8116172D01*
X35881899Y8116226D01*
X35882843Y8117157D01*
X37200000Y9434315D01*
X37200000Y8800000D01*
X37203607Y8763216D01*
X37206826Y8726420D01*
X37207413Y8724401D01*
X37207618Y8722306D01*
X37218301Y8686923D01*
X37228606Y8651453D01*
X37229574Y8649585D01*
X37230182Y8647572D01*
X37247506Y8614991D01*
X37264532Y8582145D01*
X37265844Y8580502D01*
X37266832Y8578643D01*
X37290202Y8549989D01*
X37313236Y8521134D01*
X37316124Y8518204D01*
X37316172Y8518146D01*
X37316226Y8518101D01*
X37317157Y8517157D01*
X37500000Y8334314D01*
X37500000Y6673045D01*
X37427796Y6650685D01*
X37339257Y6592343D01*
X37270478Y6511643D01*
X37226904Y6414978D01*
X37211986Y6310000D01*
X37211986Y1230000D01*
X37216748Y1170283D01*
X37248115Y1068996D01*
X37306457Y980457D01*
X37387157Y911678D01*
X37483822Y868104D01*
X37588800Y853186D01*
X40128800Y853186D01*
X40188517Y857948D01*
X40289804Y889315D01*
X40378343Y947657D01*
X40447122Y1028357D01*
X40490696Y1125022D01*
X40505614Y1230000D01*
X40505614Y6310000D01*
X40500852Y6369717D01*
X40469485Y6471004D01*
X40411143Y6559543D01*
X40330443Y6628322D01*
X40233778Y6671896D01*
X40128800Y6686814D01*
X38300000Y6686814D01*
X38300000Y8500000D01*
X38296393Y8536784D01*
X38293174Y8573580D01*
X38292587Y8575599D01*
X38292382Y8577694D01*
X38281699Y8613077D01*
X38271394Y8648547D01*
X38270426Y8650415D01*
X38269818Y8652428D01*
X38252469Y8685058D01*
X38235468Y8717855D01*
X38234156Y8719498D01*
X38233168Y8721357D01*
X38209798Y8750011D01*
X38186764Y8778866D01*
X38183876Y8781796D01*
X38183828Y8781854D01*
X38183774Y8781899D01*
X38182843Y8782843D01*
X38000000Y8965686D01*
X38000000Y11500000D01*
X37996393Y11536784D01*
X37993174Y11573580D01*
X37992587Y11575599D01*
X37992382Y11577694D01*
X37981713Y11613030D01*
X37971395Y11648547D01*
X37970424Y11650419D01*
X37969818Y11652428D01*
X37952508Y11684983D01*
X37935469Y11717855D01*
X37934155Y11719502D01*
X37933168Y11721357D01*
X37909821Y11749984D01*
X37886764Y11778866D01*
X37883876Y11781796D01*
X37883828Y11781854D01*
X37883774Y11781899D01*
X37882843Y11782843D01*
X37082843Y12582843D01*
X37054258Y12606323D01*
X37025987Y12630045D01*
X37024145Y12631058D01*
X37022518Y12632394D01*
X36989947Y12649858D01*
X36957577Y12667654D01*
X36955571Y12668290D01*
X36953718Y12669284D01*
X36918421Y12680075D01*
X36883165Y12691259D01*
X36881071Y12691494D01*
X36879062Y12692108D01*
X36842313Y12695841D01*
X36805585Y12699961D01*
X36801478Y12699990D01*
X36801396Y12699998D01*
X36801320Y12699991D01*
X36800000Y12700000D01*
X35800000Y12700000D01*
X35763216Y12696393D01*
X35726420Y12693174D01*
X35724401Y12692587D01*
X35722306Y12692382D01*
X35686923Y12681699D01*
X35651453Y12671394D01*
X35649585Y12670426D01*
X35647572Y12669818D01*
X35614942Y12652469D01*
X35582145Y12635468D01*
X35580502Y12634156D01*
X35578643Y12633168D01*
X35549989Y12609798D01*
X35521134Y12586764D01*
X35518204Y12583876D01*
X35518146Y12583828D01*
X35518101Y12583774D01*
X35517157Y12582843D01*
X34917157Y11982843D01*
X34893677Y11954258D01*
X34869955Y11925987D01*
X34868942Y11924145D01*
X34867606Y11922518D01*
X34850142Y11889947D01*
X34832346Y11857577D01*
X34831710Y11855571D01*
X34830716Y11853718D01*
X34819925Y11818421D01*
X34808741Y11783165D01*
X34808506Y11781071D01*
X34807892Y11779062D01*
X34804159Y11742313D01*
X34800039Y11705585D01*
X34800010Y11701478D01*
X34800002Y11701396D01*
X34800009Y11701320D01*
X34800000Y11700000D01*
X34800000Y10465686D01*
X34134314Y9800000D01*
X33065685Y9800000D01*
X30400000Y12465686D01*
X30400000Y12654361D01*
X30417582Y12665519D01*
X30513444Y12756807D01*
X30589749Y12864976D01*
X30643590Y12985906D01*
X30672918Y13114991D01*
X30675029Y13266187D01*
X30649317Y13396040D01*
X30598873Y13518427D01*
X30525618Y13628684D01*
X30432343Y13722613D01*
X30322600Y13796636D01*
X30200569Y13847933D01*
X30070898Y13874550D01*
X29938527Y13875475D01*
X29808497Y13850670D01*
X29685762Y13801082D01*
X29574996Y13728598D01*
X29480418Y13635981D01*
X29405631Y13526757D01*
X29353483Y13405087D01*
X29325961Y13275606D01*
X29324113Y13143244D01*
X29348009Y13013045D01*
X29396739Y12889966D01*
X29468447Y12778697D01*
X29560402Y12683474D01*
X29600000Y12655953D01*
X29600000Y12300000D01*
X29603607Y12263216D01*
X29606826Y12226420D01*
X29607413Y12224401D01*
X29607618Y12222306D01*
X29618301Y12186923D01*
X29628606Y12151453D01*
X29629574Y12149585D01*
X29630182Y12147572D01*
X29647531Y12114942D01*
X29664532Y12082145D01*
X29665844Y12080502D01*
X29666832Y12078643D01*
X29690202Y12049989D01*
X29713236Y12021134D01*
X29716124Y12018204D01*
X29716172Y12018146D01*
X29716226Y12018101D01*
X29717157Y12017157D01*
X31034314Y10700000D01*
X29700000Y10700000D01*
X29663216Y10696393D01*
X29626420Y10693174D01*
X29624401Y10692587D01*
X29622306Y10692382D01*
X29586970Y10681713D01*
X29551453Y10671395D01*
X29549581Y10670424D01*
X29547572Y10669818D01*
X29515017Y10652508D01*
X29482145Y10635469D01*
X29480498Y10634154D01*
X29478643Y10633168D01*
X29450047Y10609845D01*
X29421134Y10586765D01*
X29418207Y10583878D01*
X29418146Y10583828D01*
X29418099Y10583771D01*
X29417158Y10582843D01*
X28534314Y9700000D01*
X27365685Y9700000D01*
X27082843Y9982843D01*
X27054258Y10006323D01*
X27025987Y10030045D01*
X27024145Y10031058D01*
X27022518Y10032394D01*
X26989947Y10049858D01*
X26957577Y10067654D01*
X26955571Y10068290D01*
X26953718Y10069284D01*
X26918421Y10080075D01*
X26883165Y10091259D01*
X26881071Y10091494D01*
X26879062Y10092108D01*
X26842313Y10095841D01*
X26805585Y10099961D01*
X26801478Y10099990D01*
X26801396Y10099998D01*
X26801320Y10099991D01*
X26800000Y10100000D01*
X18600000Y10100000D01*
X18563216Y10096393D01*
X18526420Y10093174D01*
X18524401Y10092587D01*
X18522306Y10092382D01*
X18486923Y10081699D01*
X18451453Y10071394D01*
X18449585Y10070426D01*
X18447572Y10069818D01*
X18414942Y10052469D01*
X18382145Y10035468D01*
X18380502Y10034156D01*
X18378643Y10033168D01*
X18349989Y10009798D01*
X18321134Y9986764D01*
X18318204Y9983876D01*
X18318146Y9983828D01*
X18318101Y9983774D01*
X18317157Y9982843D01*
X15817157Y7482843D01*
X15793677Y7454258D01*
X15769955Y7425987D01*
X15768942Y7424145D01*
X15767606Y7422518D01*
X15750142Y7389947D01*
X15732346Y7357577D01*
X15731710Y7355571D01*
X15730716Y7353718D01*
X15719925Y7318421D01*
X15708741Y7283165D01*
X15708506Y7281071D01*
X15707892Y7279062D01*
X15704159Y7242313D01*
X15700039Y7205585D01*
X15700010Y7201478D01*
X15700002Y7201396D01*
X15700009Y7201320D01*
X15700000Y7200000D01*
X15700000Y6686814D01*
X13831200Y6686814D01*
X13771483Y6682052D01*
X13670196Y6650685D01*
X13581657Y6592343D01*
X13512878Y6511643D01*
X13469304Y6414978D01*
X13454386Y6310000D01*
X12788014Y6310000D01*
X12783252Y6369717D01*
X12751885Y6471004D01*
X12693543Y6559543D01*
X12612843Y6628322D01*
X12600000Y6634111D01*
X12600000Y6734314D01*
X13482843Y7617158D01*
X13506302Y7645718D01*
X13530045Y7674013D01*
X13531058Y7675855D01*
X13532394Y7677482D01*
X13549858Y7710053D01*
X13567654Y7742423D01*
X13568290Y7744429D01*
X13569284Y7746282D01*
X13580088Y7781620D01*
X13591259Y7816835D01*
X13591493Y7818924D01*
X13592109Y7820938D01*
X13595847Y7857737D01*
X13599961Y7894415D01*
X13599990Y7898522D01*
X13599998Y7898604D01*
X13599991Y7898680D01*
X13600000Y7900000D01*
X13600000Y9143244D01*
X14024113Y9143244D01*
X14048009Y9013045D01*
X14096739Y8889966D01*
X14168447Y8778697D01*
X14260402Y8683474D01*
X14369101Y8607927D01*
X14490404Y8554931D01*
X14619691Y8526505D01*
X14752036Y8523733D01*
X14882399Y8546720D01*
X15005815Y8594589D01*
X15117582Y8665519D01*
X15213444Y8756807D01*
X15289749Y8864976D01*
X15343590Y8985906D01*
X15372918Y9114991D01*
X15375029Y9266187D01*
X15367896Y9302210D01*
X16365685Y10300000D01*
X19500000Y10300000D01*
X19536784Y10303607D01*
X19573580Y10306826D01*
X19575599Y10307413D01*
X19577694Y10307618D01*
X19613077Y10318301D01*
X19648547Y10328606D01*
X19650415Y10329574D01*
X19652428Y10330182D01*
X19685058Y10347531D01*
X19717855Y10364532D01*
X19719498Y10365844D01*
X19721357Y10366832D01*
X19750011Y10390202D01*
X19778866Y10413236D01*
X19781796Y10416124D01*
X19781854Y10416172D01*
X19781899Y10416226D01*
X19782843Y10417157D01*
X26465686Y17100000D01*
X27237714Y17100000D01*
X27221134Y17086764D01*
X27218204Y17083876D01*
X27218146Y17083828D01*
X27218101Y17083774D01*
X27217157Y17082843D01*
X23917157Y13782843D01*
X23893677Y13754258D01*
X23869955Y13725987D01*
X23868942Y13724145D01*
X23867606Y13722518D01*
X23850142Y13689947D01*
X23832346Y13657577D01*
X23831710Y13655571D01*
X23830716Y13653718D01*
X23819925Y13618421D01*
X23808741Y13583165D01*
X23808506Y13581071D01*
X23807892Y13579062D01*
X23804159Y13542313D01*
X23800039Y13505585D01*
X23800010Y13501478D01*
X23800002Y13501396D01*
X23800009Y13501320D01*
X23800000Y13500000D01*
X23800000Y11444960D01*
X23774996Y11428598D01*
X23680418Y11335981D01*
X23605631Y11226757D01*
X23553483Y11105087D01*
X23525961Y10975606D01*
X23524113Y10843244D01*
X23548009Y10713045D01*
X23596739Y10589966D01*
X23668447Y10478697D01*
X23760402Y10383474D01*
X23869101Y10307927D01*
X23990404Y10254931D01*
X24119691Y10226505D01*
X24252036Y10223733D01*
X24382399Y10246720D01*
X24505815Y10294589D01*
X24617582Y10365519D01*
X24713444Y10456807D01*
X24789749Y10564976D01*
X24843590Y10685906D01*
X24872918Y10814991D01*
X24875029Y10966187D01*
X24849317Y11096040D01*
X24798873Y11218427D01*
X24725618Y11328684D01*
X24632343Y11422613D01*
X24600000Y11444429D01*
X24600000Y13334314D01*
X27665686Y16400000D01*
X29734314Y16400000D01*
X30017157Y16117158D01*
X30045712Y16093702D01*
X30074013Y16069955D01*
X30075855Y16068942D01*
X30077482Y16067606D01*
X30110018Y16050161D01*
X30142423Y16032346D01*
X30144433Y16031708D01*
X30146282Y16030717D01*
X30181546Y16019936D01*
X30216835Y16008741D01*
X30218928Y16008506D01*
X30220937Y16007892D01*
X30257647Y16004163D01*
X30294415Y16000039D01*
X30298533Y16000010D01*
X30298604Y16000003D01*
X30298670Y16000009D01*
X30300000Y16000000D01*
X30454718Y16000000D01*
X30468447Y15978697D01*
X30560402Y15883474D01*
X30669101Y15807927D01*
X30790404Y15754931D01*
X30919691Y15726505D01*
X31052036Y15723733D01*
X31182399Y15746720D01*
X31305815Y15794589D01*
X31417582Y15865519D01*
X31513444Y15956807D01*
X31589749Y16064976D01*
X31643590Y16185906D01*
X31672918Y16314991D01*
X31675029Y16466187D01*
X31649317Y16596040D01*
X31598873Y16718427D01*
X31525618Y16828684D01*
X31432343Y16922613D01*
X31322600Y16996636D01*
X31200569Y17047933D01*
X31070898Y17074550D01*
X30938527Y17075475D01*
X30808497Y17050670D01*
X30685762Y17001082D01*
X30574996Y16928598D01*
X30480418Y16835981D01*
X30459807Y16805879D01*
X30182843Y17082843D01*
X30161956Y17100000D01*
X31931146Y17100000D01*
X31925961Y17075606D01*
X31924113Y16943244D01*
X31948009Y16813045D01*
X31996739Y16689966D01*
X32068447Y16578697D01*
X32160402Y16483474D01*
X32269101Y16407927D01*
X32390404Y16354931D01*
X32519691Y16326505D01*
X32652036Y16323733D01*
X32782399Y16346720D01*
X32905815Y16394589D01*
X33017582Y16465519D01*
X33113444Y16556807D01*
X33189749Y16664976D01*
X33243590Y16785906D01*
X33272918Y16914991D01*
X33275029Y17066187D01*
X33249317Y17196040D01*
X33198873Y17318427D01*
X33125618Y17428684D01*
X33032343Y17522613D01*
X32922600Y17596636D01*
X32800569Y17647933D01*
X32670898Y17674550D01*
X32538527Y17675475D01*
X32497951Y17667735D01*
X32382843Y17782843D01*
X32354258Y17806323D01*
X32325987Y17830045D01*
X32324145Y17831058D01*
X32322518Y17832394D01*
X32289947Y17849858D01*
X32257577Y17867654D01*
X32255571Y17868290D01*
X32253718Y17869284D01*
X32218421Y17880075D01*
X32183165Y17891259D01*
X32181071Y17891494D01*
X32179062Y17892108D01*
X32142313Y17895841D01*
X32105585Y17899961D01*
X32101478Y17899990D01*
X32101396Y17899998D01*
X32101320Y17899991D01*
X32100000Y17900000D01*
X26300000Y17900000D01*
X26263216Y17896393D01*
X26226420Y17893174D01*
X26224401Y17892587D01*
X26222306Y17892382D01*
X26186923Y17881699D01*
X26151453Y17871394D01*
X26149585Y17870426D01*
X26147572Y17869818D01*
X26114963Y17852479D01*
X26082144Y17835468D01*
X26080499Y17834155D01*
X26078643Y17833168D01*
X26050011Y17809816D01*
X26021134Y17786764D01*
X26018204Y17783876D01*
X26018146Y17783828D01*
X26018101Y17783774D01*
X26017157Y17782843D01*
X19334314Y11100000D01*
X16200000Y11100000D01*
X16163216Y11096393D01*
X16126420Y11093174D01*
X16124401Y11092587D01*
X16122306Y11092382D01*
X16086923Y11081699D01*
X16051453Y11071394D01*
X16049585Y11070426D01*
X16047572Y11069818D01*
X16014963Y11052479D01*
X15982144Y11035468D01*
X15980499Y11034155D01*
X15978643Y11033168D01*
X15950011Y11009816D01*
X15921134Y10986764D01*
X15918209Y10983879D01*
X15918146Y10983828D01*
X15918098Y10983770D01*
X15917157Y10982842D01*
X14802398Y9868084D01*
X14770898Y9874550D01*
X14638527Y9875475D01*
X14508497Y9850670D01*
X14385762Y9801082D01*
X14274996Y9728598D01*
X14180418Y9635981D01*
X14105631Y9526757D01*
X14053483Y9405087D01*
X14025961Y9275606D01*
X14024113Y9143244D01*
X13600000Y9143244D01*
X13600000Y10034314D01*
X14865685Y11300000D01*
X18800000Y11300000D01*
X18836784Y11303607D01*
X18873580Y11306826D01*
X18875599Y11307413D01*
X18877694Y11307618D01*
X18913077Y11318301D01*
X18948547Y11328606D01*
X18950415Y11329574D01*
X18952428Y11330182D01*
X18985058Y11347531D01*
X19017855Y11364532D01*
X19019498Y11365844D01*
X19021357Y11366832D01*
X19050011Y11390202D01*
X19078866Y11413236D01*
X19081796Y11416124D01*
X19081854Y11416172D01*
X19081899Y11416226D01*
X19082843Y11417157D01*
X25765686Y18100000D01*
X34234314Y18100000D01*
X35617157Y16717158D01*
X35645712Y16693702D01*
X35674013Y16669955D01*
X35675855Y16668942D01*
X35677482Y16667606D01*
X35710018Y16650161D01*
X35742423Y16632346D01*
X35744433Y16631708D01*
X35746282Y16630717D01*
X35781546Y16619936D01*
X35816835Y16608741D01*
X35818928Y16608506D01*
X35820937Y16607892D01*
X35857647Y16604163D01*
X35894415Y16600039D01*
X35898533Y16600010D01*
X35898604Y16600003D01*
X35898670Y16600009D01*
X35900000Y16600000D01*
X36954718Y16600000D01*
X36968447Y16578697D01*
X37060402Y16483474D01*
X37169101Y16407927D01*
X37290404Y16354931D01*
X37419691Y16326505D01*
X37552036Y16323733D01*
X37682399Y16346720D01*
X37805815Y16394589D01*
X37917582Y16465519D01*
X38013444Y16556807D01*
X38089749Y16664976D01*
X38143590Y16785906D01*
X38172918Y16914991D01*
X38175029Y17066187D01*
X38149317Y17196040D01*
X38098873Y17318427D01*
X38025618Y17428684D01*
X37932343Y17522613D01*
X37822600Y17596636D01*
X37700569Y17647933D01*
X37570898Y17674550D01*
X37438527Y17675475D01*
X37308497Y17650670D01*
X37185762Y17601082D01*
X37074996Y17528598D01*
X36980418Y17435981D01*
X36955781Y17400000D01*
X36065685Y17400000D01*
X34682843Y18782843D01*
X34654258Y18806323D01*
X34625987Y18830045D01*
X34624145Y18831058D01*
X34622518Y18832394D01*
X34589947Y18849858D01*
X34557577Y18867654D01*
X34555571Y18868290D01*
X34553718Y18869284D01*
X34518421Y18880075D01*
X34483165Y18891259D01*
X34481071Y18891494D01*
X34479062Y18892108D01*
X34442313Y18895841D01*
X34405585Y18899961D01*
X34401478Y18899990D01*
X34401396Y18899998D01*
X34401320Y18899991D01*
X34400000Y18900000D01*
X25600000Y18900000D01*
X25563216Y18896393D01*
X25526420Y18893174D01*
X25524401Y18892587D01*
X25522306Y18892382D01*
X25486923Y18881699D01*
X25451453Y18871394D01*
X25449585Y18870426D01*
X25447572Y18869818D01*
X25414963Y18852479D01*
X25382144Y18835468D01*
X25380499Y18834155D01*
X25378643Y18833168D01*
X25350011Y18809816D01*
X25321134Y18786764D01*
X25318204Y18783876D01*
X25318146Y18783828D01*
X25318101Y18783774D01*
X25317157Y18782843D01*
X18634314Y12100000D01*
X14700000Y12100000D01*
X14663216Y12096393D01*
X14626420Y12093174D01*
X14624401Y12092587D01*
X14622306Y12092382D01*
X14586923Y12081699D01*
X14551453Y12071394D01*
X14549585Y12070426D01*
X14547572Y12069818D01*
X14514963Y12052479D01*
X14482144Y12035468D01*
X14480499Y12034155D01*
X14478643Y12033168D01*
X14450011Y12009816D01*
X14421134Y11986764D01*
X14418209Y11983879D01*
X14418146Y11983828D01*
X14418098Y11983770D01*
X14417157Y11982842D01*
X12917157Y10482843D01*
X12893677Y10454258D01*
X12869955Y10425987D01*
X12868942Y10424145D01*
X12867606Y10422518D01*
X12850142Y10389947D01*
X12832346Y10357577D01*
X12831710Y10355571D01*
X12830716Y10353718D01*
X12819925Y10318421D01*
X12808741Y10283165D01*
X12808506Y10281071D01*
X12807892Y10279062D01*
X12804159Y10242313D01*
X12800039Y10205585D01*
X12800010Y10201478D01*
X12800002Y10201396D01*
X12800009Y10201320D01*
X12800000Y10200000D01*
X12800000Y8065685D01*
X11917157Y7182843D01*
X11893677Y7154258D01*
X11869955Y7125987D01*
X11868942Y7124145D01*
X11867606Y7122518D01*
X11850142Y7089947D01*
X11832346Y7057577D01*
X11831710Y7055571D01*
X11830716Y7053718D01*
X11819925Y7018421D01*
X11808741Y6983165D01*
X11808506Y6981071D01*
X11807892Y6979062D01*
X11804159Y6942313D01*
X11800039Y6905585D01*
X11800010Y6901478D01*
X11800002Y6901396D01*
X11800009Y6901320D01*
X11800000Y6900000D01*
X11800000Y6686814D01*
X9871200Y6686814D01*
X9811483Y6682052D01*
X9710196Y6650685D01*
X9621657Y6592343D01*
X9552878Y6511643D01*
X9509304Y6414978D01*
X9494386Y6310000D01*
X8828014Y6310000D01*
X8823252Y6369717D01*
X8791885Y6471004D01*
X8733543Y6559543D01*
X8652843Y6628322D01*
X8625000Y6640873D01*
X8625000Y8423960D01*
X11427385Y11226344D01*
X11552036Y11223733D01*
X11682399Y11246720D01*
X11805815Y11294589D01*
X11917582Y11365519D01*
X12013444Y11456807D01*
X12089749Y11564976D01*
X12143590Y11685906D01*
X12172918Y11814991D01*
X12175029Y11966187D01*
X12173740Y11972699D01*
X13176041Y12975000D01*
X13773959Y12975000D01*
X11599480Y10800520D01*
X11574576Y10770201D01*
X11549327Y10740111D01*
X11548251Y10738154D01*
X11546831Y10736425D01*
X11528289Y10701843D01*
X11509367Y10667425D01*
X11508690Y10665291D01*
X11507636Y10663325D01*
X11496172Y10625829D01*
X11484287Y10588362D01*
X11484038Y10586140D01*
X11483385Y10584005D01*
X11479422Y10544994D01*
X11475041Y10505934D01*
X11475011Y10501571D01*
X11475002Y10501484D01*
X11475010Y10501403D01*
X11475000Y10500000D01*
X11475000Y8928601D01*
X11474996Y8928598D01*
X11380418Y8835981D01*
X11305631Y8726757D01*
X11253483Y8605087D01*
X11225961Y8475606D01*
X11224113Y8343244D01*
X11248009Y8213045D01*
X11296739Y8089966D01*
X11368447Y7978697D01*
X11460402Y7883474D01*
X11569101Y7807927D01*
X11690404Y7754931D01*
X11819691Y7726505D01*
X11952036Y7723733D01*
X12082399Y7746720D01*
X12205815Y7794589D01*
X12317582Y7865519D01*
X12413444Y7956807D01*
X12489749Y8064976D01*
X12543590Y8185906D01*
X12572918Y8314991D01*
X12575029Y8466187D01*
X12549317Y8596040D01*
X12498873Y8718427D01*
X12425618Y8828684D01*
X12332343Y8922613D01*
X12325000Y8927566D01*
X12325000Y10323960D01*
X14376041Y12375000D01*
X17000000Y12375000D01*
X17039091Y12378833D01*
X17078179Y12382253D01*
X17080322Y12382876D01*
X17082550Y12383094D01*
X17120131Y12394441D01*
X17157832Y12405393D01*
X17159820Y12406423D01*
X17161955Y12407068D01*
X17196587Y12425482D01*
X17231472Y12443565D01*
X17233218Y12444959D01*
X17235191Y12446008D01*
X17265636Y12470838D01*
X17296295Y12495313D01*
X17299397Y12498373D01*
X17299470Y12498432D01*
X17299526Y12498499D01*
X17300520Y12499480D01*
X19600520Y14799479D01*
X19625463Y14829845D01*
X19650673Y14859889D01*
X19651747Y14861843D01*
X19653169Y14863574D01*
X19671733Y14898196D01*
X19690633Y14932575D01*
X19691309Y14934707D01*
X19692364Y14936674D01*
X19703832Y14974185D01*
X19715713Y15011638D01*
X19715962Y15013860D01*
X19716615Y15015995D01*
X19720582Y15055043D01*
X19724959Y15094066D01*
X19724989Y15098429D01*
X19724998Y15098516D01*
X19724990Y15098597D01*
X19725000Y15100000D01*
X19725000Y18800000D01*
X19721168Y18839087D01*
X19717747Y18878179D01*
X19717124Y18880322D01*
X19716906Y18882550D01*
X19705545Y18920178D01*
X19694606Y18957832D01*
X19693578Y18959815D01*
X19692932Y18961955D01*
X19674499Y18996622D01*
X19656435Y19031472D01*
X19655041Y19033219D01*
X19653992Y19035191D01*
X19629182Y19065612D01*
X19604687Y19096296D01*
X19601623Y19099403D01*
X19601568Y19099470D01*
X19601506Y19099521D01*
X19600520Y19100521D01*
X15725000Y22976040D01*
X15725000Y23543244D01*
X16124113Y23543244D01*
X16148009Y23413045D01*
X16196739Y23289966D01*
X16268447Y23178697D01*
X16360402Y23083474D01*
X16469101Y23007927D01*
X16590404Y22954931D01*
X16625000Y22947324D01*
X16625000Y22900000D01*
X16631082Y22837969D01*
X16636518Y22775833D01*
X16637509Y22772423D01*
X16637855Y22768892D01*
X16655879Y22709192D01*
X16673272Y22649327D01*
X16674904Y22646178D01*
X16675931Y22642777D01*
X16705204Y22587722D01*
X16733897Y22532368D01*
X16736113Y22529592D01*
X16737778Y22526461D01*
X16777162Y22478171D01*
X16816086Y22429413D01*
X16820958Y22424472D01*
X16821040Y22424372D01*
X16821133Y22424295D01*
X16822703Y22422703D01*
X18722703Y20522703D01*
X18770879Y20483130D01*
X18818647Y20443048D01*
X18821757Y20441339D01*
X18824500Y20439085D01*
X18879502Y20409593D01*
X18934089Y20379584D01*
X18937467Y20378512D01*
X18940601Y20376832D01*
X19000275Y20358588D01*
X19059660Y20339750D01*
X19063188Y20339354D01*
X19066581Y20338317D01*
X19128615Y20332016D01*
X19190576Y20325066D01*
X19197512Y20325017D01*
X19197644Y20325004D01*
X19197767Y20325016D01*
X19200000Y20325000D01*
X26591545Y20325000D01*
X26652036Y20323733D01*
X26659221Y20325000D01*
X33520406Y20325000D01*
X35822703Y18022703D01*
X35870879Y17983130D01*
X35918647Y17943048D01*
X35921757Y17941339D01*
X35924500Y17939085D01*
X35979502Y17909593D01*
X36034089Y17879584D01*
X36037467Y17878512D01*
X36040601Y17876832D01*
X36100275Y17858588D01*
X36159660Y17839750D01*
X36163188Y17839354D01*
X36166581Y17838317D01*
X36228615Y17832016D01*
X36290576Y17825066D01*
X36297512Y17825017D01*
X36297644Y17825004D01*
X36297767Y17825016D01*
X36300000Y17825000D01*
X38620406Y17825000D01*
X39825000Y16620406D01*
X39825000Y15279594D01*
X39220406Y14675000D01*
X37579594Y14675000D01*
X37277297Y14977297D01*
X37229121Y15016870D01*
X37181353Y15056952D01*
X37178243Y15058661D01*
X37175500Y15060915D01*
X37120498Y15090407D01*
X37065911Y15120416D01*
X37062533Y15121488D01*
X37059399Y15123168D01*
X36999725Y15141412D01*
X36940340Y15160250D01*
X36936812Y15160646D01*
X36933419Y15161683D01*
X36871385Y15167984D01*
X36809424Y15174934D01*
X36802488Y15174983D01*
X36802356Y15174996D01*
X36802233Y15174984D01*
X36800000Y15175000D01*
X31379594Y15175000D01*
X31277297Y15277297D01*
X31229121Y15316870D01*
X31181353Y15356952D01*
X31178243Y15358661D01*
X31175500Y15360915D01*
X31120498Y15390407D01*
X31065911Y15420416D01*
X31062533Y15421488D01*
X31059399Y15423168D01*
X30999725Y15441412D01*
X30940340Y15460250D01*
X30936812Y15460646D01*
X30933419Y15461683D01*
X30871385Y15467984D01*
X30809424Y15474934D01*
X30802488Y15474983D01*
X30802356Y15474996D01*
X30802233Y15474984D01*
X30800000Y15475000D01*
X29200000Y15475000D01*
X29137969Y15468918D01*
X29075833Y15463482D01*
X29072423Y15462491D01*
X29068892Y15462145D01*
X29009192Y15444121D01*
X28949327Y15426728D01*
X28946178Y15425096D01*
X28942777Y15424069D01*
X28887683Y15394775D01*
X28832368Y15366102D01*
X28829595Y15363889D01*
X28826461Y15362222D01*
X28778144Y15322815D01*
X28729413Y15283914D01*
X28724472Y15279042D01*
X28724372Y15278960D01*
X28724295Y15278867D01*
X28722703Y15277297D01*
X27522703Y14077297D01*
X27483130Y14029121D01*
X27443048Y13981353D01*
X27441339Y13978243D01*
X27439085Y13975500D01*
X27409593Y13920498D01*
X27379584Y13865911D01*
X27378512Y13862533D01*
X27376832Y13859399D01*
X27358588Y13799725D01*
X27339750Y13740340D01*
X27339354Y13736812D01*
X27338317Y13733419D01*
X27332016Y13671385D01*
X27325066Y13609424D01*
X27325017Y13602488D01*
X27325004Y13602356D01*
X27325016Y13602233D01*
X27325000Y13600000D01*
X27325000Y10606775D01*
X27324113Y10543244D01*
X27348009Y10413045D01*
X27396739Y10289966D01*
X27468447Y10178697D01*
X27560402Y10083474D01*
X27669101Y10007927D01*
X27790404Y9954931D01*
X27919691Y9926505D01*
X28052036Y9923733D01*
X28182399Y9946720D01*
X28305815Y9994589D01*
X28417582Y10065519D01*
X28513444Y10156807D01*
X28589749Y10264976D01*
X28643590Y10385906D01*
X28672918Y10514991D01*
X28673837Y10580793D01*
X28674934Y10590576D01*
X28675000Y10600000D01*
X28675000Y10664110D01*
X28675029Y10666187D01*
X28675000Y10666333D01*
X28675000Y13320406D01*
X29479594Y14125000D01*
X30520406Y14125000D01*
X30622703Y14022703D01*
X30670879Y13983130D01*
X30718647Y13943048D01*
X30721757Y13941339D01*
X30724500Y13939085D01*
X30779502Y13909593D01*
X30834089Y13879584D01*
X30837467Y13878512D01*
X30840601Y13876832D01*
X30900275Y13858588D01*
X30959660Y13839750D01*
X30963188Y13839354D01*
X30966581Y13838317D01*
X31028615Y13832016D01*
X31090576Y13825066D01*
X31097512Y13825017D01*
X31097644Y13825004D01*
X31097767Y13825016D01*
X31100000Y13825000D01*
X32825000Y13825000D01*
X32825000Y10606775D01*
X32824113Y10543244D01*
X32848009Y10413045D01*
X32896739Y10289966D01*
X32968447Y10178697D01*
X33060402Y10083474D01*
X33169101Y10007927D01*
X33290404Y9954931D01*
X33419691Y9926505D01*
X33552036Y9923733D01*
X33682399Y9946720D01*
X33805815Y9994589D01*
X33917582Y10065519D01*
X34013444Y10156807D01*
X34089749Y10264976D01*
X34143590Y10385906D01*
X34172918Y10514991D01*
X34173837Y10580793D01*
X34174934Y10590576D01*
X34175000Y10600000D01*
X34175000Y10664110D01*
X34175029Y10666187D01*
X34175000Y10666333D01*
X34175000Y13825000D01*
X36520406Y13825000D01*
X36822703Y13522703D01*
X36870879Y13483130D01*
X36918647Y13443048D01*
X36921757Y13441339D01*
X36924500Y13439085D01*
X36979502Y13409593D01*
X37034089Y13379584D01*
X37037467Y13378512D01*
X37040601Y13376832D01*
X37100275Y13358588D01*
X37159660Y13339750D01*
X37163188Y13339354D01*
X37166581Y13338317D01*
X37228615Y13332016D01*
X37290576Y13325066D01*
X37297512Y13325017D01*
X37297644Y13325004D01*
X37297767Y13325016D01*
X37300000Y13325000D01*
X38325000Y13325000D01*
X38325000Y10606775D01*
X38324113Y10543244D01*
X38348009Y10413045D01*
X38396739Y10289966D01*
X38468447Y10178697D01*
X38560402Y10083474D01*
X38669101Y10007927D01*
X38790404Y9954931D01*
X38919691Y9926505D01*
X39052036Y9923733D01*
X39182399Y9946720D01*
X39305815Y9994589D01*
X39417582Y10065519D01*
X39513444Y10156807D01*
X39589749Y10264976D01*
X39643590Y10385906D01*
X39672918Y10514991D01*
X39673837Y10580793D01*
X39674934Y10590576D01*
X39675000Y10600000D01*
X39675000Y10664110D01*
X39675029Y10666187D01*
X39675000Y10666333D01*
X39675000Y13343244D01*
X40724113Y13343244D01*
X40748009Y13213045D01*
X40796739Y13089966D01*
X40868447Y12978697D01*
X40925000Y12920134D01*
X40925000Y8800000D01*
X40929284Y8756309D01*
X40933106Y8712623D01*
X40933802Y8710227D01*
X40934046Y8707739D01*
X40946738Y8665703D01*
X40958970Y8623600D01*
X40960119Y8621383D01*
X40960841Y8618992D01*
X40981453Y8580226D01*
X41001632Y8541296D01*
X41003188Y8539346D01*
X41004362Y8537139D01*
X41032078Y8503156D01*
X41059467Y8468846D01*
X41062901Y8465364D01*
X41062954Y8465299D01*
X41063015Y8465249D01*
X41064124Y8464124D01*
X41425000Y8103248D01*
X41425000Y6662206D01*
X41387796Y6650685D01*
X41299257Y6592343D01*
X41230478Y6511643D01*
X41186904Y6414978D01*
X41171986Y6310000D01*
X41171986Y1230000D01*
X41176748Y1170283D01*
X41208115Y1068996D01*
X41266457Y980457D01*
X41347157Y911678D01*
X41443822Y868104D01*
X41548800Y853186D01*
X44088800Y853186D01*
X44148517Y857948D01*
X44249804Y889315D01*
X44338343Y947657D01*
X44407122Y1028357D01*
X44450696Y1125022D01*
X44465614Y1230000D01*
X44465614Y3551250D01*
X45133800Y3551250D01*
X45133800Y1193065D01*
X45148211Y1120616D01*
X45176479Y1052371D01*
X45217519Y990951D01*
X45269752Y938718D01*
X45331171Y897679D01*
X45399417Y869411D01*
X45471866Y855000D01*
X46560050Y855000D01*
X46653800Y948750D01*
X46653800Y3645000D01*
X46903800Y3645000D01*
X46903800Y948750D01*
X46997550Y855000D01*
X48085734Y855000D01*
X48158183Y869411D01*
X48226429Y897679D01*
X48287848Y938718D01*
X48340081Y990951D01*
X48381121Y1052371D01*
X48409389Y1120616D01*
X48423800Y1193065D01*
X48423800Y3551250D01*
X48330050Y3645000D01*
X46903800Y3645000D01*
X46653800Y3645000D01*
X45227550Y3645000D01*
X45133800Y3551250D01*
X44465614Y3551250D01*
X44465614Y6310000D01*
X44462669Y6346935D01*
X45133800Y6346935D01*
X45133800Y3988750D01*
X45227550Y3895000D01*
X46653800Y3895000D01*
X46653800Y6591250D01*
X46903800Y6591250D01*
X46903800Y3895000D01*
X48330050Y3895000D01*
X48423800Y3988750D01*
X48423800Y6346935D01*
X48409389Y6419384D01*
X48381121Y6487629D01*
X48340081Y6549049D01*
X48287848Y6601282D01*
X48226429Y6642321D01*
X48158183Y6670589D01*
X48085734Y6685000D01*
X46997550Y6685000D01*
X46903800Y6591250D01*
X46653800Y6591250D01*
X46560050Y6685000D01*
X45471866Y6685000D01*
X45399417Y6670589D01*
X45331171Y6642321D01*
X45269752Y6601282D01*
X45217519Y6549049D01*
X45176479Y6487629D01*
X45148211Y6419384D01*
X45133800Y6346935D01*
X44462669Y6346935D01*
X44460852Y6369717D01*
X44429485Y6471004D01*
X44371143Y6559543D01*
X44290443Y6628322D01*
X44193778Y6671896D01*
X44088800Y6686814D01*
X42375000Y6686814D01*
X42375000Y8300000D01*
X42370715Y8343708D01*
X42366894Y8387377D01*
X42366198Y8389773D01*
X42365954Y8392261D01*
X42353262Y8434297D01*
X42341030Y8476400D01*
X42339881Y8478617D01*
X42339159Y8481008D01*
X42318557Y8519755D01*
X42298369Y8558703D01*
X42296811Y8560654D01*
X42295638Y8562861D01*
X42267927Y8596838D01*
X42240533Y8631154D01*
X42237099Y8634636D01*
X42237046Y8634701D01*
X42236985Y8634751D01*
X42235876Y8635876D01*
X41875000Y8996752D01*
X41875000Y12920197D01*
X41913444Y12956807D01*
X41989749Y13064976D01*
X42043590Y13185906D01*
X42072918Y13314991D01*
X42075029Y13466187D01*
X42049317Y13596040D01*
X41998873Y13718427D01*
X41925618Y13828684D01*
X41832343Y13922613D01*
X41722600Y13996636D01*
X41600569Y14047933D01*
X41470898Y14074550D01*
X41338527Y14075475D01*
X41208497Y14050670D01*
X41085762Y14001082D01*
X40974996Y13928598D01*
X40880418Y13835981D01*
X40805631Y13726757D01*
X40753483Y13605087D01*
X40725961Y13475606D01*
X40724113Y13343244D01*
X39675000Y13343244D01*
X39675000Y13351107D01*
X39690808Y13355879D01*
X39750673Y13373272D01*
X39753822Y13374904D01*
X39757223Y13375931D01*
X39812278Y13405204D01*
X39867632Y13433897D01*
X39870408Y13436113D01*
X39873539Y13437778D01*
X39921829Y13477162D01*
X39970587Y13516086D01*
X39975528Y13520958D01*
X39975628Y13521040D01*
X39975705Y13521133D01*
X39977297Y13522703D01*
X40779594Y14325000D01*
X42620406Y14325000D01*
X43125000Y13820406D01*
X43125000Y11006775D01*
X43124113Y10943244D01*
X43125000Y10938411D01*
X43125000Y10206775D01*
X43124113Y10143244D01*
X43148009Y10013045D01*
X43196739Y9889966D01*
X43268447Y9778697D01*
X43360402Y9683474D01*
X43469101Y9607927D01*
X43590404Y9554931D01*
X43719691Y9526505D01*
X43852036Y9523733D01*
X43982399Y9546720D01*
X44105815Y9594589D01*
X44217582Y9665519D01*
X44313444Y9756807D01*
X44389749Y9864976D01*
X44443590Y9985906D01*
X44472918Y10114991D01*
X44473837Y10180793D01*
X44474934Y10190576D01*
X44475000Y10200000D01*
X44475000Y10264110D01*
X44475029Y10266187D01*
X44475000Y10266333D01*
X44475000Y11064110D01*
X44475029Y11066187D01*
X44475000Y11066333D01*
X44475000Y14100000D01*
X44468918Y14162031D01*
X44463482Y14224167D01*
X44462491Y14227577D01*
X44462145Y14231108D01*
X44444121Y14290808D01*
X44426728Y14350673D01*
X44425096Y14353822D01*
X44424069Y14357223D01*
X44394775Y14412317D01*
X44366102Y14467632D01*
X44363889Y14470405D01*
X44362222Y14473539D01*
X44322815Y14521856D01*
X44283914Y14570587D01*
X44279042Y14575528D01*
X44278960Y14575628D01*
X44278867Y14575705D01*
X44277297Y14577297D01*
X43377297Y15477297D01*
X43329121Y15516870D01*
X43281353Y15556952D01*
X43278243Y15558661D01*
X43275500Y15560915D01*
X43220498Y15590407D01*
X43165911Y15620416D01*
X43162533Y15621488D01*
X43159399Y15623168D01*
X43099725Y15641412D01*
X43040340Y15660250D01*
X43036812Y15660646D01*
X43033419Y15661683D01*
X42971385Y15667984D01*
X42909424Y15674934D01*
X42902488Y15674983D01*
X42902356Y15674996D01*
X42902233Y15674984D01*
X42900000Y15675000D01*
X41175000Y15675000D01*
X41175000Y16900000D01*
X41168918Y16962031D01*
X41163482Y17024167D01*
X41162491Y17027577D01*
X41162145Y17031108D01*
X41144121Y17090808D01*
X41126728Y17150673D01*
X41125096Y17153822D01*
X41124069Y17157223D01*
X41094796Y17212278D01*
X41066103Y17267632D01*
X41063887Y17270408D01*
X41062222Y17273539D01*
X41022818Y17321853D01*
X40983914Y17370586D01*
X40979043Y17375526D01*
X40978960Y17375628D01*
X40978866Y17375706D01*
X40977297Y17377297D01*
X39377297Y18977297D01*
X39329121Y19016870D01*
X39281353Y19056952D01*
X39278243Y19058661D01*
X39275500Y19060915D01*
X39220498Y19090407D01*
X39165911Y19120416D01*
X39162533Y19121488D01*
X39159399Y19123168D01*
X39099725Y19141412D01*
X39040340Y19160250D01*
X39036812Y19160646D01*
X39033419Y19161683D01*
X38971385Y19167984D01*
X38909424Y19174934D01*
X38902488Y19174983D01*
X38902356Y19174996D01*
X38902233Y19174984D01*
X38900000Y19175000D01*
X37455311Y19175000D01*
X37505815Y19194589D01*
X37617582Y19265519D01*
X37713444Y19356807D01*
X37789749Y19464976D01*
X37843590Y19585906D01*
X37872918Y19714991D01*
X37875029Y19866187D01*
X37873740Y19872699D01*
X39730520Y21729479D01*
X39755463Y21759845D01*
X39780673Y21789889D01*
X39781747Y21791843D01*
X39783169Y21793574D01*
X39801733Y21828196D01*
X39820633Y21862575D01*
X39821309Y21864707D01*
X39822364Y21866674D01*
X39833832Y21904185D01*
X39845713Y21941638D01*
X39845962Y21943860D01*
X39846615Y21945995D01*
X39850581Y21985041D01*
X39854959Y22024066D01*
X39854989Y22028429D01*
X39854998Y22028516D01*
X39854990Y22028597D01*
X39855000Y22030000D01*
X39855000Y23834501D01*
X39962344Y23876137D01*
X40156902Y23999608D01*
X40220676Y24060339D01*
X41277115Y24060339D01*
X41381039Y23906701D01*
X41591991Y23811463D01*
X41817470Y23759209D01*
X42048811Y23751949D01*
X42277123Y23789960D01*
X42493632Y23871782D01*
X42558961Y23906701D01*
X42662885Y24060339D01*
X41970000Y24753223D01*
X41277115Y24060339D01*
X40220676Y24060339D01*
X40323773Y24158516D01*
X40456600Y24346810D01*
X40550324Y24557318D01*
X40601375Y24782021D01*
X40602340Y24851189D01*
X40791949Y24851189D01*
X40829960Y24622877D01*
X40911782Y24406368D01*
X40946701Y24341039D01*
X41100339Y24237115D01*
X41793223Y24930000D01*
X42146777Y24930000D01*
X42839661Y24237115D01*
X42993299Y24341039D01*
X43088537Y24551991D01*
X43140791Y24777470D01*
X43148051Y25008811D01*
X43110040Y25237123D01*
X43028218Y25453632D01*
X42993299Y25518961D01*
X42839661Y25622885D01*
X42146777Y24930000D01*
X41793223Y24930000D01*
X41100339Y25622885D01*
X40946701Y25518961D01*
X40851463Y25308009D01*
X40799209Y25082530D01*
X40791949Y24851189D01*
X40602340Y24851189D01*
X40605050Y25045215D01*
X40560293Y25271256D01*
X40472483Y25484298D01*
X40344965Y25676228D01*
X40222391Y25799661D01*
X41277115Y25799661D01*
X41970000Y25106777D01*
X42662885Y25799661D01*
X42558961Y25953299D01*
X42348009Y26048537D01*
X42122530Y26100791D01*
X41891189Y26108051D01*
X41662877Y26070040D01*
X41446368Y25988218D01*
X41381039Y25953299D01*
X41277115Y25799661D01*
X40222391Y25799661D01*
X40182597Y25839733D01*
X39991562Y25968588D01*
X39779138Y26057883D01*
X39553415Y26104217D01*
X39322991Y26105826D01*
X39096644Y26062648D01*
X38882993Y25976327D01*
X38690178Y25850153D01*
X38525543Y25688930D01*
X38395358Y25498799D01*
X38304582Y25287004D01*
X38256673Y25061610D01*
X38253456Y24831203D01*
X38295053Y24604559D01*
X38379879Y24390311D01*
X38504705Y24196620D01*
X38664775Y24030863D01*
X38853991Y23899354D01*
X39005000Y23833380D01*
X39005000Y22206041D01*
X37273065Y20474105D01*
X37270898Y20474550D01*
X37138527Y20475475D01*
X37008497Y20450670D01*
X36885762Y20401082D01*
X36774996Y20328598D01*
X36680418Y20235981D01*
X36605631Y20126757D01*
X36553483Y20005087D01*
X36525961Y19875606D01*
X36524113Y19743244D01*
X36548009Y19613045D01*
X36596739Y19489966D01*
X36668447Y19378697D01*
X36760402Y19283474D01*
X36869101Y19207927D01*
X36944468Y19175000D01*
X36579594Y19175000D01*
X34475000Y21279594D01*
X34475000Y22320406D01*
X35470627Y23316033D01*
X35513444Y23356807D01*
X35589749Y23464976D01*
X35643590Y23585906D01*
X35672918Y23714991D01*
X35673925Y23787108D01*
X35674995Y23797644D01*
X35674191Y23806152D01*
X35675029Y23866187D01*
X35649317Y23996040D01*
X35598873Y24118427D01*
X35525618Y24228684D01*
X35432343Y24322613D01*
X35322600Y24396636D01*
X35200569Y24447933D01*
X35070898Y24474550D01*
X34938527Y24475475D01*
X34808497Y24450670D01*
X34685762Y24401082D01*
X34574996Y24328598D01*
X34480418Y24235981D01*
X34478314Y24232908D01*
X33322703Y23077297D01*
X33283130Y23029121D01*
X33243048Y22981353D01*
X33241339Y22978243D01*
X33239085Y22975500D01*
X33209593Y22920498D01*
X33179584Y22865911D01*
X33178512Y22862533D01*
X33176832Y22859399D01*
X33158588Y22799725D01*
X33139750Y22740340D01*
X33139354Y22736812D01*
X33138317Y22733419D01*
X33132016Y22671385D01*
X33125066Y22609424D01*
X33125017Y22602488D01*
X33125004Y22602356D01*
X33125016Y22602233D01*
X33125000Y22600000D01*
X33125000Y21675000D01*
X26606501Y21675000D01*
X26538527Y21675475D01*
X26536037Y21675000D01*
X19479594Y21675000D01*
X18138966Y23015628D01*
X18217582Y23065519D01*
X18313444Y23156807D01*
X18389749Y23264976D01*
X18443590Y23385906D01*
X18472918Y23514991D01*
X18473894Y23584921D01*
X18474984Y23595288D01*
X18474165Y23604289D01*
X18475029Y23666187D01*
X18449317Y23796040D01*
X18398873Y23918427D01*
X18325618Y24028684D01*
X18232343Y24122613D01*
X18122600Y24196636D01*
X18000569Y24247933D01*
X17870898Y24274550D01*
X17738527Y24275475D01*
X17736037Y24275000D01*
X16806501Y24275000D01*
X16738527Y24275475D01*
X16608497Y24250670D01*
X16485762Y24201082D01*
X16374996Y24128598D01*
X16280418Y24035981D01*
X16205631Y23926757D01*
X16153483Y23805087D01*
X16125961Y23675606D01*
X16124113Y23543244D01*
X15725000Y23543244D01*
X15725000Y27343244D01*
X24724113Y27343244D01*
X24748009Y27213045D01*
X24796739Y27089966D01*
X24868447Y26978697D01*
X24960402Y26883474D01*
X25069101Y26807927D01*
X25190404Y26754931D01*
X25319691Y26726505D01*
X25452036Y26723733D01*
X25582399Y26746720D01*
X25705815Y26794589D01*
X25817582Y26865519D01*
X25913444Y26956807D01*
X25926278Y26975000D01*
X34400000Y26975000D01*
X34439091Y26978833D01*
X34478179Y26982253D01*
X34480322Y26982876D01*
X34482550Y26983094D01*
X34520131Y26994441D01*
X34557832Y27005393D01*
X34559820Y27006423D01*
X34561955Y27007068D01*
X34596587Y27025482D01*
X34631472Y27043565D01*
X34633218Y27044959D01*
X34635191Y27046008D01*
X34665636Y27070838D01*
X34696295Y27095313D01*
X34699397Y27098373D01*
X34699470Y27098432D01*
X34699526Y27098499D01*
X34700520Y27099480D01*
X35500520Y27899480D01*
X35525424Y27929799D01*
X35550673Y27959889D01*
X35551749Y27961846D01*
X35553169Y27963575D01*
X35571711Y27998157D01*
X35590633Y28032575D01*
X35591310Y28034709D01*
X35592364Y28036675D01*
X35603828Y28074171D01*
X35615713Y28111638D01*
X35615962Y28113860D01*
X35616615Y28115995D01*
X35620581Y28155036D01*
X35624959Y28194066D01*
X35624989Y28198430D01*
X35624998Y28198517D01*
X35624990Y28198598D01*
X35625000Y28200000D01*
X35625000Y28472583D01*
X35713444Y28556807D01*
X35789749Y28664976D01*
X35843590Y28785906D01*
X35872918Y28914991D01*
X35875029Y29066187D01*
X35849317Y29196040D01*
X35798873Y29318427D01*
X35725618Y29428684D01*
X35632343Y29522613D01*
X35522600Y29596636D01*
X35400569Y29647933D01*
X35270898Y29674550D01*
X35138527Y29675475D01*
X35008497Y29650670D01*
X34885762Y29601082D01*
X34774996Y29528598D01*
X34680418Y29435981D01*
X34605631Y29326757D01*
X34553483Y29205087D01*
X34525961Y29075606D01*
X34524113Y28943244D01*
X34548009Y28813045D01*
X34596739Y28689966D01*
X34668447Y28578697D01*
X34760402Y28483474D01*
X34775000Y28473328D01*
X34775000Y28376040D01*
X34223960Y27825000D01*
X25928066Y27825000D01*
X25925618Y27828684D01*
X25832343Y27922613D01*
X25722600Y27996636D01*
X25600569Y28047933D01*
X25470898Y28074550D01*
X25338527Y28075475D01*
X25208497Y28050670D01*
X25085762Y28001082D01*
X24974996Y27928598D01*
X24880418Y27835981D01*
X24805631Y27726757D01*
X24753483Y27605087D01*
X24725961Y27475606D01*
X24724113Y27343244D01*
X15725000Y27343244D01*
X15725000Y28223960D01*
X16344284Y28843244D01*
X24724113Y28843244D01*
X24748009Y28713045D01*
X24796739Y28589966D01*
X24868447Y28478697D01*
X24960402Y28383474D01*
X25069101Y28307927D01*
X25190404Y28254931D01*
X25319691Y28226505D01*
X25452036Y28223733D01*
X25582399Y28246720D01*
X25705815Y28294589D01*
X25817582Y28365519D01*
X25913444Y28456807D01*
X25926278Y28475000D01*
X26200000Y28475000D01*
X26239091Y28478833D01*
X26278179Y28482253D01*
X26280322Y28482876D01*
X26282550Y28483094D01*
X26320131Y28494441D01*
X26357832Y28505393D01*
X26359820Y28506423D01*
X26361955Y28507068D01*
X26396587Y28525482D01*
X26431472Y28543565D01*
X26433218Y28544959D01*
X26435191Y28546008D01*
X26465636Y28570838D01*
X26496295Y28595313D01*
X26499397Y28598373D01*
X26499470Y28598432D01*
X26499526Y28598499D01*
X26500520Y28599480D01*
X26676040Y28775000D01*
X30400000Y28775000D01*
X30439091Y28778833D01*
X30478179Y28782253D01*
X30480322Y28782876D01*
X30482550Y28783094D01*
X30520131Y28794441D01*
X30557832Y28805393D01*
X30559820Y28806423D01*
X30561955Y28807068D01*
X30596587Y28825482D01*
X30631472Y28843565D01*
X30633218Y28844959D01*
X30635191Y28846008D01*
X30665636Y28870838D01*
X30696295Y28895313D01*
X30699397Y28898373D01*
X30699470Y28898432D01*
X30699526Y28898499D01*
X30700520Y28899480D01*
X31776041Y29975000D01*
X36323960Y29975000D01*
X36575000Y29723959D01*
X36575000Y29528601D01*
X36574996Y29528598D01*
X36480418Y29435981D01*
X36405631Y29326757D01*
X36353483Y29205087D01*
X36325961Y29075606D01*
X36324113Y28943244D01*
X36348009Y28813045D01*
X36396739Y28689966D01*
X36468447Y28578697D01*
X36560402Y28483474D01*
X36669101Y28407927D01*
X36790404Y28354931D01*
X36919691Y28326505D01*
X37052036Y28323733D01*
X37182399Y28346720D01*
X37305815Y28394589D01*
X37417582Y28465519D01*
X37513444Y28556807D01*
X37589749Y28664976D01*
X37643590Y28785906D01*
X37672918Y28914991D01*
X37675029Y29066187D01*
X37649317Y29196040D01*
X37598873Y29318427D01*
X37525618Y29428684D01*
X37432343Y29522613D01*
X37425000Y29527566D01*
X37425000Y29900000D01*
X37421172Y29939041D01*
X37417748Y29978179D01*
X37417124Y29980327D01*
X37416906Y29982550D01*
X37405572Y30020090D01*
X37394607Y30057832D01*
X37393577Y30059820D01*
X37392932Y30061955D01*
X37374518Y30096587D01*
X37356435Y30131472D01*
X37355041Y30133219D01*
X37353992Y30135191D01*
X37329187Y30165605D01*
X37304688Y30196295D01*
X37301623Y30199403D01*
X37301568Y30199470D01*
X37301506Y30199521D01*
X37300521Y30200520D01*
X36800520Y30700520D01*
X36770201Y30725424D01*
X36740111Y30750673D01*
X36738154Y30751749D01*
X36736425Y30753169D01*
X36701843Y30771711D01*
X36667425Y30790633D01*
X36665291Y30791310D01*
X36663325Y30792364D01*
X36625829Y30803828D01*
X36588362Y30815713D01*
X36586140Y30815962D01*
X36584005Y30816615D01*
X36544959Y30820581D01*
X36505934Y30824959D01*
X36501571Y30824989D01*
X36501484Y30824998D01*
X36501403Y30824990D01*
X36500000Y30825000D01*
X31600000Y30825000D01*
X31560913Y30821168D01*
X31521821Y30817747D01*
X31519678Y30817124D01*
X31517450Y30816906D01*
X31479822Y30805545D01*
X31442168Y30794606D01*
X31440185Y30793578D01*
X31438045Y30792932D01*
X31403378Y30774499D01*
X31368528Y30756435D01*
X31366781Y30755041D01*
X31364809Y30753992D01*
X31334388Y30729182D01*
X31303704Y30704687D01*
X31300597Y30701623D01*
X31300530Y30701568D01*
X31300479Y30701506D01*
X31299479Y30700520D01*
X30223960Y29625000D01*
X26500000Y29625000D01*
X26460913Y29621168D01*
X26421821Y29617747D01*
X26419678Y29617124D01*
X26417450Y29616906D01*
X26379869Y29605559D01*
X26342168Y29594607D01*
X26340180Y29593577D01*
X26338045Y29592932D01*
X26303413Y29574518D01*
X26268528Y29556435D01*
X26266782Y29555041D01*
X26264809Y29553992D01*
X26234364Y29529162D01*
X26203705Y29504687D01*
X26200603Y29501627D01*
X26200530Y29501568D01*
X26200474Y29501501D01*
X26199480Y29500520D01*
X26023960Y29325000D01*
X25928066Y29325000D01*
X25925618Y29328684D01*
X25832343Y29422613D01*
X25722600Y29496636D01*
X25600569Y29547933D01*
X25470898Y29574550D01*
X25338527Y29575475D01*
X25208497Y29550670D01*
X25085762Y29501082D01*
X24974996Y29428598D01*
X24880418Y29335981D01*
X24805631Y29226757D01*
X24753483Y29105087D01*
X24725961Y28975606D01*
X24724113Y28843244D01*
X16344284Y28843244D01*
X17844284Y30343244D01*
X24724113Y30343244D01*
X24748009Y30213045D01*
X24796739Y30089966D01*
X24868447Y29978697D01*
X24960402Y29883474D01*
X25069101Y29807927D01*
X25190404Y29754931D01*
X25319691Y29726505D01*
X25452036Y29723733D01*
X25582399Y29746720D01*
X25705815Y29794589D01*
X25817582Y29865519D01*
X25913444Y29956807D01*
X25989749Y30064976D01*
X26043590Y30185906D01*
X26072918Y30314991D01*
X26075029Y30466187D01*
X26073740Y30472699D01*
X26936041Y31335000D01*
X38334471Y31335000D01*
X38379879Y31220311D01*
X38504705Y31026620D01*
X38664775Y30860863D01*
X38853991Y30729354D01*
X39005000Y30663380D01*
X39005000Y28565621D01*
X38882993Y28516327D01*
X38690178Y28390153D01*
X38525543Y28228930D01*
X38395358Y28038799D01*
X38304582Y27827004D01*
X38256673Y27601610D01*
X38253456Y27371203D01*
X38295053Y27144559D01*
X38379879Y26930311D01*
X38504705Y26736620D01*
X38664775Y26570863D01*
X38853991Y26439354D01*
X39065148Y26347102D01*
X39290202Y26297621D01*
X39520581Y26292795D01*
X39747510Y26332808D01*
X39962344Y26416137D01*
X40156902Y26539608D01*
X40220676Y26600339D01*
X41277115Y26600339D01*
X41381039Y26446701D01*
X41591991Y26351463D01*
X41817470Y26299209D01*
X42048811Y26291949D01*
X42277123Y26329960D01*
X42493632Y26411782D01*
X42558961Y26446701D01*
X42662885Y26600339D01*
X41970000Y27293223D01*
X41277115Y26600339D01*
X40220676Y26600339D01*
X40323773Y26698516D01*
X40456600Y26886810D01*
X40550324Y27097318D01*
X40601375Y27322021D01*
X40602340Y27391189D01*
X40791949Y27391189D01*
X40829960Y27162877D01*
X40911782Y26946368D01*
X40946701Y26881039D01*
X41100339Y26777115D01*
X41793223Y27470000D01*
X42146777Y27470000D01*
X42839661Y26777115D01*
X42993299Y26881039D01*
X43088537Y27091991D01*
X43140791Y27317470D01*
X43148051Y27548811D01*
X43110040Y27777123D01*
X43028218Y27993632D01*
X42993299Y28058961D01*
X42839661Y28162885D01*
X42146777Y27470000D01*
X41793223Y27470000D01*
X41100339Y28162885D01*
X40946701Y28058961D01*
X40851463Y27848009D01*
X40799209Y27622530D01*
X40791949Y27391189D01*
X40602340Y27391189D01*
X40605050Y27585215D01*
X40560293Y27811256D01*
X40472483Y28024298D01*
X40344965Y28216228D01*
X40222391Y28339661D01*
X41277115Y28339661D01*
X41970000Y27646777D01*
X42662885Y28339661D01*
X42558961Y28493299D01*
X42348009Y28588537D01*
X42122530Y28640791D01*
X41891189Y28648051D01*
X41662877Y28610040D01*
X41446368Y28528218D01*
X41381039Y28493299D01*
X41277115Y28339661D01*
X40222391Y28339661D01*
X40182597Y28379733D01*
X39991562Y28508588D01*
X39855000Y28565993D01*
X39855000Y30664501D01*
X39962344Y30706137D01*
X40156902Y30829608D01*
X40220676Y30890339D01*
X41277115Y30890339D01*
X41381039Y30736701D01*
X41591991Y30641463D01*
X41817470Y30589209D01*
X42048811Y30581949D01*
X42277123Y30619960D01*
X42493632Y30701782D01*
X42558961Y30736701D01*
X42662885Y30890339D01*
X41970000Y31583223D01*
X41277115Y30890339D01*
X40220676Y30890339D01*
X40323773Y30988516D01*
X40456600Y31176810D01*
X40550324Y31387318D01*
X40601375Y31612021D01*
X40602340Y31681189D01*
X40791949Y31681189D01*
X40829960Y31452877D01*
X40911782Y31236368D01*
X40946701Y31171039D01*
X41100339Y31067115D01*
X41793223Y31760000D01*
X42146777Y31760000D01*
X42839661Y31067115D01*
X42993299Y31171039D01*
X43088537Y31381991D01*
X43140791Y31607470D01*
X43148051Y31838811D01*
X43110040Y32067123D01*
X43028218Y32283632D01*
X42993299Y32348961D01*
X42839661Y32452885D01*
X42146777Y31760000D01*
X41793223Y31760000D01*
X41100339Y32452885D01*
X40946701Y32348961D01*
X40851463Y32138009D01*
X40799209Y31912530D01*
X40791949Y31681189D01*
X40602340Y31681189D01*
X40605050Y31875215D01*
X40560293Y32101256D01*
X40472483Y32314298D01*
X40344965Y32506228D01*
X40222391Y32629661D01*
X41277115Y32629661D01*
X41970000Y31936777D01*
X42662885Y32629661D01*
X42558961Y32783299D01*
X42348009Y32878537D01*
X42122530Y32930791D01*
X41891189Y32938051D01*
X41662877Y32900040D01*
X41446368Y32818218D01*
X41381039Y32783299D01*
X41277115Y32629661D01*
X40222391Y32629661D01*
X40182597Y32669733D01*
X39991562Y32798588D01*
X39779138Y32887883D01*
X39553415Y32934217D01*
X39322991Y32935826D01*
X39096644Y32892648D01*
X38882993Y32806327D01*
X38690178Y32680153D01*
X38525543Y32518930D01*
X38395358Y32328799D01*
X38333725Y32185000D01*
X26760000Y32185000D01*
X26720913Y32181168D01*
X26681821Y32177747D01*
X26679678Y32177124D01*
X26677450Y32176906D01*
X26639822Y32165545D01*
X26602168Y32154606D01*
X26600185Y32153578D01*
X26598045Y32152932D01*
X26563378Y32134499D01*
X26528528Y32116435D01*
X26526781Y32115041D01*
X26524809Y32113992D01*
X26494388Y32089182D01*
X26463704Y32064687D01*
X26460597Y32061623D01*
X26460530Y32061568D01*
X26460479Y32061506D01*
X26459479Y32060520D01*
X25473065Y31074105D01*
X25470898Y31074550D01*
X25338527Y31075475D01*
X25208497Y31050670D01*
X25085762Y31001082D01*
X24974996Y30928598D01*
X24880418Y30835981D01*
X24805631Y30726757D01*
X24753483Y30605087D01*
X24725961Y30475606D01*
X24724113Y30343244D01*
X17844284Y30343244D01*
X22427385Y34926344D01*
X22552036Y34923733D01*
X22682399Y34946720D01*
X22805815Y34994589D01*
X22917582Y35065519D01*
X23013444Y35156807D01*
X23089749Y35264976D01*
X23143590Y35385906D01*
X23172918Y35514991D01*
X23175029Y35666187D01*
X23149317Y35796040D01*
X23098873Y35918427D01*
X23025618Y36028684D01*
X22932343Y36122613D01*
X22822600Y36196636D01*
X22700569Y36247933D01*
X22570898Y36274550D01*
X22438527Y36275475D01*
X22308497Y36250670D01*
X22213214Y36212173D01*
X22376041Y36375000D01*
X23372017Y36375000D01*
X23460402Y36283474D01*
X23569101Y36207927D01*
X23690404Y36154931D01*
X23819691Y36126505D01*
X23952036Y36123733D01*
X24082399Y36146720D01*
X24205815Y36194589D01*
X24317582Y36265519D01*
X24413444Y36356807D01*
X24489749Y36464976D01*
X24543590Y36585906D01*
X24572918Y36714991D01*
X24575029Y36866187D01*
X24549317Y36996040D01*
X24498873Y37118427D01*
X24425618Y37228684D01*
X24332343Y37322613D01*
X24222600Y37396636D01*
X24100569Y37447933D01*
X23970898Y37474550D01*
X23838527Y37475475D01*
X23708497Y37450670D01*
X23585762Y37401082D01*
X23474996Y37328598D01*
X23380418Y37235981D01*
X23372899Y37225000D01*
X22200000Y37225000D01*
X22160868Y37221163D01*
X22121821Y37217747D01*
X22119678Y37217124D01*
X22117450Y37216906D01*
X22079822Y37205545D01*
X22042168Y37194606D01*
X22040185Y37193578D01*
X22038045Y37192932D01*
X22003378Y37174499D01*
X21968528Y37156435D01*
X21966781Y37155041D01*
X21964809Y37153992D01*
X21934388Y37129182D01*
X21903704Y37104687D01*
X21900597Y37101623D01*
X21900530Y37101568D01*
X21900479Y37101506D01*
X21899479Y37100520D01*
X21199480Y36400520D01*
X21174576Y36370201D01*
X21149327Y36340111D01*
X21148251Y36338154D01*
X21146831Y36336425D01*
X21128289Y36301843D01*
X21109367Y36267425D01*
X21108690Y36265291D01*
X21107636Y36263325D01*
X21096172Y36225829D01*
X21084287Y36188362D01*
X21084038Y36186140D01*
X21083385Y36184005D01*
X21079419Y36144959D01*
X21075041Y36105934D01*
X21075011Y36101571D01*
X21075002Y36101484D01*
X21075010Y36101403D01*
X21075000Y36100000D01*
X21075000Y35676041D01*
X14399480Y29000520D01*
X14374576Y28970201D01*
X14349327Y28940111D01*
X14348251Y28938154D01*
X14346831Y28936425D01*
X14328289Y28901843D01*
X14309367Y28867425D01*
X14308690Y28865291D01*
X14307636Y28863325D01*
X14296172Y28825829D01*
X14284287Y28788362D01*
X14284038Y28786140D01*
X14283385Y28784005D01*
X14279419Y28744959D01*
X14275041Y28705934D01*
X14275011Y28701571D01*
X14275002Y28701484D01*
X14275010Y28701403D01*
X14275000Y28700000D01*
X14275000Y22500000D01*
X14278833Y22460909D01*
X14282253Y22421821D01*
X14282876Y22419678D01*
X14283094Y22417450D01*
X14294441Y22379869D01*
X14305393Y22342168D01*
X14306423Y22340180D01*
X14307068Y22338045D01*
X14325482Y22303413D01*
X14343565Y22268528D01*
X14344959Y22266782D01*
X14346008Y22264809D01*
X14370838Y22234364D01*
X14395313Y22203705D01*
X14398373Y22200603D01*
X14398432Y22200530D01*
X14398499Y22200474D01*
X14399480Y22199480D01*
X17147984Y19450975D01*
X16828014Y19717617D01*
X16815417Y19726111D01*
X16255417Y20026111D01*
X16241551Y20031837D01*
X15641551Y20211837D01*
X15627224Y20214651D01*
X15007224Y20274651D01*
X14992776Y20274651D01*
X14372776Y20214651D01*
X14358449Y20211837D01*
X13758449Y20031837D01*
X13744583Y20026111D01*
X13184583Y19726111D01*
X13171986Y19717617D01*
X12691986Y19317617D01*
X12682383Y19308014D01*
X12282383Y18828014D01*
X12273889Y18815417D01*
X11973889Y18255417D01*
X11968163Y18241551D01*
X11788163Y17641551D01*
X11785349Y17627224D01*
X11725349Y17007224D01*
X11725349Y16992776D01*
X11785349Y16372776D01*
X11788163Y16358449D01*
X11968163Y15758449D01*
X11973889Y15744583D01*
X12273889Y15184583D01*
X12282383Y15171986D01*
X12682383Y14691986D01*
X12691986Y14682383D01*
X13171986Y14282383D01*
X13184583Y14273889D01*
X13744583Y13973889D01*
X13758449Y13968163D01*
X14235659Y13825000D01*
X13000000Y13825000D01*
X12960913Y13821168D01*
X12921821Y13817747D01*
X12919678Y13817124D01*
X12917450Y13816906D01*
X12879822Y13805545D01*
X12842168Y13794606D01*
X12840185Y13793578D01*
X12838045Y13792932D01*
X12803378Y13774499D01*
X12768528Y13756435D01*
X12766781Y13755041D01*
X12764809Y13753992D01*
X12734388Y13729182D01*
X12703704Y13704687D01*
X12700597Y13701623D01*
X12700530Y13701568D01*
X12700479Y13701506D01*
X12699479Y13700520D01*
X11573065Y12574105D01*
X11570898Y12574550D01*
X11438527Y12575475D01*
X11308497Y12550670D01*
X11185762Y12501082D01*
X11074996Y12428598D01*
X10980418Y12335981D01*
X10905631Y12226757D01*
X10853483Y12105087D01*
X10825961Y11975606D01*
X10824113Y11843244D01*
X10826918Y11827959D01*
X7899480Y8900520D01*
X7874576Y8870201D01*
X7849327Y8840111D01*
X7848251Y8838154D01*
X7846831Y8836425D01*
X7828289Y8801843D01*
X7809367Y8767425D01*
X7808690Y8765291D01*
X7807636Y8763325D01*
X7796172Y8725829D01*
X7784287Y8688362D01*
X7784038Y8686140D01*
X7783385Y8684005D01*
X7779422Y8644994D01*
X7775041Y8605934D01*
X7775011Y8601571D01*
X7775002Y8601484D01*
X7775010Y8601403D01*
X7775000Y8600000D01*
X7775000Y6686814D01*
X5911200Y6686814D01*
X5851483Y6682052D01*
X5750196Y6650685D01*
X5661657Y6592343D01*
X5592878Y6511643D01*
X5549304Y6414978D01*
X5534386Y6310000D01*
X4866200Y6310000D01*
X4866200Y6346935D01*
X4851789Y6419384D01*
X4823521Y6487629D01*
X4782481Y6549049D01*
X4730248Y6601282D01*
X4668829Y6642321D01*
X4600583Y6670589D01*
X4528134Y6685000D01*
X3439950Y6685000D01*
X3346200Y6591250D01*
X3096200Y6591250D01*
X3002450Y6685000D01*
X1914266Y6685000D01*
X1841817Y6670589D01*
X1773571Y6642321D01*
X1712152Y6601282D01*
X1659919Y6549049D01*
X1618879Y6487629D01*
X1590611Y6419384D01*
X1576200Y6346935D01*
X325000Y6346935D01*
X325000Y10807069D01*
X11155627Y16714684D01*
X11166408Y16722014D01*
X11177958Y16728052D01*
X11192574Y16739803D01*
X11208081Y16750346D01*
X11217228Y16759625D01*
X11227391Y16767796D01*
X11239448Y16782165D01*
X11252610Y16795517D01*
X11259783Y16806400D01*
X11268162Y16816386D01*
X11277198Y16832822D01*
X11287516Y16848477D01*
X11292437Y16860543D01*
X11298719Y16871969D01*
X11304392Y16889851D01*
X11311471Y16907208D01*
X11313955Y16919999D01*
X11317898Y16932429D01*
X11319988Y16951067D01*
X11323563Y16969473D01*
X11323515Y16982510D01*
X11324968Y16995462D01*
X11325000Y17000000D01*
X11325000Y21000000D01*
X11322015Y21030441D01*
X11319243Y21060899D01*
X11318921Y21061993D01*
X11318810Y21063126D01*
X11309985Y21092354D01*
X11301335Y21121747D01*
X11300806Y21122760D01*
X11300477Y21123848D01*
X11286137Y21150817D01*
X11271948Y21177958D01*
X11271234Y21178847D01*
X11270699Y21179852D01*
X11251421Y21203489D01*
X11232204Y21227391D01*
X11231327Y21228127D01*
X11230610Y21229006D01*
X11207090Y21248464D01*
X11183614Y21268162D01*
X11182616Y21268711D01*
X11181738Y21269437D01*
X11154793Y21284006D01*
X11128031Y21298719D01*
X11126948Y21299062D01*
X11125943Y21299606D01*
X11096682Y21308664D01*
X11067571Y21317898D01*
X11066439Y21318025D01*
X11065350Y21318362D01*
X11034915Y21321561D01*
X11004538Y21324968D01*
X11002351Y21324983D01*
X11002269Y21324992D01*
X11002187Y21324985D01*
X11000000Y21325000D01*
X5515896Y21325000D01*
X5272078Y21348906D01*
X5052834Y21415100D01*
X4850630Y21522614D01*
X4673153Y21667361D01*
X4527170Y21843824D01*
X4418247Y22045273D01*
X4350526Y22264042D01*
X4325000Y22506915D01*
X4325000Y23132330D01*
X4368373Y23132330D01*
X4386945Y22928250D01*
X4444804Y22731663D01*
X4539744Y22550059D01*
X4668151Y22390353D01*
X4825132Y22258631D01*
X5004708Y22159908D01*
X5200040Y22097945D01*
X5403687Y22075102D01*
X5418347Y22075000D01*
X6081653Y22075000D01*
X6285599Y22094997D01*
X6481777Y22154227D01*
X6661900Y22250000D01*
X8878990Y22250000D01*
X9039644Y22199038D01*
X9252989Y22175107D01*
X9268347Y22175000D01*
X9831653Y22175000D01*
X10045311Y22195949D01*
X10250830Y22257999D01*
X10440384Y22358787D01*
X10606751Y22494472D01*
X10743594Y22659888D01*
X10845702Y22848733D01*
X10909186Y23053814D01*
X10931626Y23267321D01*
X10912169Y23481119D01*
X10851555Y23687067D01*
X10752094Y23877320D01*
X10617573Y24044630D01*
X10453117Y24182625D01*
X10264989Y24286049D01*
X10060356Y24350962D01*
X9847011Y24374893D01*
X9831653Y24375000D01*
X9268347Y24375000D01*
X9161451Y24364519D01*
X9172918Y24414991D01*
X9175029Y24566187D01*
X9149317Y24696040D01*
X9098873Y24818427D01*
X9025618Y24928684D01*
X8932343Y25022613D01*
X8822600Y25096636D01*
X8700569Y25147933D01*
X8570898Y25174550D01*
X8438527Y25175475D01*
X8308497Y25150670D01*
X8185762Y25101082D01*
X8074996Y25028598D01*
X7980418Y24935981D01*
X7905631Y24826757D01*
X7853483Y24705087D01*
X7825961Y24575606D01*
X7824113Y24443244D01*
X7848009Y24313045D01*
X7896739Y24189966D01*
X7968447Y24078697D01*
X8044443Y24000000D01*
X6659168Y24000000D01*
X6495292Y24090092D01*
X6299960Y24152055D01*
X6096313Y24174898D01*
X6081653Y24175000D01*
X5418347Y24175000D01*
X5214401Y24155003D01*
X5018223Y24095773D01*
X4837286Y23999567D01*
X4678481Y23870049D01*
X4547858Y23712153D01*
X4450391Y23531891D01*
X4389793Y23336132D01*
X4368373Y23132330D01*
X4325000Y23132330D01*
X4325000Y30882330D01*
X4368373Y30882330D01*
X4386945Y30678250D01*
X4444804Y30481663D01*
X4539744Y30300059D01*
X4668151Y30140353D01*
X4825132Y30008631D01*
X5004708Y29909908D01*
X5200040Y29847945D01*
X5403687Y29825102D01*
X5418347Y29825000D01*
X6081653Y29825000D01*
X6285599Y29844997D01*
X6481777Y29904227D01*
X6661900Y30000000D01*
X8045792Y30000000D01*
X7980418Y29935981D01*
X7905631Y29826757D01*
X7853483Y29705087D01*
X7825961Y29575606D01*
X7824113Y29443244D01*
X7848009Y29313045D01*
X7896739Y29189966D01*
X7968447Y29078697D01*
X8060402Y28983474D01*
X8169101Y28907927D01*
X8290404Y28854931D01*
X8419691Y28826505D01*
X8552036Y28823733D01*
X8682399Y28846720D01*
X8805815Y28894589D01*
X8917582Y28965519D01*
X9013444Y29056807D01*
X9089749Y29164976D01*
X9143590Y29285906D01*
X9172918Y29414991D01*
X9175029Y29566187D01*
X9161326Y29635389D01*
X9252989Y29625107D01*
X9268347Y29625000D01*
X9831653Y29625000D01*
X10045311Y29645949D01*
X10250830Y29707999D01*
X10440384Y29808787D01*
X10606751Y29944472D01*
X10743594Y30109888D01*
X10845702Y30298733D01*
X10909186Y30503814D01*
X10931626Y30717321D01*
X10912169Y30931119D01*
X10851555Y31137067D01*
X10752094Y31327320D01*
X10617573Y31494630D01*
X10453117Y31632625D01*
X10264989Y31736049D01*
X10060356Y31800962D01*
X9847011Y31824893D01*
X9831653Y31825000D01*
X9268347Y31825000D01*
X9054689Y31804051D01*
X8875664Y31750000D01*
X6659168Y31750000D01*
X6495292Y31840092D01*
X6299960Y31902055D01*
X6096313Y31924898D01*
X6081653Y31925000D01*
X5418347Y31925000D01*
X5214401Y31905003D01*
X5018223Y31845773D01*
X4837286Y31749567D01*
X4678481Y31620049D01*
X4547858Y31462153D01*
X4450391Y31281891D01*
X4389793Y31086132D01*
X4368373Y30882330D01*
X4325000Y30882330D01*
X4325000Y31484104D01*
X4348906Y31727922D01*
X4415100Y31947165D01*
X4522614Y32149370D01*
X4667361Y32326847D01*
X4843824Y32472829D01*
X5045276Y32581754D01*
X5264047Y32649474D01*
X5506915Y32675000D01*
X11000000Y32675000D01*
X11030441Y32677985D01*
X11060899Y32680757D01*
X11061993Y32681079D01*
X11063126Y32681190D01*
X11092354Y32690015D01*
X11121747Y32698665D01*
X11122760Y32699194D01*
X11123848Y32699523D01*
X11150817Y32713863D01*
X11177958Y32728052D01*
X11178847Y32728766D01*
X11179852Y32729301D01*
X11203489Y32748579D01*
X11227391Y32767796D01*
X11228127Y32768673D01*
X11229006Y32769390D01*
X11248464Y32792910D01*
X11268162Y32816386D01*
X11268711Y32817384D01*
X11269437Y32818262D01*
X11284006Y32845207D01*
X11298719Y32871969D01*
X11299062Y32873052D01*
X11299606Y32874057D01*
X11308664Y32903318D01*
X11317898Y32932429D01*
X11318025Y32933561D01*
X11318362Y32934650D01*
X11321561Y32965085D01*
X11324968Y32995462D01*
X11324983Y32997649D01*
X11324992Y32997731D01*
X11324985Y32997813D01*
X11325000Y33000000D01*
X11325000Y38675000D01*
X12198666Y38675000D01*
X11973889Y38255417D01*
M02*
