G04 #@! TF.FileFunction,Legend,Top*
%FSLAX46Y46*%
G04 Gerber Fmt 4.6, Leading zero omitted, Abs format (unit mm)*
G04 Created by KiCad (PCBNEW 4.0.5) date 02/05/17 15:08:45*
%MOMM*%
%LPD*%
G01*
G04 APERTURE LIST*
%ADD10C,0.100000*%
%ADD11C,0.400000*%
%ADD12C,0.300000*%
%ADD13C,0.200000*%
%ADD14C,0.150000*%
%ADD15R,2.620000X5.160000*%
%ADD16C,3.080000*%
%ADD17R,0.680000X0.980000*%
%ADD18R,0.980000X0.680000*%
%ADD19R,1.080000X1.080000*%
%ADD20C,1.880000*%
%ADD21R,0.630000X1.580000*%
%ADD22R,1.580000X0.630000*%
%ADD23R,1.180000X1.080000*%
%ADD24R,1.080000X1.180000*%
%ADD25R,1.580000X1.380000*%
%ADD26R,0.580000X0.980000*%
%ADD27R,2.080000X0.680000*%
%ADD28R,2.080000X0.530000*%
%ADD29C,0.880000*%
%ADD30O,2.280000X1.730000*%
%ADD31O,2.280000X1.630000*%
%ADD32R,0.680000X1.280000*%
%ADD33R,2.080000X2.480000*%
G04 APERTURE END LIST*
D10*
D11*
X21900000Y23600000D02*
G75*
G03X21900000Y23600000I-200000J0D01*
G01*
D10*
X4000000Y22500000D02*
G75*
G03X5500000Y21000000I1500000J0D01*
G01*
X5500000Y33000000D02*
G75*
G03X4000000Y31500000I0J-1500000D01*
G01*
D12*
X4471428Y12395238D02*
X5614285Y12395238D01*
X5042857Y10395238D02*
X5042857Y12395238D01*
X6280952Y10395238D02*
X6280952Y12395238D01*
X6280952Y11442857D02*
X7423810Y11442857D01*
X7423810Y10395238D02*
X7423810Y12395238D01*
X8376190Y10395238D02*
X8376190Y12395238D01*
X9233333Y10490476D02*
X9519048Y10395238D01*
X9995238Y10395238D01*
X10185714Y10490476D01*
X10280952Y10585714D01*
X10376191Y10776190D01*
X10376191Y10966667D01*
X10280952Y11157143D01*
X10185714Y11252381D01*
X9995238Y11347619D01*
X9614286Y11442857D01*
X9423810Y11538095D01*
X9328571Y11633333D01*
X9233333Y11823810D01*
X9233333Y12014286D01*
X9328571Y12204762D01*
X9423810Y12300000D01*
X9614286Y12395238D01*
X10090476Y12395238D01*
X10376191Y12300000D01*
X12661905Y10490476D02*
X12947620Y10395238D01*
X13423810Y10395238D01*
X13614286Y10490476D01*
X13709524Y10585714D01*
X13804763Y10776190D01*
X13804763Y10966667D01*
X13709524Y11157143D01*
X13614286Y11252381D01*
X13423810Y11347619D01*
X13042858Y11442857D01*
X12852382Y11538095D01*
X12757143Y11633333D01*
X12661905Y11823810D01*
X12661905Y12014286D01*
X12757143Y12204762D01*
X12852382Y12300000D01*
X13042858Y12395238D01*
X13519048Y12395238D01*
X13804763Y12300000D01*
X14661905Y10395238D02*
X14661905Y12395238D01*
X15614286Y10395238D02*
X15614286Y12395238D01*
X16090477Y12395238D01*
X16376191Y12300000D01*
X16566667Y12109524D01*
X16661906Y11919048D01*
X16757144Y11538095D01*
X16757144Y11252381D01*
X16661906Y10871429D01*
X16566667Y10680952D01*
X16376191Y10490476D01*
X16090477Y10395238D01*
X15614286Y10395238D01*
X17614286Y11442857D02*
X18280953Y11442857D01*
X18566667Y10395238D02*
X17614286Y10395238D01*
X17614286Y12395238D01*
X18566667Y12395238D01*
X20947620Y12395238D02*
X20947620Y10776190D01*
X21042859Y10585714D01*
X21138097Y10490476D01*
X21328573Y10395238D01*
X21709525Y10395238D01*
X21900001Y10490476D01*
X21995240Y10585714D01*
X22090478Y10776190D01*
X22090478Y12395238D01*
X23042858Y10395238D02*
X23042858Y12395238D01*
X23804763Y12395238D01*
X23995239Y12300000D01*
X24090478Y12204762D01*
X24185716Y12014286D01*
X24185716Y11728571D01*
X24090478Y11538095D01*
X23995239Y11442857D01*
X23804763Y11347619D01*
X23042858Y11347619D01*
X25042858Y10585714D02*
X25138097Y10490476D01*
X25042858Y10395238D01*
X24947620Y10490476D01*
X25042858Y10585714D01*
X25042858Y10395238D01*
X25042858Y11157143D02*
X24947620Y12300000D01*
X25042858Y12395238D01*
X25138097Y12300000D01*
X25042858Y11157143D01*
X25042858Y12395238D01*
D11*
X38230000Y28870000D02*
G75*
G03X38230000Y28870000I-200000J0D01*
G01*
X38230000Y38240000D02*
G75*
G03X38230000Y38240000I-200000J0D01*
G01*
D13*
X37342857Y24675000D02*
X36142857Y24825000D01*
X36142857Y25110715D01*
X36200000Y25275000D01*
X36314286Y25375000D01*
X36428571Y25417858D01*
X36657143Y25446429D01*
X36828571Y25425001D01*
X37057143Y25339286D01*
X37171429Y25267857D01*
X37285714Y25139286D01*
X37342857Y24960715D01*
X37342857Y24675000D01*
X36714286Y26353571D02*
X36714286Y25953571D01*
X37342857Y25875000D02*
X36142857Y26025000D01*
X36142857Y26596429D01*
X36142857Y27053571D02*
X37114286Y26932142D01*
X37228571Y26975000D01*
X37285714Y27025000D01*
X37342857Y27132143D01*
X37342857Y27360714D01*
X37285714Y27482143D01*
X37228571Y27546429D01*
X37114286Y27617857D01*
X36142857Y27739286D01*
X37342857Y32160714D02*
X36142857Y32310714D01*
X37285714Y32682143D02*
X37342857Y32846429D01*
X37342857Y33132143D01*
X37285714Y33253572D01*
X37228571Y33317858D01*
X37114286Y33389286D01*
X37000000Y33403572D01*
X36885714Y33360715D01*
X36828571Y33310715D01*
X36771429Y33203571D01*
X36714286Y32982143D01*
X36657143Y32875000D01*
X36600000Y32825000D01*
X36485714Y32782143D01*
X36371429Y32796428D01*
X36257143Y32867857D01*
X36200000Y32932143D01*
X36142857Y33053572D01*
X36142857Y33339286D01*
X36200000Y33503572D01*
X37342857Y33875000D02*
X36142857Y34025000D01*
X36142857Y34482143D01*
X36200000Y34589286D01*
X36257143Y34639286D01*
X36371429Y34682143D01*
X36542857Y34660715D01*
X36657143Y34589286D01*
X36714286Y34525000D01*
X36771429Y34403571D01*
X36771429Y33946428D01*
D14*
X47085715Y6747619D02*
X46514286Y6747619D01*
X46800000Y6747619D02*
X46800000Y7747619D01*
X46704762Y7604762D01*
X46609524Y7509524D01*
X46514286Y7461905D01*
X3009524Y6747619D02*
X2438095Y6747619D01*
X2723809Y6747619D02*
X2723809Y7747619D01*
X2628571Y7604762D01*
X2533333Y7509524D01*
X2438095Y7461905D01*
X3390476Y7652381D02*
X3438095Y7700000D01*
X3533333Y7747619D01*
X3771429Y7747619D01*
X3866667Y7700000D01*
X3914286Y7652381D01*
X3961905Y7557143D01*
X3961905Y7461905D01*
X3914286Y7319048D01*
X3342857Y6747619D01*
X3961905Y6747619D01*
D10*
X37300000Y39000000D02*
G75*
G03X32700000Y39000000I-2300000J-2000000D01*
G01*
X17300000Y39000000D02*
G75*
G03X12700000Y39000000I-2300000J-2000000D01*
G01*
X17300000Y39000000D02*
X32700000Y39000000D01*
X37300000Y39000000D02*
X44000000Y39000000D01*
X11000000Y39000000D02*
X12700000Y39000000D01*
X11000000Y39000000D02*
X11000000Y33000000D01*
X0Y11000000D02*
X11000000Y17000000D01*
X5500000Y33000000D02*
X11000000Y33000000D01*
X5500000Y21000000D02*
X11000000Y21000000D01*
X4000000Y31500000D02*
X4000000Y22500000D01*
X11000000Y21000000D02*
X11000000Y17000000D01*
X44000000Y39000000D02*
X44000000Y19000000D01*
X44000000Y19000000D02*
X50000000Y14500000D01*
X50000000Y0D02*
X50000000Y14500000D01*
X0Y0D02*
X0Y11000000D01*
X0Y0D02*
X50000000Y0D01*
D14*
X16800000Y26900000D02*
X16800000Y27900000D01*
X15000000Y26900000D02*
X15000000Y27900000D01*
X27700000Y35300000D02*
X28700000Y35300000D01*
X27700000Y37100000D02*
X28700000Y37100000D01*
D13*
X23400000Y20600000D02*
X23400000Y21400000D01*
X23400000Y18700000D02*
X23400000Y19500000D01*
X38160000Y25565000D02*
X38795000Y26200000D01*
X38795000Y26200000D02*
X38160000Y26835000D01*
X43240000Y26835000D02*
X42605000Y26200000D01*
X42605000Y28740000D02*
X43240000Y28105000D01*
X38160000Y28105000D02*
X38795000Y28740000D01*
X42605000Y26200000D02*
X43240000Y25565000D01*
X43240000Y25565000D02*
X43240000Y24295000D01*
X43240000Y24295000D02*
X42605000Y23660000D01*
X38795000Y23660000D02*
X38160000Y24295000D01*
X38160000Y24295000D02*
X38160000Y25565000D01*
X38160000Y26835000D02*
X38160000Y28105000D01*
X38795000Y28740000D02*
X42605000Y28740000D01*
X43240000Y28105000D02*
X43240000Y26835000D01*
X42605000Y26200000D02*
X38795000Y26200000D01*
X42605000Y23660000D02*
X38795000Y23660000D01*
X38160000Y32395000D02*
X38795000Y33030000D01*
X38160000Y31125000D02*
X38160000Y32395000D01*
X38795000Y30490000D02*
X38160000Y31125000D01*
X42605000Y30490000D02*
X38795000Y30490000D01*
X43240000Y31125000D02*
X42605000Y30490000D01*
X43240000Y32395000D02*
X43240000Y31125000D01*
X42605000Y33030000D02*
X43240000Y32395000D01*
X38160000Y34935000D02*
X38795000Y35570000D01*
X38795000Y35570000D02*
X38160000Y36205000D01*
X43240000Y36205000D02*
X42605000Y35570000D01*
X42605000Y38110000D02*
X43240000Y37475000D01*
X38160000Y37475000D02*
X38795000Y38110000D01*
X42605000Y35570000D02*
X43240000Y34935000D01*
X43240000Y34935000D02*
X43240000Y33665000D01*
X43240000Y33665000D02*
X42605000Y33030000D01*
X38795000Y33030000D02*
X38160000Y33665000D01*
X38160000Y33665000D02*
X38160000Y34935000D01*
X38160000Y36205000D02*
X38160000Y37475000D01*
X38795000Y38110000D02*
X42605000Y38110000D01*
X43240000Y37475000D02*
X43240000Y36205000D01*
X42605000Y35570000D02*
X38795000Y35570000D01*
X42605000Y33030000D02*
X38795000Y33030000D01*
X22400000Y24900000D02*
X22100000Y25200000D01*
X23116228Y25600000D02*
G75*
G03X23116228Y25600000I-316228J0D01*
G01*
X28700000Y24900000D02*
X22400000Y24900000D01*
X22100000Y31500000D02*
X28700000Y31500000D01*
X28700000Y24900000D02*
X28700000Y31500000D01*
X22100000Y25200000D02*
X22100000Y31500000D01*
X16000000Y31000000D02*
X16000000Y30200000D01*
X44800000Y8800000D02*
X44800000Y9600000D01*
X18400000Y22800000D02*
X19200000Y22800000D01*
X26200000Y19000000D02*
X27000000Y19000000D01*
X15400000Y22800000D02*
X16200000Y22800000D01*
X16000000Y32000000D02*
X16000000Y32800000D01*
X38600000Y19000000D02*
X39400000Y19000000D01*
X20031000Y34560000D02*
X18831000Y34560000D01*
D14*
X31400000Y18500000D02*
X31400000Y19500000D01*
X28200000Y18500000D02*
X28200000Y19500000D01*
X36000000Y18500000D02*
X36000000Y19500000D01*
X32800000Y18500000D02*
X32800000Y19500000D01*
D13*
X26500000Y13600000D02*
X26500000Y12800000D01*
X29500000Y13600000D02*
X29500000Y12800000D01*
X27100000Y12950000D02*
G75*
G03X27100000Y12950000I-100000J0D01*
G01*
X32000000Y13600000D02*
X32000000Y12800000D01*
X35000000Y13600000D02*
X35000000Y12800000D01*
X32600000Y12950000D02*
G75*
G03X32600000Y12950000I-100000J0D01*
G01*
X37500000Y13600000D02*
X37500000Y12800000D01*
X40500000Y13600000D02*
X40500000Y12800000D01*
X38100000Y12950000D02*
G75*
G03X38100000Y12950000I-100000J0D01*
G01*
X19800000Y17600000D02*
X24200000Y17600000D01*
X19800000Y14400000D02*
X24200000Y14400000D01*
X36000000Y30500000D02*
X36000000Y31300000D01*
D14*
X13833334Y24747619D02*
X13500000Y25223810D01*
X13261905Y24747619D02*
X13261905Y25747619D01*
X13642858Y25747619D01*
X13738096Y25700000D01*
X13785715Y25652381D01*
X13833334Y25557143D01*
X13833334Y25414286D01*
X13785715Y25319048D01*
X13738096Y25271429D01*
X13642858Y25223810D01*
X13261905Y25223810D01*
X14261905Y24747619D02*
X14261905Y25747619D01*
X14642858Y25747619D01*
X14738096Y25700000D01*
X14785715Y25652381D01*
X14833334Y25557143D01*
X14833334Y25414286D01*
X14785715Y25319048D01*
X14738096Y25271429D01*
X14642858Y25223810D01*
X14261905Y25223810D01*
X15690477Y25414286D02*
X15690477Y24747619D01*
X15452381Y25795238D02*
X15214286Y25080952D01*
X15833334Y25080952D01*
X27533334Y37447619D02*
X27200000Y37923810D01*
X26961905Y37447619D02*
X26961905Y38447619D01*
X27342858Y38447619D01*
X27438096Y38400000D01*
X27485715Y38352381D01*
X27533334Y38257143D01*
X27533334Y38114286D01*
X27485715Y38019048D01*
X27438096Y37971429D01*
X27342858Y37923810D01*
X26961905Y37923810D01*
X27961905Y37447619D02*
X27961905Y38447619D01*
X28342858Y38447619D01*
X28438096Y38400000D01*
X28485715Y38352381D01*
X28533334Y38257143D01*
X28533334Y38114286D01*
X28485715Y38019048D01*
X28438096Y37971429D01*
X28342858Y37923810D01*
X27961905Y37923810D01*
X28866667Y38447619D02*
X29485715Y38447619D01*
X29152381Y38066667D01*
X29295239Y38066667D01*
X29390477Y38019048D01*
X29438096Y37971429D01*
X29485715Y37876190D01*
X29485715Y37638095D01*
X29438096Y37542857D01*
X29390477Y37495238D01*
X29295239Y37447619D01*
X29009524Y37447619D01*
X28914286Y37495238D01*
X28866667Y37542857D01*
X20633334Y20642857D02*
X20585715Y20595238D01*
X20442858Y20547619D01*
X20347620Y20547619D01*
X20204762Y20595238D01*
X20109524Y20690476D01*
X20061905Y20785714D01*
X20014286Y20976190D01*
X20014286Y21119048D01*
X20061905Y21309524D01*
X20109524Y21404762D01*
X20204762Y21500000D01*
X20347620Y21547619D01*
X20442858Y21547619D01*
X20585715Y21500000D01*
X20633334Y21452381D01*
X20966667Y21547619D02*
X21633334Y21547619D01*
X21204762Y20547619D01*
X20633334Y18542857D02*
X20585715Y18495238D01*
X20442858Y18447619D01*
X20347620Y18447619D01*
X20204762Y18495238D01*
X20109524Y18590476D01*
X20061905Y18685714D01*
X20014286Y18876190D01*
X20014286Y19019048D01*
X20061905Y19209524D01*
X20109524Y19304762D01*
X20204762Y19400000D01*
X20347620Y19447619D01*
X20442858Y19447619D01*
X20585715Y19400000D01*
X20633334Y19352381D01*
X21204762Y19019048D02*
X21109524Y19066667D01*
X21061905Y19114286D01*
X21014286Y19209524D01*
X21014286Y19257143D01*
X21061905Y19352381D01*
X21109524Y19400000D01*
X21204762Y19447619D01*
X21395239Y19447619D01*
X21490477Y19400000D01*
X21538096Y19352381D01*
X21585715Y19257143D01*
X21585715Y19209524D01*
X21538096Y19114286D01*
X21490477Y19066667D01*
X21395239Y19019048D01*
X21204762Y19019048D01*
X21109524Y18971429D01*
X21061905Y18923810D01*
X21014286Y18828571D01*
X21014286Y18638095D01*
X21061905Y18542857D01*
X21109524Y18495238D01*
X21204762Y18447619D01*
X21395239Y18447619D01*
X21490477Y18495238D01*
X21538096Y18542857D01*
X21585715Y18638095D01*
X21585715Y18828571D01*
X21538096Y18923810D01*
X21490477Y18971429D01*
X21395239Y19019048D01*
X29823810Y32347619D02*
X29823810Y33347619D01*
X30871429Y32442857D02*
X30823810Y32395238D01*
X30680953Y32347619D01*
X30585715Y32347619D01*
X30442857Y32395238D01*
X30347619Y32490476D01*
X30300000Y32585714D01*
X30252381Y32776190D01*
X30252381Y32919048D01*
X30300000Y33109524D01*
X30347619Y33204762D01*
X30442857Y33300000D01*
X30585715Y33347619D01*
X30680953Y33347619D01*
X30823810Y33300000D01*
X30871429Y33252381D01*
X31823810Y32347619D02*
X31252381Y32347619D01*
X31538095Y32347619D02*
X31538095Y33347619D01*
X31442857Y33204762D01*
X31347619Y33109524D01*
X31252381Y33061905D01*
X13033334Y30242857D02*
X12985715Y30195238D01*
X12842858Y30147619D01*
X12747620Y30147619D01*
X12604762Y30195238D01*
X12509524Y30290476D01*
X12461905Y30385714D01*
X12414286Y30576190D01*
X12414286Y30719048D01*
X12461905Y30909524D01*
X12509524Y31004762D01*
X12604762Y31100000D01*
X12747620Y31147619D01*
X12842858Y31147619D01*
X12985715Y31100000D01*
X13033334Y31052381D01*
X13938096Y31147619D02*
X13461905Y31147619D01*
X13414286Y30671429D01*
X13461905Y30719048D01*
X13557143Y30766667D01*
X13795239Y30766667D01*
X13890477Y30719048D01*
X13938096Y30671429D01*
X13985715Y30576190D01*
X13985715Y30338095D01*
X13938096Y30242857D01*
X13890477Y30195238D01*
X13795239Y30147619D01*
X13557143Y30147619D01*
X13461905Y30195238D01*
X13414286Y30242857D01*
X45133334Y10366857D02*
X45085715Y10319238D01*
X44942858Y10271619D01*
X44847620Y10271619D01*
X44704762Y10319238D01*
X44609524Y10414476D01*
X44561905Y10509714D01*
X44514286Y10700190D01*
X44514286Y10843048D01*
X44561905Y11033524D01*
X44609524Y11128762D01*
X44704762Y11224000D01*
X44847620Y11271619D01*
X44942858Y11271619D01*
X45085715Y11224000D01*
X45133334Y11176381D01*
X45990477Y10938286D02*
X45990477Y10271619D01*
X45752381Y11319238D02*
X45514286Y10604952D01*
X46133334Y10604952D01*
X17633334Y19942857D02*
X17585715Y19895238D01*
X17442858Y19847619D01*
X17347620Y19847619D01*
X17204762Y19895238D01*
X17109524Y19990476D01*
X17061905Y20085714D01*
X17014286Y20276190D01*
X17014286Y20419048D01*
X17061905Y20609524D01*
X17109524Y20704762D01*
X17204762Y20800000D01*
X17347620Y20847619D01*
X17442858Y20847619D01*
X17585715Y20800000D01*
X17633334Y20752381D01*
X17966667Y20847619D02*
X18585715Y20847619D01*
X18252381Y20466667D01*
X18395239Y20466667D01*
X18490477Y20419048D01*
X18538096Y20371429D01*
X18585715Y20276190D01*
X18585715Y20038095D01*
X18538096Y19942857D01*
X18490477Y19895238D01*
X18395239Y19847619D01*
X18109524Y19847619D01*
X18014286Y19895238D01*
X17966667Y19942857D01*
X26433334Y16242857D02*
X26385715Y16195238D01*
X26242858Y16147619D01*
X26147620Y16147619D01*
X26004762Y16195238D01*
X25909524Y16290476D01*
X25861905Y16385714D01*
X25814286Y16576190D01*
X25814286Y16719048D01*
X25861905Y16909524D01*
X25909524Y17004762D01*
X26004762Y17100000D01*
X26147620Y17147619D01*
X26242858Y17147619D01*
X26385715Y17100000D01*
X26433334Y17052381D01*
X26814286Y17052381D02*
X26861905Y17100000D01*
X26957143Y17147619D01*
X27195239Y17147619D01*
X27290477Y17100000D01*
X27338096Y17052381D01*
X27385715Y16957143D01*
X27385715Y16861905D01*
X27338096Y16719048D01*
X26766667Y16147619D01*
X27385715Y16147619D01*
X13833334Y22242857D02*
X13785715Y22195238D01*
X13642858Y22147619D01*
X13547620Y22147619D01*
X13404762Y22195238D01*
X13309524Y22290476D01*
X13261905Y22385714D01*
X13214286Y22576190D01*
X13214286Y22719048D01*
X13261905Y22909524D01*
X13309524Y23004762D01*
X13404762Y23100000D01*
X13547620Y23147619D01*
X13642858Y23147619D01*
X13785715Y23100000D01*
X13833334Y23052381D01*
X14785715Y22147619D02*
X14214286Y22147619D01*
X14500000Y22147619D02*
X14500000Y23147619D01*
X14404762Y23004762D01*
X14309524Y22909524D01*
X14214286Y22861905D01*
X13033334Y31947619D02*
X12700000Y32423810D01*
X12461905Y31947619D02*
X12461905Y32947619D01*
X12842858Y32947619D01*
X12938096Y32900000D01*
X12985715Y32852381D01*
X13033334Y32757143D01*
X13033334Y32614286D01*
X12985715Y32519048D01*
X12938096Y32471429D01*
X12842858Y32423810D01*
X12461905Y32423810D01*
X13414286Y32852381D02*
X13461905Y32900000D01*
X13557143Y32947619D01*
X13795239Y32947619D01*
X13890477Y32900000D01*
X13938096Y32852381D01*
X13985715Y32757143D01*
X13985715Y32661905D01*
X13938096Y32519048D01*
X13366667Y31947619D01*
X13985715Y31947619D01*
X38833334Y20847619D02*
X38500000Y21323810D01*
X38261905Y20847619D02*
X38261905Y21847619D01*
X38642858Y21847619D01*
X38738096Y21800000D01*
X38785715Y21752381D01*
X38833334Y21657143D01*
X38833334Y21514286D01*
X38785715Y21419048D01*
X38738096Y21371429D01*
X38642858Y21323810D01*
X38261905Y21323810D01*
X39785715Y20847619D02*
X39214286Y20847619D01*
X39500000Y20847619D02*
X39500000Y21847619D01*
X39404762Y21704762D01*
X39309524Y21609524D01*
X39214286Y21561905D01*
X19264334Y36602857D02*
X19216715Y36555238D01*
X19073858Y36507619D01*
X18978620Y36507619D01*
X18835762Y36555238D01*
X18740524Y36650476D01*
X18692905Y36745714D01*
X18645286Y36936190D01*
X18645286Y37079048D01*
X18692905Y37269524D01*
X18740524Y37364762D01*
X18835762Y37460000D01*
X18978620Y37507619D01*
X19073858Y37507619D01*
X19216715Y37460000D01*
X19264334Y37412381D01*
X20121477Y37507619D02*
X19931000Y37507619D01*
X19835762Y37460000D01*
X19788143Y37412381D01*
X19692905Y37269524D01*
X19645286Y37079048D01*
X19645286Y36698095D01*
X19692905Y36602857D01*
X19740524Y36555238D01*
X19835762Y36507619D01*
X20026239Y36507619D01*
X20121477Y36555238D01*
X20169096Y36602857D01*
X20216715Y36698095D01*
X20216715Y36936190D01*
X20169096Y37031429D01*
X20121477Y37079048D01*
X20026239Y37126667D01*
X19835762Y37126667D01*
X19740524Y37079048D01*
X19692905Y37031429D01*
X19645286Y36936190D01*
X29133334Y20847619D02*
X28800000Y21323810D01*
X28561905Y20847619D02*
X28561905Y21847619D01*
X28942858Y21847619D01*
X29038096Y21800000D01*
X29085715Y21752381D01*
X29133334Y21657143D01*
X29133334Y21514286D01*
X29085715Y21419048D01*
X29038096Y21371429D01*
X28942858Y21323810D01*
X28561905Y21323810D01*
X29561905Y20847619D02*
X29561905Y21847619D01*
X29942858Y21847619D01*
X30038096Y21800000D01*
X30085715Y21752381D01*
X30133334Y21657143D01*
X30133334Y21514286D01*
X30085715Y21419048D01*
X30038096Y21371429D01*
X29942858Y21323810D01*
X29561905Y21323810D01*
X30514286Y21752381D02*
X30561905Y21800000D01*
X30657143Y21847619D01*
X30895239Y21847619D01*
X30990477Y21800000D01*
X31038096Y21752381D01*
X31085715Y21657143D01*
X31085715Y21561905D01*
X31038096Y21419048D01*
X30466667Y20847619D01*
X31085715Y20847619D01*
X33733334Y20847619D02*
X33400000Y21323810D01*
X33161905Y20847619D02*
X33161905Y21847619D01*
X33542858Y21847619D01*
X33638096Y21800000D01*
X33685715Y21752381D01*
X33733334Y21657143D01*
X33733334Y21514286D01*
X33685715Y21419048D01*
X33638096Y21371429D01*
X33542858Y21323810D01*
X33161905Y21323810D01*
X34161905Y20847619D02*
X34161905Y21847619D01*
X34542858Y21847619D01*
X34638096Y21800000D01*
X34685715Y21752381D01*
X34733334Y21657143D01*
X34733334Y21514286D01*
X34685715Y21419048D01*
X34638096Y21371429D01*
X34542858Y21323810D01*
X34161905Y21323810D01*
X35685715Y20847619D02*
X35114286Y20847619D01*
X35400000Y20847619D02*
X35400000Y21847619D01*
X35304762Y21704762D01*
X35209524Y21609524D01*
X35114286Y21561905D01*
X41361905Y20847619D02*
X41361905Y21847619D01*
X41600000Y21847619D01*
X41742858Y21800000D01*
X41838096Y21704762D01*
X41885715Y21609524D01*
X41933334Y21419048D01*
X41933334Y21276190D01*
X41885715Y21085714D01*
X41838096Y20990476D01*
X41742858Y20895238D01*
X41600000Y20847619D01*
X41361905Y20847619D01*
X42885715Y20847619D02*
X42314286Y20847619D01*
X42600000Y20847619D02*
X42600000Y21847619D01*
X42504762Y21704762D01*
X42409524Y21609524D01*
X42314286Y21561905D01*
X6961905Y21447619D02*
X6961905Y22447619D01*
X7342858Y22447619D01*
X7438096Y22400000D01*
X7485715Y22352381D01*
X7533334Y22257143D01*
X7533334Y22114286D01*
X7485715Y22019048D01*
X7438096Y21971429D01*
X7342858Y21923810D01*
X6961905Y21923810D01*
X7866667Y22447619D02*
X8485715Y22447619D01*
X8152381Y22066667D01*
X8295239Y22066667D01*
X8390477Y22019048D01*
X8438096Y21971429D01*
X8485715Y21876190D01*
X8485715Y21638095D01*
X8438096Y21542857D01*
X8390477Y21495238D01*
X8295239Y21447619D01*
X8009524Y21447619D01*
X7914286Y21495238D01*
X7866667Y21542857D01*
X28638095Y10747619D02*
X28638095Y9938095D01*
X28685714Y9842857D01*
X28733333Y9795238D01*
X28828571Y9747619D01*
X29019048Y9747619D01*
X29114286Y9795238D01*
X29161905Y9842857D01*
X29209524Y9938095D01*
X29209524Y10747619D01*
X30209524Y9747619D02*
X29638095Y9747619D01*
X29923809Y9747619D02*
X29923809Y10747619D01*
X29828571Y10604762D01*
X29733333Y10509524D01*
X29638095Y10461905D01*
X34138095Y10747619D02*
X34138095Y9938095D01*
X34185714Y9842857D01*
X34233333Y9795238D01*
X34328571Y9747619D01*
X34519048Y9747619D01*
X34614286Y9795238D01*
X34661905Y9842857D01*
X34709524Y9938095D01*
X34709524Y10747619D01*
X35138095Y10652381D02*
X35185714Y10700000D01*
X35280952Y10747619D01*
X35519048Y10747619D01*
X35614286Y10700000D01*
X35661905Y10652381D01*
X35709524Y10557143D01*
X35709524Y10461905D01*
X35661905Y10319048D01*
X35090476Y9747619D01*
X35709524Y9747619D01*
X39638095Y10747619D02*
X39638095Y9938095D01*
X39685714Y9842857D01*
X39733333Y9795238D01*
X39828571Y9747619D01*
X40019048Y9747619D01*
X40114286Y9795238D01*
X40161905Y9842857D01*
X40209524Y9938095D01*
X40209524Y10747619D01*
X40590476Y10747619D02*
X41209524Y10747619D01*
X40876190Y10366667D01*
X41019048Y10366667D01*
X41114286Y10319048D01*
X41161905Y10271429D01*
X41209524Y10176190D01*
X41209524Y9938095D01*
X41161905Y9842857D01*
X41114286Y9795238D01*
X41019048Y9747619D01*
X40733333Y9747619D01*
X40638095Y9795238D01*
X40590476Y9842857D01*
X18223809Y18323810D02*
X18223809Y17847619D01*
X17890476Y18847619D02*
X18223809Y18323810D01*
X18557143Y18847619D01*
X19414286Y17847619D02*
X18842857Y17847619D01*
X19128571Y17847619D02*
X19128571Y18847619D01*
X19033333Y18704762D01*
X18938095Y18609524D01*
X18842857Y18561905D01*
X33333334Y30447619D02*
X33000000Y30923810D01*
X32761905Y30447619D02*
X32761905Y31447619D01*
X33142858Y31447619D01*
X33238096Y31400000D01*
X33285715Y31352381D01*
X33333334Y31257143D01*
X33333334Y31114286D01*
X33285715Y31019048D01*
X33238096Y30971429D01*
X33142858Y30923810D01*
X32761905Y30923810D01*
X33666667Y31447619D02*
X34285715Y31447619D01*
X33952381Y31066667D01*
X34095239Y31066667D01*
X34190477Y31019048D01*
X34238096Y30971429D01*
X34285715Y30876190D01*
X34285715Y30638095D01*
X34238096Y30542857D01*
X34190477Y30495238D01*
X34095239Y30447619D01*
X33809524Y30447619D01*
X33714286Y30495238D01*
X33666667Y30542857D01*
%LPC*%
D15*
X23021200Y3770000D03*
X26978800Y3770000D03*
X46778800Y3770000D03*
X42818800Y3770000D03*
X38858800Y3770000D03*
X11141200Y3770000D03*
X7181200Y3770000D03*
X3221200Y3770000D03*
X34898800Y3770000D03*
X15101200Y3770000D03*
X30938800Y3770000D03*
X19061200Y3770000D03*
D16*
X15000000Y37000000D03*
X35000000Y37000000D03*
X15000000Y17000000D03*
D17*
X16350000Y28200000D03*
X15450000Y28200000D03*
X15450000Y26600000D03*
X16350000Y26600000D03*
D18*
X29000000Y35750000D03*
X29000000Y36650000D03*
X27400000Y36650000D03*
X27400000Y35750000D03*
D19*
X24300000Y21000000D03*
X22500000Y21000000D03*
X24300000Y19100000D03*
X22500000Y19100000D03*
D20*
X39430000Y27470000D03*
X41970000Y27470000D03*
X39430000Y24930000D03*
X41970000Y24930000D03*
X39430000Y36840000D03*
X41970000Y36840000D03*
X39430000Y34300000D03*
X41970000Y34300000D03*
X39430000Y31760000D03*
X41970000Y31760000D03*
D21*
X22600000Y23900000D03*
X23400000Y23900000D03*
X24200000Y23900000D03*
X25000000Y23900000D03*
X25800000Y23900000D03*
X26600000Y23900000D03*
X27400000Y23900000D03*
X28200000Y23900000D03*
D22*
X29700000Y25400000D03*
X29700000Y26200000D03*
X29700000Y27000000D03*
X29700000Y27800000D03*
X29700000Y28600000D03*
X29700000Y29400000D03*
X29700000Y30200000D03*
X29700000Y31000000D03*
D21*
X28200000Y32500000D03*
X27400000Y32500000D03*
X26600000Y32500000D03*
X25800000Y32500000D03*
X25000000Y32500000D03*
X24200000Y32500000D03*
X23400000Y32500000D03*
X22600000Y32500000D03*
D22*
X21100000Y31000000D03*
X21100000Y30200000D03*
X21100000Y29400000D03*
X21100000Y28600000D03*
X21100000Y27800000D03*
X21100000Y27000000D03*
X21100000Y26200000D03*
X21100000Y25400000D03*
D23*
X15150000Y30600000D03*
X16850000Y30600000D03*
X45650000Y9200000D03*
X43950000Y9200000D03*
D24*
X18800000Y21950000D03*
X18800000Y23650000D03*
X26600000Y18150000D03*
X26600000Y19850000D03*
X15800000Y21950000D03*
X15800000Y23650000D03*
X16850000Y32400000D03*
X15150000Y32400000D03*
D23*
X39000000Y18150000D03*
X39000000Y19850000D03*
D25*
X19431000Y35510000D03*
X19431000Y33610000D03*
D26*
X31000000Y19800000D03*
X30200000Y19800000D03*
X29400000Y19800000D03*
X28600000Y19800000D03*
X28600000Y18200000D03*
X29400000Y18200000D03*
X30200000Y18200000D03*
X31000000Y18200000D03*
X35600000Y19800000D03*
X34800000Y19800000D03*
X34000000Y19800000D03*
X33200000Y19800000D03*
X33200000Y18200000D03*
X34000000Y18200000D03*
X34800000Y18200000D03*
X35600000Y18200000D03*
D23*
X41000000Y19850000D03*
X41000000Y18150000D03*
D27*
X9900000Y28375000D03*
D28*
X9900000Y27650000D03*
X9900000Y26350000D03*
D27*
X9900000Y25625000D03*
D28*
X9900000Y27000000D03*
D29*
X8500000Y29500000D03*
X8500000Y24500000D03*
D30*
X9550000Y30725000D03*
X9550000Y23275000D03*
D31*
X5750000Y30875000D03*
X5750000Y23125000D03*
D32*
X27050000Y12050000D03*
X28000000Y12050000D03*
X28950000Y12050000D03*
X28950000Y14350000D03*
X28000000Y14350000D03*
X27050000Y14350000D03*
X32550000Y12050000D03*
X33500000Y12050000D03*
X34450000Y12050000D03*
X34450000Y14350000D03*
X33500000Y14350000D03*
X32550000Y14350000D03*
X38050000Y12050000D03*
X39000000Y12050000D03*
X39950000Y12050000D03*
X39950000Y14350000D03*
X39000000Y14350000D03*
X38050000Y14350000D03*
D33*
X24100000Y16000000D03*
X19900000Y16000000D03*
D24*
X36850000Y30900000D03*
X35150000Y30900000D03*
M02*
