G04 #@! TF.FileFunction,Legend,Bot*
%FSLAX46Y46*%
G04 Gerber Fmt 4.6, Leading zero omitted, Abs format (unit mm)*
G04 Created by KiCad (PCBNEW 4.0.5) date 02/05/17 15:08:45*
%MOMM*%
%LPD*%
G01*
G04 APERTURE LIST*
%ADD10C,0.100000*%
%ADD11C,0.600000*%
%ADD12C,0.200000*%
%ADD13C,0.150000*%
%ADD14R,2.620000X5.160000*%
%ADD15C,3.080000*%
%ADD16C,1.880000*%
%ADD17C,0.880000*%
%ADD18O,2.280000X1.730000*%
%ADD19O,2.280000X1.630000*%
G04 APERTURE END LIST*
D10*
X4000000Y22500000D02*
G75*
G03X5500000Y21000000I1500000J0D01*
G01*
X5500000Y33000000D02*
G75*
G03X4000000Y31500000I0J-1500000D01*
G01*
D11*
X32999999Y25590476D02*
X30333333Y21590476D01*
X30333333Y25590476D02*
X32999999Y21590476D01*
X26904761Y21590476D02*
X28809523Y21590476D01*
X28809523Y25590476D01*
X25571428Y21590476D02*
X25571428Y25590476D01*
X23666666Y21590476D02*
X23666666Y25590476D01*
X21380952Y21590476D01*
X21380952Y25590476D01*
X19476190Y21590476D02*
X19476190Y25590476D01*
X17190476Y21590476D02*
X18904761Y23876190D01*
X17190476Y25590476D02*
X19476190Y23304762D01*
D12*
X38380000Y27220000D02*
G75*
G03X39180000Y26420000I800000J0D01*
G01*
X39180000Y28520000D02*
G75*
G03X38380000Y27720000I0J-800000D01*
G01*
X38380000Y24680000D02*
G75*
G03X39180000Y23880000I800000J0D01*
G01*
X39180000Y25980000D02*
G75*
G03X38380000Y25180000I0J-800000D01*
G01*
X43020000Y27720000D02*
G75*
G03X42220000Y28520000I-800000J0D01*
G01*
X43020000Y25180000D02*
G75*
G03X42220000Y25980000I-800000J0D01*
G01*
X42220000Y23880000D02*
G75*
G03X43020000Y24680000I0J800000D01*
G01*
X42220000Y26420000D02*
G75*
G03X43020000Y27220000I0J800000D01*
G01*
X43020000Y27220000D02*
X43020000Y27720000D01*
X38380000Y27220000D02*
X38380000Y27720000D01*
X43020000Y24680000D02*
X43020000Y25180000D01*
X38380000Y24680000D02*
X38380000Y25180000D01*
X39180000Y23880000D02*
X42220000Y23880000D01*
X39180000Y25980000D02*
X42220000Y25980000D01*
X39180000Y26420000D02*
X42220000Y26420000D01*
X39180000Y28520000D02*
X42220000Y28520000D01*
X37800000Y24930000D02*
X38380000Y24930000D01*
X37800000Y27470000D02*
X38380000Y27470000D01*
D13*
X37261905Y24477619D02*
X37261905Y25477619D01*
X36880952Y25477619D01*
X36785714Y25430000D01*
X36738095Y25382381D01*
X36690476Y25287143D01*
X36690476Y25144286D01*
X36738095Y25049048D01*
X36785714Y25001429D01*
X36880952Y24953810D01*
X37261905Y24953810D01*
X36261905Y24477619D02*
X36261905Y25477619D01*
X36023810Y25477619D01*
X35880952Y25430000D01*
X35785714Y25334762D01*
X35738095Y25239524D01*
X35690476Y25049048D01*
X35690476Y24906190D01*
X35738095Y24715714D01*
X35785714Y24620476D01*
X35880952Y24525238D01*
X36023810Y24477619D01*
X36261905Y24477619D01*
X35357143Y25477619D02*
X34690476Y25477619D01*
X35119048Y24477619D01*
X36690476Y27017619D02*
X37023810Y27493810D01*
X37261905Y27017619D02*
X37261905Y28017619D01*
X36880952Y28017619D01*
X36785714Y27970000D01*
X36738095Y27922381D01*
X36690476Y27827143D01*
X36690476Y27684286D01*
X36738095Y27589048D01*
X36785714Y27541429D01*
X36880952Y27493810D01*
X37261905Y27493810D01*
X36261905Y27541429D02*
X35928571Y27541429D01*
X35785714Y27017619D02*
X36261905Y27017619D01*
X36261905Y28017619D01*
X35785714Y28017619D01*
X35404762Y27065238D02*
X35261905Y27017619D01*
X35023809Y27017619D01*
X34928571Y27065238D01*
X34880952Y27112857D01*
X34833333Y27208095D01*
X34833333Y27303333D01*
X34880952Y27398571D01*
X34928571Y27446190D01*
X35023809Y27493810D01*
X35214286Y27541429D01*
X35309524Y27589048D01*
X35357143Y27636667D01*
X35404762Y27731905D01*
X35404762Y27827143D01*
X35357143Y27922381D01*
X35309524Y27970000D01*
X35214286Y28017619D01*
X34976190Y28017619D01*
X34833333Y27970000D01*
X20761905Y11072619D02*
X20761905Y12072619D01*
X20380952Y12072619D01*
X20285714Y12025000D01*
X20238095Y11977381D01*
X20190476Y11882143D01*
X20190476Y11739286D01*
X20238095Y11644048D01*
X20285714Y11596429D01*
X20380952Y11548810D01*
X20761905Y11548810D01*
X19190476Y11167857D02*
X19238095Y11120238D01*
X19380952Y11072619D01*
X19476190Y11072619D01*
X19619048Y11120238D01*
X19714286Y11215476D01*
X19761905Y11310714D01*
X19809524Y11501190D01*
X19809524Y11644048D01*
X19761905Y11834524D01*
X19714286Y11929762D01*
X19619048Y12025000D01*
X19476190Y12072619D01*
X19380952Y12072619D01*
X19238095Y12025000D01*
X19190476Y11977381D01*
X18428571Y11596429D02*
X18285714Y11548810D01*
X18238095Y11501190D01*
X18190476Y11405952D01*
X18190476Y11263095D01*
X18238095Y11167857D01*
X18285714Y11120238D01*
X18380952Y11072619D01*
X18761905Y11072619D01*
X18761905Y12072619D01*
X18428571Y12072619D01*
X18333333Y12025000D01*
X18285714Y11977381D01*
X18238095Y11882143D01*
X18238095Y11786905D01*
X18285714Y11691667D01*
X18333333Y11644048D01*
X18428571Y11596429D01*
X18761905Y11596429D01*
X17761905Y11453571D02*
X17000000Y11453571D01*
X16523810Y11072619D02*
X16523810Y12072619D01*
X16285715Y12072619D01*
X16142857Y12025000D01*
X16047619Y11929762D01*
X16000000Y11834524D01*
X15952381Y11644048D01*
X15952381Y11501190D01*
X16000000Y11310714D01*
X16047619Y11215476D01*
X16142857Y11120238D01*
X16285715Y11072619D01*
X16523810Y11072619D01*
X15142857Y11120238D02*
X15238095Y11072619D01*
X15428572Y11072619D01*
X15523810Y11120238D01*
X15571429Y11215476D01*
X15571429Y11596429D01*
X15523810Y11691667D01*
X15428572Y11739286D01*
X15238095Y11739286D01*
X15142857Y11691667D01*
X15095238Y11596429D01*
X15095238Y11501190D01*
X15571429Y11405952D01*
X14714286Y11120238D02*
X14619048Y11072619D01*
X14428572Y11072619D01*
X14333333Y11120238D01*
X14285714Y11215476D01*
X14285714Y11263095D01*
X14333333Y11358333D01*
X14428572Y11405952D01*
X14571429Y11405952D01*
X14666667Y11453571D01*
X14714286Y11548810D01*
X14714286Y11596429D01*
X14666667Y11691667D01*
X14571429Y11739286D01*
X14428572Y11739286D01*
X14333333Y11691667D01*
X13857143Y11072619D02*
X13857143Y11739286D01*
X13857143Y12072619D02*
X13904762Y12025000D01*
X13857143Y11977381D01*
X13809524Y12025000D01*
X13857143Y12072619D01*
X13857143Y11977381D01*
X12952381Y11739286D02*
X12952381Y10929762D01*
X13000000Y10834524D01*
X13047619Y10786905D01*
X13142858Y10739286D01*
X13285715Y10739286D01*
X13380953Y10786905D01*
X12952381Y11120238D02*
X13047619Y11072619D01*
X13238096Y11072619D01*
X13333334Y11120238D01*
X13380953Y11167857D01*
X13428572Y11263095D01*
X13428572Y11548810D01*
X13380953Y11644048D01*
X13333334Y11691667D01*
X13238096Y11739286D01*
X13047619Y11739286D01*
X12952381Y11691667D01*
X12476191Y11739286D02*
X12476191Y11072619D01*
X12476191Y11644048D02*
X12428572Y11691667D01*
X12333334Y11739286D01*
X12190476Y11739286D01*
X12095238Y11691667D01*
X12047619Y11596429D01*
X12047619Y11072619D01*
X10857143Y11977381D02*
X10809524Y12025000D01*
X10714286Y12072619D01*
X10476190Y12072619D01*
X10380952Y12025000D01*
X10333333Y11977381D01*
X10285714Y11882143D01*
X10285714Y11786905D01*
X10333333Y11644048D01*
X10904762Y11072619D01*
X10285714Y11072619D01*
X9666667Y12072619D02*
X9571428Y12072619D01*
X9476190Y12025000D01*
X9428571Y11977381D01*
X9380952Y11882143D01*
X9333333Y11691667D01*
X9333333Y11453571D01*
X9380952Y11263095D01*
X9428571Y11167857D01*
X9476190Y11120238D01*
X9571428Y11072619D01*
X9666667Y11072619D01*
X9761905Y11120238D01*
X9809524Y11167857D01*
X9857143Y11263095D01*
X9904762Y11453571D01*
X9904762Y11691667D01*
X9857143Y11882143D01*
X9809524Y11977381D01*
X9761905Y12025000D01*
X9666667Y12072619D01*
X8380952Y11072619D02*
X8952381Y11072619D01*
X8666667Y11072619D02*
X8666667Y12072619D01*
X8761905Y11929762D01*
X8857143Y11834524D01*
X8952381Y11786905D01*
X8047619Y12072619D02*
X7380952Y12072619D01*
X7809524Y11072619D01*
X6238095Y11072619D02*
X6238095Y12072619D01*
X6238095Y11691667D02*
X6142857Y11739286D01*
X5952380Y11739286D01*
X5857142Y11691667D01*
X5809523Y11644048D01*
X5761904Y11548810D01*
X5761904Y11263095D01*
X5809523Y11167857D01*
X5857142Y11120238D01*
X5952380Y11072619D01*
X6142857Y11072619D01*
X6238095Y11120238D01*
X5428571Y11739286D02*
X5190476Y11072619D01*
X4952380Y11739286D02*
X5190476Y11072619D01*
X5285714Y10834524D01*
X5333333Y10786905D01*
X5428571Y10739286D01*
X20904762Y10422619D02*
X20333333Y10422619D01*
X20619048Y9422619D02*
X20619048Y10422619D01*
X20000000Y9422619D02*
X20000000Y10422619D01*
X19571428Y9422619D02*
X19571428Y9946429D01*
X19619047Y10041667D01*
X19714285Y10089286D01*
X19857143Y10089286D01*
X19952381Y10041667D01*
X20000000Y9994048D01*
X18952381Y9422619D02*
X19047619Y9470238D01*
X19095238Y9517857D01*
X19142857Y9613095D01*
X19142857Y9898810D01*
X19095238Y9994048D01*
X19047619Y10041667D01*
X18952381Y10089286D01*
X18809523Y10089286D01*
X18714285Y10041667D01*
X18666666Y9994048D01*
X18619047Y9898810D01*
X18619047Y9613095D01*
X18666666Y9517857D01*
X18714285Y9470238D01*
X18809523Y9422619D01*
X18952381Y9422619D01*
X18190476Y9422619D02*
X18190476Y10089286D01*
X18190476Y9994048D02*
X18142857Y10041667D01*
X18047619Y10089286D01*
X17904761Y10089286D01*
X17809523Y10041667D01*
X17761904Y9946429D01*
X17761904Y9422619D01*
X17761904Y9946429D02*
X17714285Y10041667D01*
X17619047Y10089286D01*
X17476190Y10089286D01*
X17380952Y10041667D01*
X17333333Y9946429D01*
X17333333Y9422619D01*
X16428571Y9422619D02*
X16428571Y9946429D01*
X16476190Y10041667D01*
X16571428Y10089286D01*
X16761905Y10089286D01*
X16857143Y10041667D01*
X16428571Y9470238D02*
X16523809Y9422619D01*
X16761905Y9422619D01*
X16857143Y9470238D01*
X16904762Y9565476D01*
X16904762Y9660714D01*
X16857143Y9755952D01*
X16761905Y9803571D01*
X16523809Y9803571D01*
X16428571Y9851190D01*
X16000000Y9470238D02*
X15904762Y9422619D01*
X15714286Y9422619D01*
X15619047Y9470238D01*
X15571428Y9565476D01*
X15571428Y9613095D01*
X15619047Y9708333D01*
X15714286Y9755952D01*
X15857143Y9755952D01*
X15952381Y9803571D01*
X16000000Y9898810D01*
X16000000Y9946429D01*
X15952381Y10041667D01*
X15857143Y10089286D01*
X15714286Y10089286D01*
X15619047Y10041667D01*
X14523809Y10422619D02*
X13952380Y10422619D01*
X14238095Y9422619D02*
X14238095Y10422619D01*
X13190475Y9422619D02*
X13190475Y9946429D01*
X13238094Y10041667D01*
X13333332Y10089286D01*
X13523809Y10089286D01*
X13619047Y10041667D01*
X13190475Y9470238D02*
X13285713Y9422619D01*
X13523809Y9422619D01*
X13619047Y9470238D01*
X13666666Y9565476D01*
X13666666Y9660714D01*
X13619047Y9755952D01*
X13523809Y9803571D01*
X13285713Y9803571D01*
X13190475Y9851190D01*
X12714285Y9422619D02*
X12714285Y10422619D01*
X12285713Y9422619D02*
X12285713Y9946429D01*
X12333332Y10041667D01*
X12428570Y10089286D01*
X12571428Y10089286D01*
X12666666Y10041667D01*
X12714285Y9994048D01*
X11857142Y9470238D02*
X11761904Y9422619D01*
X11571428Y9422619D01*
X11476189Y9470238D01*
X11428570Y9565476D01*
X11428570Y9613095D01*
X11476189Y9708333D01*
X11571428Y9755952D01*
X11714285Y9755952D01*
X11809523Y9803571D01*
X11857142Y9898810D01*
X11857142Y9946429D01*
X11809523Y10041667D01*
X11714285Y10089286D01*
X11571428Y10089286D01*
X11476189Y10041667D01*
X10999999Y9422619D02*
X10999999Y10089286D01*
X10999999Y10422619D02*
X11047618Y10375000D01*
X10999999Y10327381D01*
X10952380Y10375000D01*
X10999999Y10422619D01*
X10999999Y10327381D01*
X10523809Y10089286D02*
X10523809Y9422619D01*
X10523809Y9994048D02*
X10476190Y10041667D01*
X10380952Y10089286D01*
X10238094Y10089286D01*
X10142856Y10041667D01*
X10095237Y9946429D01*
X10095237Y9422619D01*
X9619047Y9803571D02*
X8857142Y9803571D01*
X8047618Y9946429D02*
X7904761Y9898810D01*
X7857142Y9851190D01*
X7809523Y9755952D01*
X7809523Y9613095D01*
X7857142Y9517857D01*
X7904761Y9470238D01*
X7999999Y9422619D01*
X8380952Y9422619D01*
X8380952Y10422619D01*
X8047618Y10422619D01*
X7952380Y10375000D01*
X7904761Y10327381D01*
X7857142Y10232143D01*
X7857142Y10136905D01*
X7904761Y10041667D01*
X7952380Y9994048D01*
X8047618Y9946429D01*
X8380952Y9946429D01*
X6999999Y9470238D02*
X7095237Y9422619D01*
X7285714Y9422619D01*
X7380952Y9470238D01*
X7428571Y9565476D01*
X7428571Y9946429D01*
X7380952Y10041667D01*
X7285714Y10089286D01*
X7095237Y10089286D01*
X6999999Y10041667D01*
X6952380Y9946429D01*
X6952380Y9851190D01*
X7428571Y9755952D01*
X6619047Y10089286D02*
X6380952Y9422619D01*
X6142856Y10089286D02*
X6380952Y9422619D01*
X6476190Y9184524D01*
X6523809Y9136905D01*
X6619047Y9089286D01*
X47038095Y7033333D02*
X46561904Y7033333D01*
X47133333Y6747619D02*
X46800000Y7747619D01*
X46466666Y6747619D01*
X3485714Y6747619D02*
X3485714Y7747619D01*
X2914285Y6747619D01*
X2914285Y7747619D01*
D10*
X37300000Y39000000D02*
G75*
G03X32700000Y39000000I-2300000J-2000000D01*
G01*
X17300000Y39000000D02*
G75*
G03X12700000Y39000000I-2300000J-2000000D01*
G01*
X17300000Y39000000D02*
X32700000Y39000000D01*
X37300000Y39000000D02*
X44000000Y39000000D01*
X11000000Y39000000D02*
X12700000Y39000000D01*
X11000000Y39000000D02*
X11000000Y33000000D01*
X0Y11000000D02*
X11000000Y17000000D01*
X5500000Y33000000D02*
X11000000Y33000000D01*
X5500000Y21000000D02*
X11000000Y21000000D01*
X4000000Y31500000D02*
X4000000Y22500000D01*
X11000000Y21000000D02*
X11000000Y17000000D01*
X44000000Y39000000D02*
X44000000Y19000000D01*
X44000000Y19000000D02*
X50000000Y14500000D01*
X50000000Y0D02*
X50000000Y14500000D01*
X0Y0D02*
X0Y11000000D01*
X0Y0D02*
X50000000Y0D01*
%LPC*%
D14*
X46778800Y3770000D03*
X42818800Y3770000D03*
X38858800Y3770000D03*
X34898800Y3770000D03*
X30938800Y3770000D03*
X26978800Y3770000D03*
X23021200Y3770000D03*
X19061200Y3770000D03*
X15101200Y3770000D03*
X11141200Y3770000D03*
X7181200Y3770000D03*
X3221200Y3770000D03*
D15*
X15000000Y37000000D03*
X35000000Y37000000D03*
X15000000Y17000000D03*
D16*
X39430000Y27470000D03*
X41970000Y27470000D03*
X39430000Y24930000D03*
X41970000Y24930000D03*
X39430000Y36840000D03*
X41970000Y36840000D03*
X39430000Y34300000D03*
X41970000Y34300000D03*
X39430000Y31760000D03*
X41970000Y31760000D03*
D17*
X8500000Y29500000D03*
X8500000Y24500000D03*
D18*
X9550000Y30725000D03*
X9550000Y23275000D03*
D19*
X5750000Y30875000D03*
X5750000Y23125000D03*
M02*
